<svg xmlns="http://www.w3.org/2000/svg" xmlns:xlink="http://www.w3.org/1999/xlink" width="400" height="264.62" viewBox="0 0 400 264.62">
  <defs>
    <clipPath id="clip-path">
      <path id="Path_912762" data-name="Path 912762" d="M219.22,226.035l-3.193,2.474a8.235,8.235,0,0,1-11.557-1.461l-98.321-126.9L122.36,87.59l98.321,126.9a8.235,8.235,0,0,1-1.461,11.557Z" transform="translate(-106.15 -87.59)" fill="#605d5e"/>
    </clipPath>
  </defs>
  <g id="Group_1122240" data-name="Group 1122240" transform="translate(-285 -4270.008)">
    <rect id="Rectangle_401121" data-name="Rectangle 401121" width="400" height="132.682" rx="30" transform="translate(285 4401.946)" fill="#8f006f"/>
    <g id="Asset_1im" data-name="Asset 1im" transform="translate(273.63 4270.008)">
      <g id="Layer_2" data-name="Layer 2" transform="translate(-0.009 0)">
        <g id="objects">
          <g id="Group_1122210" data-name="Group 1122210">
            <g id="Group_1122167" data-name="Group 1122167" transform="translate(24.723 1.166)">
              <g id="Group_1122166" data-name="Group 1122166">
                <path id="Path_912699" data-name="Path 912699" d="M28.944,215.6H312.373a7.96,7.96,0,0,0,7.811-6.409l39.088-195.2.7-3.463A7.972,7.972,0,0,0,352.156.99H78.14a7.955,7.955,0,0,0-7.728,6.043L61.729,42.081,21.216,205.713A7.973,7.973,0,0,0,28.944,215.6Z" transform="translate(-20.978 -0.99)" fill="#fff"/>
                <path id="Path_912700" data-name="Path 912700" d="M66.414,134.989C64.612,114.632,73.73,95.052,89,84.709c35.66-24.15,118.678-70.86,173.917-26.542,71.991,57.772-5.113,124.191-65.312,107.356S91.377,177.352,74.46,156.877c-5.077-6.138-7.351-13.96-8.058-21.9Z" transform="translate(-12.928 5.919)" fill="#dee5ff"/>
              </g>
              <path id="Path_912701" data-name="Path 912701" d="M30.882,163.385c1.5-8.612,3.31-17.129,5.089-25.623s3.628-16.964,5.549-25.4q5.743-25.3,12.264-50.232,1.82-6.962,3.711-13.889c.389-1.437.778-2.886,1.166-4.335-.071.212-.153.424-.224.636-.141.4-.6.141-.459-.271,1.154-3.369,2.333-6.715,3.44-10.12.177-.542.754-.212.613.353-1.084,4.206-2.285,8.352-3.416,12.523q-1.661,6.132-3.275,12.3-3.269,12.458-6.35,25.01-6.167,25.11-11.58,50.574c-2.038,9.578-3.888,19.249-5.937,28.815-.118.565-.683.2-.589-.342Z" transform="translate(-19.216 4.866)" fill="#102b46"/>
            </g>
            <path id="Path_912702" data-name="Path 912702" d="M61.522,12.122l289.52,24.244,4.206-20.51A13.2,13.2,0,0,0,342.312,0H71.123a7.949,7.949,0,0,0-7.61,5.619l-2,6.5Z" transform="translate(10.963 0)" fill="#a6b4f4"/>
            <g id="Group_1122168" data-name="Group 1122168" transform="translate(43.339 214.536)">
              <path id="Path_912703" data-name="Path 912703" d="M83.751,183.064H299.76a.475.475,0,0,0,.471-.483.465.465,0,0,0-.471-.471H83.751a.473.473,0,0,0-.471.471A.483.483,0,0,0,83.751,183.064Z" transform="translate(-28.5 -182.11)" fill="#102b46"/>
              <path id="Path_912704" data-name="Path 912704" d="M37.251,183.064H81.075a.475.475,0,0,0,.471-.483.465.465,0,0,0-.471-.471H37.251a.473.473,0,0,0-.471.471.483.483,0,0,0,.471.483Z" transform="translate(-36.78 -182.11)" fill="#102b46"/>
            </g>
            <path id="Path_912705" data-name="Path 912705" d="M307.827,32.74c-1.225,8.659-2.757,17.223-4.265,25.776s-3.087,17.082-4.724,25.576q-4.93,25.481-10.626,50.609c-1.06,4.677-2.156,9.354-3.251,14.007-.342,1.449-.683,2.91-1.025,4.371.071-.212.141-.436.2-.648.13-.4.589-.153.471.259-1.049,3.4-2.12,6.786-3.11,10.226-.153.542-.754.236-.624-.342.942-4.241,2.014-8.411,3-12.629q1.467-6.185,2.874-12.393,2.863-12.546,5.537-25.2,5.354-25.287,9.943-50.927c1.732-9.637,3.263-19.356,5.007-28.992.106-.565.672-.224.6.33Z" transform="translate(50.019 5.723)" fill="#102b46"/>
            <path id="Path_912706" data-name="Path 912706" d="M89.515,12.386q11.345,1.025,22.689,1.873c4.323.318,8.647.624,12.982.9.471.035.377.754-.094.73-15.15-.919-30.288-2.073-45.4-3.558-4.312-.424-8.635-.848-12.935-1.4a.351.351,0,0,1,.094-.7c7.563.66,15.114,1.473,22.666,2.156Z" transform="translate(11.844 1.821)" fill="#102b46"/>
            <g id="Group_1122169" data-name="Group 1122169" transform="translate(219.341 47.782)">
              <circle id="Ellipse_11558" data-name="Ellipse 11558" cx="4.665" cy="4.665" r="4.665" transform="translate(0 5.596)" fill="#fff"/>
              <circle id="Ellipse_11559" data-name="Ellipse 11559" cx="7.693" cy="7.693" r="7.693" transform="translate(24.94 2.568)" fill="#fff"/>
              <circle id="Ellipse_11560" data-name="Ellipse 11560" cx="10.261" cy="10.261" r="10.261" transform="translate(50.35)" fill="#fff"/>
            </g>
            <g id="Group_1122170" data-name="Group 1122170" transform="translate(94.186 1.908)">
              <path id="Path_912707" data-name="Path 912707" d="M85.323,6.07a3.471,3.471,0,0,1-3.287,2.356,1.87,1.87,0,0,1-2.014-2.391,3.5,3.5,0,0,1,3.3-2.344A1.87,1.87,0,0,1,85.323,6.07Z" transform="translate(-79.941 -1.251)" fill="#fff"/>
              <path id="Path_912708" data-name="Path 912708" d="M100.426,6.392a5.41,5.41,0,0,1-5.148,3.84c-2.368,0-3.852-1.755-3.322-3.9A5.439,5.439,0,0,1,97.128,2.54c2.321.024,3.793,1.744,3.3,3.852Z" transform="translate(-77.821 -1.456)" fill="#fff"/>
              <path id="Path_912709" data-name="Path 912709" d="M114.722,6.662a6.784,6.784,0,0,1-6.526,5.054c-3.063,0-5.054-2.309-4.418-5.136a6.815,6.815,0,0,1,6.574-4.96c2.98.035,4.936,2.285,4.382,5.042Z" transform="translate(-75.718 -1.62)" fill="#fff"/>
            </g>
            <g id="Group_1122203" data-name="Group 1122203" transform="translate(42.108 10.27)">
              <g id="Group_1122202" data-name="Group 1122202">
                <path id="Path_912710" data-name="Path 912710" d="M85.44,86.888c7.8,2.062,7.846,2.144,15.751,7.775.141.094,1.143,5.761,1.19,5.926l.754,3.911c1.508,5.384-4.347,11.168-9.212,12.523l-10.061,2.816a1,1,0,0,1-.459.012c-.53-.106-1-.188-1.4-.259-10.6-1.861-9.271-4.594-9.283-4.606-2.45-1.4-2.356-3.134-1.814-4.359a1.272,1.272,0,0,0-.707-1.661c-.754-.295-1.52-1.048-1.72-2.816a3.1,3.1,0,0,1,1.225-2.686c-.13.071-.283.165-.495.271-.071.035-.165-.024-.236-.047-3.357-.683-3.357-5.961,0-6.338l14.243-1.626A1.324,1.324,0,0,0,84,93.615c-.707-1.025-2.168-2.262-5.207-3.251C72.481,88.3,75.532,84.273,85.44,86.9Z" transform="translate(-30.265 5.05)" fill="#e8ad8e"/>
                <g id="Group_1122172" data-name="Group 1122172" transform="translate(109.42 70.405)">
                  <g id="Group_1122171" data-name="Group 1122171">
                    <path id="Path_912711" data-name="Path 912711" d="M169.1,76.393a1.664,1.664,0,0,0-.742.188l-36.909,65.064c-5.089,6.951-3.028,9.825,3.864,14.549,6.974,4.795,16,1.932,22.713-5.749l9.672-12.2,14.431-22.878.094-.13a21.527,21.527,0,0,0,1.826-21.193l-2.109-8.694A11.729,11.729,0,0,0,169.11,76.4Z" transform="translate(-128.617 -67.088)" fill="#e8ad8e"/>
                    <path id="Path_912712" data-name="Path 912712" d="M161.972,78.352c9.919-19.438,20.157-5.172,27.72.672h0c7.551,5.831,7.8,18.3.542,27.684l-24.9,32.939s-6.35-13.807-23.42-20.934Z" transform="translate(-126.25 -68.481)" fill="#616491"/>
                  </g>
                  <path id="Path_912713" data-name="Path 912713" d="M156.244,120.192c-.966-.86-1.956-1.708-2.98-2.509a52.288,52.288,0,0,0-11.2-6.8c-.353-.153-.884.271-.565.624a2.454,2.454,0,0,0,1.425.778,59.561,59.561,0,0,1,9.684,6.02c1.261.978,2.474,2.038,3.64,3.122v-1.237Z" transform="translate(-126.341 -60.937)"/>
                </g>
                <g id="Group_1122176" data-name="Group 1122176" transform="translate(159.663 26.151)">
                  <path id="Path_912714" data-name="Path 912714" d="M181.143,70.386c-11.133-11.722-13.159-27.508-4.524-35.248s24.669-4.524,35.8,7.186,13.159,27.508,4.524,35.248S192.276,82.1,181.143,70.386Z" transform="translate(-171.266 -30.916)" fill="#603225"/>
                  <g id="Group_1122175" data-name="Group 1122175" transform="translate(23.214 11.558)">
                    <g id="Group_1122173" data-name="Group 1122173">
                      <path id="Path_912715" data-name="Path 912715" d="M200.644,77A20.2,20.2,0,0,1,201.9,47.9a21.591,21.591,0,0,1,29.923.931,20.2,20.2,0,0,1-1.261,29.1A21.591,21.591,0,0,1,200.644,77Z" transform="translate(-190.243 -40.442)" fill="#603225"/>
                      <path id="Path_912716" data-name="Path 912716" d="M199.157,50.285c1.119-1.013,2.321-2.026,3.593-2.992,9.083-6.927,17.482-8.4,24.3-4.288,8.564,5.172,10.815,11.51,11.2,15.927a18.141,18.141,0,0,1-1.249,8.435.368.368,0,0,1-.483.177.345.345,0,0,1-.177-.459,17.74,17.74,0,0,0,1.19-8.117C237,52.888,233.25,47.575,226.677,43.6c-6.632-4.005-14.525-2.58-23.467,4.229a66.51,66.51,0,0,0-11.58,11.6.371.371,0,0,1-.507.082.346.346,0,0,1-.082-.495,68.877,68.877,0,0,1,8.129-8.741Z" transform="translate(-190.971 -40.727)" fill="#603225"/>
                    </g>
                    <g id="Group_1122174" data-name="Group 1122174" transform="translate(43.575 19.883)">
                      <path id="Path_912717" data-name="Path 912717" d="M230.222,71.217a7.933,7.933,0,0,1,.495-11.427,8.494,8.494,0,0,1,11.757.365,7.933,7.933,0,0,1-.495,11.427A8.494,8.494,0,0,1,230.222,71.217Z" transform="translate(-227.948 -57.605)" fill="#603225"/>
                      <path id="Path_912718" data-name="Path 912718" d="M228.078,65.994a.5.5,0,0,1,.165-.082.363.363,0,0,1,.436.259c.73,3.1,2.132,5.266,4.147,6.444a8.031,8.031,0,0,0,5.443.825.356.356,0,0,1,.436.247.351.351,0,0,1-.259.424,8.539,8.539,0,0,1-5.985-.9c-2.191-1.272-3.711-3.593-4.488-6.892a.335.335,0,0,1,.106-.342Z" transform="translate(-227.96 -56.128)" fill="#603225"/>
                    </g>
                  </g>
                </g>
                <path id="Path_912719" data-name="Path 912719" d="M203.938,70.48l-31.7,4.665L144.47,224.287l5.2.589a131.3,131.3,0,0,0,77.116-14.985h0L237.973,75.157l-28.438-4.665h-5.6Z" transform="translate(-16.374 2.28)" fill="#fff"/>
                <path id="Path_912720" data-name="Path 912720" d="M97.532,95.5l-4.748,4.17a7.277,7.277,0,0,0-.141,10.815l33.551,31.042c6.574,6,22.348,17.659,27.166,12.358l-.059-.094a29.727,29.727,0,0,1-3.652-17.659c.389-4.642-1.708-9.86-5.985-13.76l-37.026-27.26a7.289,7.289,0,0,0-9.118.389Z" transform="translate(-26.018 6.414)" fill="#e8ad8e"/>
                <path id="Path_912721" data-name="Path 912721" d="M218.155,66.108l-4.913-5.148s-15.173,11.934-29.711,2.71c-2.45,2.792-4.312,8.506-4.312,8.506s3.428,12.947,19.367,12.158S218.155,66.108,218.155,66.108Z" transform="translate(-10.186 0.584)" fill="#fff"/>
                <path id="Path_912722" data-name="Path 912722" d="M174.2,205.536a302.624,302.624,0,0,0,19.9-70.248c1.119-7.858,3.287-16.316,2.344-24.727-1.72-15.362-4.983-30.135-5.148-44.7-.035-2.721-20.027,4.17-21.417,5.525-9.165,28.674-29.027,138.339-32.915,159.427,0,0,11.651,14.914,37.3,7.928-.071-5.325-1.85-28.721-.047-33.209Z" transform="translate(-17.711 1.346)" fill="#616491"/>
                <path id="Path_912723" data-name="Path 912723" d="M248.722,217.592s-4.771-135.571-12.688-146.88c-3.994-5.7-10.756-5.289-18.861-7.622-.035-.012,6.444,3.711.424,2.639-.082-.012-19.226,29.31-19.756,45.379a169.262,169.262,0,0,1-1.567,18.708c-3.593,23.832-2.969,47.3-10.167,71.119-1.8,4.488-2.568,24.515-2.5,29.84C209.5,236.877,231.6,227.288,248.722,217.592Z" transform="translate(-9.405 0.964)" fill="#616491"/>
                <path id="Path_912724" data-name="Path 912724" d="M185.477,61.94s2.274,31.054,4.924,49.208a98.64,98.64,0,0,0-12.134-17.235l4.96-6.491L170.81,90.213l4.653-25.2,10-3.075Z" transform="translate(-11.684 0.759)" fill="#616491"/>
                <path id="Path_912725" data-name="Path 912725" d="M204.71,116.414l-.66,35.412,30.147-.813V116.39Z" transform="translate(-5.765 10.454)" fill="#616491"/>
                <path id="Path_912726" data-name="Path 912726" d="M190.489,108.829c-1.991-2.556-4.005-5.089-5.9-7.7-.907-1.261-1.791-2.545-2.651-3.84-.518-.778-1.025-1.555-1.52-2.344a5.331,5.331,0,0,0-1.284-1.649h-.012a.432.432,0,0,0,.13-.212,3.919,3.919,0,0,1,1.414-1.744,16.026,16.026,0,0,0,1.92-1.873c.624-.742,1.213-1.52,1.814-2.274a25.588,25.588,0,0,0,1.956-2.545c.295-.507-.448-.919-.825-.554a24.467,24.467,0,0,0-2.038,2.5c-.094.118-.177.224-.271.342a.648.648,0,0,0-.954-.448c-1.626.884-3.275.707-5.054.825a14.431,14.431,0,0,0-5.007,1.249c-.507-3.676,1.166-7.269,2.2-10.732,1.19-3.982,1.343-8.223,1.767-12.334A.594.594,0,0,0,175,65.335c-.436,4.359-.648,8.788-1.979,12.994C171.84,82,170.332,85.68,171.145,89.6a.571.571,0,0,0,.742.342,14.51,14.51,0,0,1,6.173-1.319c1.5,0,3.193.035,4.488-.813-.318.4-.636.789-.966,1.178a17.258,17.258,0,0,1-1.9,1.814,4.47,4.47,0,0,0-1.473,2.014.464.464,0,0,0,.33.6.394.394,0,0,0-.082.306,6.4,6.4,0,0,0,1.06,2.144c.4.66.813,1.308,1.225,1.956.884,1.355,1.791,2.686,2.733,3.994,1.908,2.651,3.947,5.219,5.937,7.811.495.648,1.555-.153,1.072-.778Z" transform="translate(-11.665 1.275)" fill="#fff"/>
                <path id="Path_912727" data-name="Path 912727" d="M181.658,125a3.876,3.876,0,0,0-1.72-1.531c-.059-.024-.13-.047-.188-.071a.494.494,0,0,0-.518-.483,1.67,1.67,0,0,0-.212-.094.73.73,0,0,0-.318.024,1.668,1.668,0,0,0-.259.082c-.177.059-.342.13-.507.2-.024,0-.047.024-.071.035a.77.77,0,0,0-.283.071l-.353.283a.567.567,0,0,0-.106.13c-.059.047-.118.082-.165.118a3.958,3.958,0,0,0-1.237,1.9,3.594,3.594,0,0,0,1.355,3.876,3.027,3.027,0,0,0,3.958-.412A3.44,3.44,0,0,0,181.67,125Zm-1.814,3.346a2.192,2.192,0,0,1-.518.271,1.635,1.635,0,0,1-1.308-.141,2.263,2.263,0,0,1-1.1-2.321,2.554,2.554,0,0,1,.8-1.367,1.881,1.881,0,0,1,.271-.188h.318a2.819,2.819,0,0,1,.766.13,2.7,2.7,0,0,1,1.107.7,2.088,2.088,0,0,1,.365.542,1.848,1.848,0,0,1,.118.33c.012.047.024.106.035.153a.676.676,0,0,0,.012.141,2.063,2.063,0,0,1-.4,1.261,2.4,2.4,0,0,1-.483.495Z" transform="translate(-10.834 11.598)" fill="#fff"/>
                <path id="Path_912728" data-name="Path 912728" d="M172.773,154.064a3.523,3.523,0,0,0-1.838-1.826,4.7,4.7,0,0,0-1.367-.365c-.141-.024-.283-.024-.424-.035a2.125,2.125,0,0,0-.247-.094,2.337,2.337,0,0,0-.99-.059,2.819,2.819,0,0,0-1.861,1,3.29,3.29,0,0,0,.224,4.147,4.482,4.482,0,0,0,4.618,1.072,2.97,2.97,0,0,0,1.92-1.579,2.871,2.871,0,0,0-.035-2.25Zm-1.107,1.461a.555.555,0,0,1-.047.2l-.024.035c-.035.059-.059.13-.094.188,0,0,0,.012-.035.047a1.792,1.792,0,0,1-.671.483,3.447,3.447,0,0,1-3-.141,2.2,2.2,0,0,1-1.037-2.45,1.368,1.368,0,0,1,.825-.848c.047-.012.082-.024.13-.035a.433.433,0,0,0,.2.118,14.969,14.969,0,0,1,2.309.365,2.349,2.349,0,0,1,1.154.872,2.086,2.086,0,0,1,.259.613,1.607,1.607,0,0,1,.024.53Z" transform="translate(-12.645 16.734)" fill="#fff"/>
                <path id="Path_912729" data-name="Path 912729" d="M163.555,179.993c-.024-.424-.377-.6-.707-.778q-.353-.194-.707-.353c-.247-.106-.483-.2-.742-.295-.165-.059-.33-.106-.483-.153a2.093,2.093,0,0,0-.542-.024.821.821,0,0,0-.448.118,2.66,2.66,0,0,0-2.227,1.555,3.25,3.25,0,0,0,2.109,4.111A5.365,5.365,0,0,0,163,184.2a.731.731,0,0,0,.53-.648c0-.6.012-1.2.024-1.791s.047-1.178.012-1.767Zm-2.9,3.051a3.054,3.054,0,0,1-.813-.306,2.286,2.286,0,0,1-.342-.247c-.024-.024-.153-.141-.094-.082a2.053,2.053,0,0,1-.153-.177,1.811,1.811,0,0,1-.389-.707c0-.024-.059-.2-.035-.118-.012-.071-.024-.153-.035-.224a2.273,2.273,0,0,1,0-.4.555.555,0,0,1,.047-.189.25.25,0,0,1,.035-.082c0-.012.047-.082.059-.118s.071-.106.094-.13a1.412,1.412,0,0,1,.13-.141c-.082.082,0,.012.035-.024s.106-.071.153-.106c.012,0,.024-.012.047-.024l.047-.024.177-.071c.024,0,.118-.035.13-.035a1.323,1.323,0,0,1,.377-.035.97.97,0,0,1,.295.071.574.574,0,0,0,.082.035.837.837,0,0,1,.165.118.576.576,0,0,0,.613.047c.082.035.165.059.236.094.247.106.471.236.707.365v2.533a3.9,3.9,0,0,1-1.567,0Z" transform="translate(-14.053 21.493)" fill="#fff"/>
                <path id="Path_912730" data-name="Path 912730" d="M202.134,127.057a2.413,2.413,0,0,0-1.449-.459c-.471-.059-.942-.094-1.4-.106a16.019,16.019,0,0,0-3.181.247.505.505,0,0,0,.094,1,20.484,20.484,0,0,1,3.181.024c.4.035.813.082,1.213.153l.624.106a1.445,1.445,0,0,0,.672-.071.519.519,0,0,0,.236-.884Z" transform="translate(-7.253 12.251)" fill="#fff"/>
                <path id="Path_912731" data-name="Path 912731" d="M199.439,156.414a4.818,4.818,0,0,0-.825-.012c-.636,0-1.261.035-1.9.094a19.1,19.1,0,0,0-1.979.295c-.247.047-.495.106-.742.165-.118.035-.247.059-.365.094a1.55,1.55,0,0,0-.919.613.327.327,0,0,0,.153.53h.118a1,1,0,0,0,.954.118c.283-.059.554-.118.836-.165.589-.106,1.178-.177,1.767-.236.624-.059,1.249-.094,1.873-.094s1.5.188,1.944-.318c.518-.589-.377-1-.931-1.084Z" transform="translate(-7.798 17.577)" fill="#fff"/>
                <path id="Path_912732" data-name="Path 912732" d="M194.9,181.552a12.479,12.479,0,0,0-5.82-.353c-.778.141-.789,1.343.071,1.272a16.453,16.453,0,0,1,2.851,0c.86.082,1.7.283,2.545.412a.7.7,0,0,0,.353-1.343Z" transform="translate(-8.534 21.96)" fill="#fff"/>
                <path id="Path_912733" data-name="Path 912733" d="M241.962,194.523c-1.355.978-2.7,1.956-4.029,2.969a15.771,15.771,0,0,1-3.628,2.238c-2.874,1.155-5.949,1.932-8.906,2.851-5.666,1.767-11.38,3.911-17.388,4.076a.444.444,0,0,0,0,.884c4.865.224,9.648-1.449,14.231-2.863,2.391-.73,4.771-1.473,7.163-2.2a36.286,36.286,0,0,0,6.526-2.274,22.293,22.293,0,0,0,3.157-2.2c1.19-.919,2.356-1.873,3.522-2.827.412-.342-.236-.942-.636-.66Z" transform="translate(-5.131 24.351)"/>
                <path id="Path_912734" data-name="Path 912734" d="M190.625,103.233c-1.331-11.3-4.382-22.536-3.64-33.987.082-1.378.236-2.745.436-4.111.071-.483-.742-.719-.813-.212-1.673,11.321.766,22.678,2.344,33.857a129.716,129.716,0,0,1,.436,34.446,90.945,90.945,0,0,1-3.782,16.493c-1.685,5.207-3.593,10.343-4.936,15.656-1.355,5.337-1.6,10.909-3.134,16.2-1.5,5.16-4.159,9.884-6.079,14.891a63.494,63.494,0,0,0-3.581,31.113c.177,1.284.389,2.556.66,3.817.141.672,1.261.554,1.131-.118a63.738,63.738,0,0,1,1.885-31.666c1.673-5.113,4.253-9.837,6.126-14.855,1.92-5.148,2.321-10.544,3.381-15.88a129.821,129.821,0,0,1,4.665-15.8A105.232,105.232,0,0,0,190,137.15a120.718,120.718,0,0,0,.648-33.916Z" transform="translate(-12.308 1.24)"/>
                <g id="Group_1122182" data-name="Group 1122182" transform="translate(156.477 0.442)">
                  <path id="Path_912735" data-name="Path 912735" d="M174.332,50.679a.356.356,0,0,0,.459,0,.36.36,0,0,0,.082-.507A26.821,26.821,0,0,1,169.9,28.107a.346.346,0,0,0-.259-.436.37.37,0,0,0-.448.259A27.546,27.546,0,0,0,174.285,50.6c.012.024.035.035.047.059Z" transform="translate(-168.561 -5.787)" fill="#603225"/>
                  <g id="Group_1122181" data-name="Group 1122181" transform="translate(0.105)">
                    <path id="Path_912736" data-name="Path 912736" d="M218.029,24.277c6.8,11.133.318,43.023-13.618,41.291-2.238-.283-4.936,3.381-7.2,3.275C186.6,68.371,183.9,53.092,189.355,39.45c6.138-15.35,19.3-30.523,28.674-15.173Z" transform="translate(-165.452 -7.528)" fill="#603225"/>
                    <path id="Path_912737" data-name="Path 912737" d="M205.451,56.134s-18.024,10.9-33.94-12.641a16.917,16.917,0,0,1-2.757-8.341c-.919-14.773,19.249-25.01,37.91-19.709,17.883,5.089,17.942,33.08-1.213,40.69Z" transform="translate(-168.637 -8.214)" fill="#603225"/>
                    <path id="Path_912738" data-name="Path 912738" d="M196.441,81.728a12.612,12.612,0,0,0,12.652-12.4l.024-29.393-25.293.224V57.318L183.8,69.146v.4A12.332,12.332,0,0,0,196.441,81.728Z" transform="translate(-165.953 -3.602)" fill="#ffb585"/>
                    <path id="Path_912739" data-name="Path 912739" d="M213.663,35.09a27.619,27.619,0,0,1,.377,6.585c-.024.412-.047.8-.082,1.166-.071.766-.165,1.425-.247,1.967-.047.259-.082.495-.118.7-.094.507-.165.789-.165.789s-.424,1.531-1.331,3.84c-.118.318-.259.648-.4,1h0c-.035.094-.082.188-.118.283-.094.212-.177.424-.271.636C209.068,57.2,205,64.53,198.749,68.535a17.459,17.459,0,0,1-10.473,2.886,12.882,12.882,0,0,1-2.285-.306c-6.491-1.484-10.355-7.846-12.452-15.291-.094-.33-.177-.648-.259-.978-.283-1.107-.53-2.238-.754-3.369-.047-.271-.106-.554-.153-.825h0c-.035-.2-.059-.389-.094-.589q-.159-.972-.283-1.944h0c-.212-1.6-.353-3.193-.448-4.748h0c-.13-2.2-.141-4.3-.071-6.232.024-.554.047-1.107.082-1.626a29.263,29.263,0,0,1,.966-6.22h0a6.365,6.365,0,0,1,.224-.624,7.313,7.313,0,0,1,.86-1.555,13.446,13.446,0,0,1,2.686-2.78h0a20.981,20.981,0,0,1,3.558-2.285,27.079,27.079,0,0,1,13.465-3.016,23.452,23.452,0,0,1,10,2.662,24.06,24.06,0,0,1,5.549,4.017,17.078,17.078,0,0,1,4.795,9.413Z" transform="translate(-168.155 -7.327)" fill="#ffb585"/>
                    <g id="Group_1122180" data-name="Group 1122180">
                      <g id="Group_1122178" data-name="Group 1122178">
                        <path id="Path_912740" data-name="Path 912740" d="M169.687,34.491c2.05,1.979,5.666-.789,9.059-4.123s5.289-5.949,3.228-7.928-6.468-.9-9.86,2.439-4.477,7.622-2.427,9.613Z" transform="translate(-168.65 -6.892)" fill="#603225"/>
                        <path id="Path_912741" data-name="Path 912741" d="M171.423,37.883c5.136-6.927,8.989-.577,14.855-6.326s8.718-12.228,6.385-14.49-8.989.577-14.855,6.326S169.09,35.621,171.423,37.883Z" transform="translate(-168.301 -7.811)" fill="#603225"/>
                        <g id="Group_1122177" data-name="Group 1122177" transform="translate(5.189)">
                          <path id="Path_912742" data-name="Path 912742" d="M208.1,49.585a16.469,16.469,0,0,1-4.877-14.243,3.877,3.877,0,0,1,1.06-2.238c2.733-2.686,7.61,1.567,10.037,7.457,2.733,6.632-.648,14.007-6.232,9.024Z" transform="translate(-167.714 -4.964)" fill="#603225"/>
                          <path id="Path_912743" data-name="Path 912743" d="M212.078,44.325s-18.46,7.457-35.483-9.448a12.071,12.071,0,0,1-3.334-6.267c-2.2-11.486,13.63-21.394,28.851-19.214,17.129,2.45,27.166,27.107,9.966,34.941Z" transform="translate(-173.055 -9.093)" fill="#603225"/>
                        </g>
                      </g>
                      <g id="Group_1122179" data-name="Group 1122179" transform="translate(39.488 35.194)">
                        <path id="Path_912744" data-name="Path 912744" d="M202.17,41.244c1.908-2.262,6.821-3.888,8.223.4,1.531,4.665-5.631,6.9-7.893,7.481l-.318-7.881Z" transform="translate(-202.17 -38.967)" fill="#ffb585"/>
                        <path id="Path_912745" data-name="Path 912745" d="M203.415,43.6a.363.363,0,0,0,.33-.212,3.3,3.3,0,0,1,4.182-1.755.37.37,0,0,0,.471-.2.341.341,0,0,0-.212-.448,4.092,4.092,0,0,0-5.1,2.121.341.341,0,0,0,.177.459.363.363,0,0,0,.153.035Z" transform="translate(-202.013 -38.649)" fill="#010101"/>
                      </g>
                    </g>
                  </g>
                </g>
                <path id="Path_912746" data-name="Path 912746" d="M216.108,44.323a.429.429,0,0,1-.236-.035.345.345,0,0,1-.153-.471,14.1,14.1,0,0,0-.813-12.947.355.355,0,0,1,.153-.483.365.365,0,0,1,.495.141c4.111,7.422.942,13.371.813,13.618a.38.38,0,0,1-.259.188Z" transform="translate(-3.839 -4.867)" fill="#603225"/>
                <path id="Path_912747" data-name="Path 912747" d="M191.431,65.557a16.427,16.427,0,0,1-2.9.224,14.643,14.643,0,0,1-9.907-3.758.352.352,0,0,1,0-.495.381.381,0,0,1,.518,0,13.851,13.851,0,0,0,9.389,3.546c10.932.106,16.846-11.168,16.905-11.274a.37.37,0,0,1,.483-.165.353.353,0,0,1,.165.471c-.059.106-5.148,9.813-14.667,11.451Z" transform="translate(-10.31 -0.726)" fill="#010101"/>
                <path id="Path_912748" data-name="Path 912748" d="M183.729,55.034a11.2,11.2,0,0,1-2.427.141c-1.614-.082-3.4-.542-3.581-1.6a.3.3,0,0,1,.247-.342.288.288,0,0,1,.342.236c.094.565,1.378,1.037,3.039,1.119,2.38.118,5.007-.53,5.431-2.014a.3.3,0,0,1,.365-.2.293.293,0,0,1,.2.365c-.365,1.272-1.873,2.014-3.6,2.309Z" transform="translate(-10.454 -0.947)" fill="#010101"/>
                <path id="Path_912749" data-name="Path 912749" d="M183.154,57.009a4.72,4.72,0,0,1-.6.059c-1.5.047-3.181-.648-3.393-1.873a.3.3,0,0,1,.247-.342.3.3,0,0,1,.342.236c.13.789,1.414,1.425,2.792,1.39.483-.012,2.085-.177,2.262-1.649a.3.3,0,0,1,.33-.259.293.293,0,0,1,.259.33,2.448,2.448,0,0,1-2.227,2.109Z" transform="translate(-10.197 -0.553)" fill="#010101"/>
                <g id="Group_1122183" data-name="Group 1122183" transform="translate(160.811 43.768)">
                  <path id="Path_912750" data-name="Path 912750" d="M178.048,50.123c-.683,1.991-2.6,1.555-4.9-.059-.283-1.107-.53-2.238-.754-3.369-.047-.271-.106-.554-.153-.825a2.708,2.708,0,0,1,.306.035,1.938,1.938,0,0,1,.365.047c.2.024.412.047.613.082a2.75,2.75,0,0,0,.306.047c1.826.295,3.534.707,3.534.707s1.626.53.671,3.346Z" transform="translate(-172.24 -45.87)" fill="#f09b77"/>
                </g>
                <g id="Group_1122186" data-name="Group 1122186" transform="translate(161.23 40.558)">
                  <g id="Group_1122184" data-name="Group 1122184" transform="translate(11.324 3.649)">
                    <path id="Path_912751" data-name="Path 912751" d="M183.754,46.346s11.192-.848,6.892,2.321-8.223,4.806-8.423,1.378,1.531-3.7,1.531-3.7Z" transform="translate(-182.208 -46.242)" fill="#f09b77"/>
                  </g>
                  <g id="Group_1122185" data-name="Group 1122185">
                    <path id="Path_912752" data-name="Path 912752" d="M175.016,44.058a1.226,1.226,0,0,1-2.391.518A1.226,1.226,0,0,1,175.016,44.058Z" transform="translate(-172.595 -43.145)" fill="#262628"/>
                    <path id="Path_912753" data-name="Path 912753" d="M187.486,44.578a1.226,1.226,0,0,1-2.391.518A1.226,1.226,0,0,1,187.486,44.578Z" transform="translate(-170.375 -43.053)" fill="#262628"/>
                    <path id="Path_912754" data-name="Path 912754" d="M176.574,52.155s1.861.86,2.132-.919.118-5.325-1.249-3.746l-.306.907s-2.014-.047-2.462,1.378,1.9,2.391,1.9,2.391Z" transform="translate(-172.233 -42.442)" fill="#ffb585"/>
                    <path id="Path_912755" data-name="Path 912755" d="M177.684,52.143s-2.922-.306-2.792-1.9,2.25-1.508,2.344-1.508a.25.25,0,0,0,.224-.141l.565-1.39c.106-.412-.212-.507-.424-.188l-.518,1.261c-.954,0-2.533.4-2.662,1.932-.13,1.685,2.073,2.2,2.91,2.344a2.87,2.87,0,0,1,.306.047.238.238,0,0,0,.259-.212.22.22,0,0,0-.212-.247Z" transform="translate(-172.271 -42.49)" fill="#262628"/>
                  </g>
                </g>
                <path id="Path_912756" data-name="Path 912756" d="M186.121,40.138c-.059.613-1.154,1.013-2.45.907s-2.309-.7-2.25-1.3,1.154-1.013,2.45-.907S186.18,39.538,186.121,40.138Z" transform="translate(-9.795 -3.357)" fill="#603225"/>
                <path id="Path_912757" data-name="Path 912757" d="M176.82,39.033c.165.589-.73,1.343-1.979,1.685s-2.4.141-2.568-.448.73-1.343,1.979-1.685S176.655,38.444,176.82,39.033Z" transform="translate(-11.427 -3.429)" fill="#603225"/>
                <g id="Group_1122188" data-name="Group 1122188" transform="translate(188.369 55.984)">
                  <path id="Path_912758" data-name="Path 912758" d="M207.871,56.24l-8.388,34.494-3.793,21.594L211.606,97.26l-6.067-8.235,12.593.931L219.216,65.1Z" transform="translate(-195.622 -56.24)" fill="#616491"/>
                  <g id="Group_1122187" data-name="Group 1122187" transform="translate(0 8.582)">
                    <path id="Path_912759" data-name="Path 912759" d="M211.687,92.741a27.917,27.917,0,0,0-3.723-6.208c-.683-.942-1.414-1.861-2.156-2.768-.436-.53-.884-1.048-1.308-1.579a5.827,5.827,0,0,0-1.367-1.52.306.306,0,0,0-.436.33c.071.53.565.978.872,1.4.377.495.73,1.013,1.1,1.52.742,1.06,1.508,2.1,2.25,3.145.683.978,1.355,1.979,1.979,3,.53.86.966,1.779,1.449,2.662a3.708,3.708,0,0,0-1.52.978c-.683.577-1.343,1.19-1.979,1.826-1.249,1.261-2.4,2.615-3.581,3.946-1.107,1.249-2.25,2.474-3.464,3.628-.683.648-1.378,1.272-2.085,1.9a9.923,9.923,0,0,0-2.026,1.944c-.224.365.271.742.613.613a7.618,7.618,0,0,0,2.038-1.555c.7-.6,1.378-1.2,2.038-1.826,1.272-1.19,2.486-2.439,3.652-3.723,1.107-1.225,2.2-2.462,3.369-3.64.589-.6,1.2-1.19,1.85-1.732A6.965,6.965,0,0,0,211,93.53v-.035a.569.569,0,0,0,.648-.766Z" transform="translate(-195.632 -60.48)" fill="#fff"/>
                    <path id="Path_912760" data-name="Path 912760" d="M217.608,63.955c-.047-.448-.848-.636-.919-.118-.295,2.156-.247,4.359-.33,6.526-.071,2.05-.188,4.088-.353,6.126-.165,2.062-.4,4.123-.719,6.173-.165,1.013-.353,2.026-.448,3.051a11,11,0,0,0-.071,1.791c-1.072.012-2.144.035-3.216.047-1.861.024-3.782-.13-5.643.059a.48.48,0,0,0-.059.954,17.27,17.27,0,0,0,2.71.212c.907.035,1.8.059,2.71.071a47.75,47.75,0,0,0,5.03-.035c.778-.059,1-1.319.118-1.331h-.33c-.012-.271-.035-.542-.024-.813a13.2,13.2,0,0,1,.118-1.52c.118-.931.283-1.85.424-2.78.306-2.038.53-4.1.683-6.149s.247-4.088.306-6.126a48.868,48.868,0,0,0-.024-6.161Z" transform="translate(-193.885 -63.525)" fill="#fff"/>
                  </g>
                </g>
                <g id="Group_1122193" data-name="Group 1122193">
                  <g id="Group_1122191" data-name="Group 1122191" transform="translate(82.953 92.916)">
                    <path id="Path_912761" data-name="Path 912761" d="M219.22,226.035l-3.193,2.474a8.235,8.235,0,0,1-11.557-1.461l-98.321-126.9L122.36,87.59l98.321,126.9a8.235,8.235,0,0,1-1.461,11.557Z" transform="translate(-106.15 -87.59)" fill="#605d5e"/>
                    <g id="Group_1122190" data-name="Group 1122190" clip-path="url(#clip-path)">
                      <g id="Group_1122189" data-name="Group 1122189" transform="translate(73.829 96.701)">
                        <rect id="Rectangle_410748" data-name="Rectangle 410748" width="34.965" height="3.734" transform="matrix(0.79, -0.612, 0.612, 0.79, 0, 21.416)" fill="#fff"/>
                        <rect id="Rectangle_410749" data-name="Rectangle 410749" width="34.965" height="3.734" transform="matrix(0.79, -0.612, 0.612, 0.79, 5.151, 28.053)" fill="#fff"/>
                      </g>
                    </g>
                  </g>
                  <g id="Group_1122192" data-name="Group 1122192">
                    <circle id="Ellipse_11561" data-name="Ellipse 11561" cx="56.417" cy="56.417" r="56.417" transform="translate(0 111.937) rotate(-82.77)" fill="#fff"/>
                    <path id="Path_912763" data-name="Path 912763" d="M98.008,128.269a20.648,20.648,0,1,1,.012.012ZM97.831,15.458a55.456,55.456,0,1,0,43.953,21.488h0a55.572,55.572,0,0,0-43.953-21.5Z" transform="translate(-34.87 -7.857)" fill="#6f6875"/>
                  </g>
                  <circle id="Ellipse_11562" data-name="Ellipse 11562" cx="48.489" cy="48.489" r="48.489" transform="translate(8.248 22.889) rotate(-8.62)" fill="#b8c3f6"/>
                </g>
                <g id="Group_1122196" data-name="Group 1122196" transform="translate(137.736 67.175)">
                  <g id="Group_1122194" data-name="Group 1122194" transform="translate(0 59.736)">
                    <path id="Path_912764" data-name="Path 912764" d="M176.788,150.05c8.081,3.617,8.117,3.711,15.456,10.909.13.13-4.217,2.274-4.206,2.45l.495,7.434a10.264,10.264,0,0,1-9.566,10.932l-7.222,1.178c-.165,0-4.83-.436-4.995-.471-10.614-2.132-3.97-6.844-1.8-6.02,0,0-8.777-.966-8.788-.978-2.356-1.885-1.85-3.593-.966-4.712a1.21,1.21,0,0,0-.377-1.791c-.766-.448-1.414-1.355-1.225-3.157a3.261,3.261,0,0,1,1.991-2.427q-.23.071-.6.177c-.082.024-.165-.059-.247-.094a3.285,3.285,0,0,1,1.484-6.326l16.033,1.237a1.379,1.379,0,0,0,1.367-1.944c-.53-1.154-1.85-2.686-4.948-4.288-6.444-3.322-2.144-6.727,8.117-2.12Z" transform="translate(-152.652 -110.865)" fill="#e8ad8e"/>
                    <path id="Path_912765" data-name="Path 912765" d="M163.306,179.029h0c2.45,6.727,11.2,9.731,19.568,6.691L238.2,165.634c6.373-2.309,12.9-8.682,17.659-16.6,2.662-4.441,1.908-27.838,1.908-27.838-1.425-3.923-19.167-7.151-28.262-2.333-.295,6.762.118,10.025-.141,22.383l-54.721,21.476c-8.364,3.039-13.76,9.566-11.309,16.3Z" transform="translate(-150.857 -116.447)" fill="#e8ad8e"/>
                    <path id="Path_912766" data-name="Path 912766" d="M166.161,162.436a.458.458,0,0,1-.212.059l-11.3-.966a.3.3,0,1,1,.047-.589l11.3.966a.293.293,0,0,1,.271.318.308.308,0,0,1-.106.212Z" transform="translate(-152.345 -108.525)"/>
                    <path id="Path_912767" data-name="Path 912767" d="M166.841,167.606a.458.458,0,0,1-.212.059l-11.3-.966a.3.3,0,1,1,.047-.589l11.3.966a.293.293,0,0,1,.271.318.308.308,0,0,1-.106.212Z" transform="translate(-152.224 -107.604)"/>
                    <path id="Path_912768" data-name="Path 912768" d="M169.664,172.96a.458.458,0,0,1-.212.059l-7.681-.66a.3.3,0,0,1,.047-.589l7.681.66a.293.293,0,0,1,.271.318.308.308,0,0,1-.106.212Z" transform="translate(-151.077 -106.597)"/>
                  </g>
                  <g id="Group_1122195" data-name="Group 1122195" transform="translate(72.613)">
                    <path id="Path_912769" data-name="Path 912769" d="M242.787,81.432c-10.873-18.342-20.2-15.539-20.2-15.539,3.734,18.955-9.047,30.559-8.258,42.4l.613,33.881s15.091,7.339,35.789,1.979l-3.6-33.5c-3.251-10.308-.459-22.065-4.347-29.216Z" transform="translate(-214.29 -65.74)" fill="#616491"/>
                    <path id="Path_912770" data-name="Path 912770" d="M235.164,134.882a51.844,51.844,0,0,1-17.471-2.874,2.544,2.544,0,0,0-.283-.094.456.456,0,0,1-.377-.318.471.471,0,0,1,.306-.6c.177-.059.247-.024.683.13,5.431,1.967,16.834,4.7,32.126.954a.479.479,0,0,1,.224.931,63.689,63.689,0,0,1-15.209,1.885Z" transform="translate(-213.806 -54.125)"/>
                    <path id="Path_912771" data-name="Path 912771" d="M216.331,132.014h0a.483.483,0,0,1-.471-.483l.306-20.51a.475.475,0,0,1,.483-.471h0a.483.483,0,0,1,.471.483l-.306,20.51a.475.475,0,0,1-.483.471Z" transform="translate(-214.011 -57.761)"/>
                  </g>
                </g>
                <g id="Group_1122201" data-name="Group 1122201" transform="translate(34.641 105.058)">
                  <path id="Path_912772" data-name="Path 912772" d="M74.6,112.45l5.879-7.975a3.088,3.088,0,0,0-.636-4.359h0a3.2,3.2,0,0,0-4.406.754l-5.879,7.975a3.088,3.088,0,0,0,.636,4.359h0A3.2,3.2,0,0,0,74.6,112.45Z" transform="translate(-64.465 -97.603)" fill="#e8ad8e"/>
                  <path id="Path_912773" data-name="Path 912773" d="M70.806,109.08l4.618-6.255a3.088,3.088,0,0,0-.636-4.359h0a3.2,3.2,0,0,0-4.406.754l-4.618,6.255a3.088,3.088,0,0,0,.636,4.359h0A3.2,3.2,0,0,0,70.806,109.08Z" transform="translate(-65.14 -97.896)" fill="#e8ad8e"/>
                  <path id="Path_912774" data-name="Path 912774" d="M77.916,115.145l5.749-7.811a3.088,3.088,0,0,0-.636-4.359h0a3.2,3.2,0,0,0-4.406.754l-5.749,7.811a3.088,3.088,0,0,0,.636,4.359h0A3.2,3.2,0,0,0,77.916,115.145Z" transform="translate(-63.874 -97.093)" fill="#e8ad8e"/>
                  <path id="Path_912775" data-name="Path 912775" d="M81.966,117.08l4.618-6.255a3.088,3.088,0,0,0-.636-4.359h0a3.2,3.2,0,0,0-4.406.754l-4.618,6.255a3.088,3.088,0,0,0,.636,4.359h0A3.2,3.2,0,0,0,81.966,117.08Z" transform="translate(-63.153 -96.472)" fill="#e8ad8e"/>
                  <g id="Group_1122200" data-name="Group 1122200" transform="translate(6.594 3.234)">
                    <g id="Group_1122197" data-name="Group 1122197" transform="translate(6.685 6.255)">
                      <path id="Path_912776" data-name="Path 912776" d="M82.656,106.2l-6,7.775Z" transform="translate(-76.367 -105.907)"/>
                      <path id="Path_912777" data-name="Path 912777" d="M82.948,106.409l-.012.012-6,7.775a.295.295,0,1,1-.471-.353l6-7.775a.3.3,0,0,1,.483.342Z" transform="translate(-76.411 -105.951)"/>
                    </g>
                    <g id="Group_1122198" data-name="Group 1122198" transform="translate(3.217 2.877)">
                      <path id="Path_912778" data-name="Path 912778" d="M79.836,103.33l-6.126,7.775Z" transform="translate(-73.424 -103.039)"/>
                      <path id="Path_912779" data-name="Path 912779" d="M80.126,103.539a.037.037,0,0,1-.012.024l-6.126,7.775a.288.288,0,0,1-.412.047.3.3,0,0,1-.047-.412l6.126-7.775a.288.288,0,0,1,.412-.047.294.294,0,0,1,.059.4Z" transform="translate(-73.468 -103.083)"/>
                    </g>
                    <g id="Group_1122199" data-name="Group 1122199">
                      <path id="Path_912780" data-name="Path 912780" d="M74.974,100.89l-3.994,5.325Z" transform="translate(-70.694 -100.597)"/>
                      <path id="Path_912781" data-name="Path 912781" d="M75.264,101.1v.012l-3.994,5.325a.3.3,0,0,1-.412.059.287.287,0,0,1-.059-.412l3.994-5.325a.3.3,0,0,1,.483.342Z" transform="translate(-70.737 -100.641)"/>
                    </g>
                  </g>
                </g>
              </g>
            </g>
            <path id="Path_912782" data-name="Path 912782" d="M335.176,176.722l2.662-.212,2.6-8.176a26.347,26.347,0,0,0,3.581-1.272l7.2,4.677,2.2-1.52-1.838-8.388a24.975,24.975,0,0,0,2.45-2.886l8.576.448,1.143-2.415-5.772-6.338a26.1,26.1,0,0,0,.683-3.734l7.646-3.9-.212-2.662-8.176-2.6a26.35,26.35,0,0,0-1.272-3.581l4.677-7.2-1.52-2.2-8.388,1.838a24.965,24.965,0,0,0-2.886-2.45l.448-8.576-2.415-1.143L340.23,120.2a26.087,26.087,0,0,0-3.734-.683l-3.9-7.646-2.662.212-2.6,8.176a26.343,26.343,0,0,0-3.581,1.272l-7.2-4.677-2.2,1.52,1.838,8.388a24.97,24.97,0,0,0-2.45,2.886l-8.576-.448-1.143,2.415,5.772,6.338a26.078,26.078,0,0,0-.683,3.734l-7.646,3.9.212,2.662,8.176,2.6a26.343,26.343,0,0,0,1.272,3.581l-4.677,7.2,1.52,2.2L316.351,162a24.964,24.964,0,0,0,2.886,2.45l-.448,8.576,2.415,1.143,6.338-5.772a26.082,26.082,0,0,0,3.734.683l3.9,7.646Zm-19.12-30.971a17.871,17.871,0,1,1,19.261,16.363,17.872,17.872,0,0,1-19.261-16.363Z" transform="translate(34.539 70.24)" fill="#e2e8f8"/>
            <g id="Group_1122209" data-name="Group 1122209" transform="translate(11.379 6.956)">
              <g id="Group_1122205" data-name="Group 1122205">
                <path id="Path_912783" data-name="Path 912783" d="M30.813,23.793A15.411,15.411,0,0,0,0,23.217a15.254,15.254,0,0,0,3.148,9.82A21.746,21.746,0,0,1,7.485,46.371v.476l15.567.092v-.577A22.637,22.637,0,0,1,27.72,32.954a15.315,15.315,0,0,0,3.093-9.161Z" transform="translate(0.009 -8.291)" fill="#fed18d"/>
                <path id="Path_912784" data-name="Path 912784" d="M14.276,9.79C12.089,9.772.8,11.849,1.656,24.113A17.124,17.124,0,0,1,14.276,9.79Z" transform="translate(-0.128 -8.418)" fill="#fff"/>
                <g id="Group_1122204" data-name="Group 1122204" transform="translate(16.152 13.654)" opacity="0.57">
                  <path id="Path_912785" data-name="Path 912785" d="M17.64,38.347c2.379.018,14.625-2.178,13.691-15.137C29.428,35.876,17.64,38.347,17.64,38.347Z" transform="translate(-17.64 -23.21)" fill="#fff"/>
                </g>
                <path id="Path_912786" data-name="Path 912786" d="M17.629,47.881a.3.3,0,0,1-.3-.293C17.3,46.92,16.915,35.05,18,27.647a8.624,8.624,0,0,1-1.794.128,9.921,9.921,0,0,1-1.785-.146c1,7.413.467,19.274.439,19.942a.3.3,0,0,1-.32.293.307.307,0,0,1-.293-.32c0-.165.567-12.694-.448-20.061a6.147,6.147,0,0,1-3.743-2.645,2.36,2.36,0,0,1-.192-2.343,1.975,1.975,0,0,1,1.894-.815,1.406,1.406,0,0,1,1,.513c.723.787,1.217,2.544,1.565,4.786a8.528,8.528,0,0,0,1.876.183,8.823,8.823,0,0,0,1.894-.156c.366-2.242.888-3.99,1.62-4.768a1.429,1.429,0,0,1,1.007-.5,1.982,1.982,0,0,1,1.885.842,2.327,2.327,0,0,1-.22,2.343,6.109,6.109,0,0,1-3.771,2.6c-1.1,7.358-.7,19.887-.686,20.052a.32.32,0,0,1-.293.32h-.009ZM11.635,22.293a1.355,1.355,0,0,0-1.245.522,1.755,1.755,0,0,0,.2,1.721A5.383,5.383,0,0,0,13.7,26.814a8.97,8.97,0,0,0-1.391-4.21.832.832,0,0,0-.577-.311h-.1Zm9.216.055h-.1a.815.815,0,0,0-.577.311,9.123,9.123,0,0,0-1.437,4.192,5.387,5.387,0,0,0,3.139-2.242A1.751,1.751,0,0,0,22.1,22.9a1.345,1.345,0,0,0-1.235-.54Z" transform="translate(-0.809 -9.426)" fill="#fff"/>
              </g>
              <g id="Group_1122208" data-name="Group 1122208" transform="translate(5.873 36.404)">
                <rect id="Rectangle_410750" data-name="Rectangle 410750" width="5.098" height="15.064" rx="0.56" transform="matrix(0.006, -1, 1, 0.006, 2.082, 14.593)" fill="#c0c9f2"/>
                <g id="Group_1122207" data-name="Group 1122207">
                  <rect id="Rectangle_410751" data-name="Rectangle 410751" width="12.849" height="18.102" rx="0.44" transform="matrix(0.006, -1, 1, 0.006, 0.291, 12.849)" fill="#b8c3f6"/>
                  <g id="Group_1122206" data-name="Group 1122206" transform="translate(0 1.482)">
                    <path id="Path_912787" data-name="Path 912787" d="M6.752,52.088a.307.307,0,0,1-.3-.275.314.314,0,0,1,.275-.339L24.845,49.69a.308.308,0,1,1,.064.613L6.788,52.088H6.752Z" transform="translate(-6.411 -49.688)" fill="#fff"/>
                    <path id="Path_912788" data-name="Path 912788" d="M6.732,55.838a.307.307,0,0,1-.3-.275.314.314,0,0,1,.275-.339L24.825,53.44a.308.308,0,1,1,.064.613L6.768,55.838H6.732Z" transform="translate(-6.41 -50.006)" fill="#fff"/>
                    <path id="Path_912789" data-name="Path 912789" d="M6.712,59.588a.307.307,0,0,1-.3-.275.314.314,0,0,1,.275-.339L24.8,57.19a.308.308,0,1,1,.064.613L6.748,59.588H6.712Z" transform="translate(-6.408 -50.324)" fill="#fff"/>
                  </g>
                </g>
              </g>
            </g>
            <path id="Path_912790" data-name="Path 912790" d="M340.191,76.361c1.967-2.98.872-6.4-2.639-8.718a10.656,10.656,0,0,0-10.815-.66l-3.711-8.635c6.208-3.063,13.383-2.886,20.7,1.932,8.117,5.348,11.074,13.135,6.338,20.31-6.409,9.743-16.234,4.842-20.475,11.3L321.412,86.5c5.608-8.517,15.3-4.854,18.778-10.143ZM313.92,95.528a6.231,6.231,0,1,1,10.4,6.845,6.239,6.239,0,1,1-10.4-6.845Z" transform="translate(55.695 10.026)" fill="#b9507d"/>
          </g>
        </g>
      </g>
    </g>
  </g>
</svg>
