<svg xmlns="http://www.w3.org/2000/svg" width="151" height="151" viewBox="0 0 151 151">
  <g id="Group_1108990" data-name="Group 1108990" transform="translate(-181.568 -7375.496)">
    <g id="Group_1099775" data-name="Group 1099775" transform="translate(181.568 7375.496)">
      <g id="Group_1099770" data-name="Group 1099770" transform="translate(0 0)">
        <g id="Rectangle_401345" data-name="Rectangle 401345" transform="translate(0 0)" fill="#fff" stroke="#daf5fe" stroke-width="5">
          <rect width="151" height="151" rx="10" stroke="none"/>
          <rect x="2.5" y="2.5" width="146" height="146" rx="7.5" fill="none"/>
        </g>
      </g>
    </g>
    <g id="Group_1099776" data-name="Group 1099776" transform="translate(207.569 7399.496)">
      <g id="Group_1099618" data-name="Group 1099618" transform="translate(0 0)">
        <rect id="Rectangle_401104" data-name="Rectangle 401104" width="100.171" height="101.377" transform="translate(0)" fill="none"/>
      </g>
      <g id="Group_1122213" data-name="Group 1122213" transform="translate(-0.054 0.593)">
        <g id="Group_1122212" data-name="Group 1122212" transform="translate(0.054 0)">
          <g id="Group_1122211" data-name="Group 1122211">
            <path id="Path_912791" data-name="Path 912791" d="M93.017,339.4l-25.532,8.958a3.426,3.426,0,0,1-1.163.192h-.4a7.1,7.1,0,0,0-.651-5.4l-.13-.236a8.546,8.546,0,0,0-7.369-4.328H50.562a10.623,10.623,0,0,1-6.787-2.513,13.979,13.979,0,0,0-8.928-3.265H34c-.42,0-8.979.078-14.5,4.788a3.336,3.336,0,0,0-2.748-1.449H3.393a3.343,3.343,0,0,0-3.339,3.339V362.85a3.343,3.343,0,0,0,3.339,3.339H16.749a3.319,3.319,0,0,0,2.566-1.229,16.754,16.754,0,0,0,10.3,2.9H65.877a11.134,11.134,0,0,0,5.933-1.737l25.848-16.566a5.681,5.681,0,0,0,2.459-3.7,5.863,5.863,0,0,0-.964-4.484A5.407,5.407,0,0,0,93.017,339.4ZM16.749,362.85H3.393V339.477H16.749V362.85Zm80.089-17.619a2.3,2.3,0,0,1-.988,1.518L70.02,363.3a7.785,7.785,0,0,1-4.143,1.217H29.616c-6.383,0-8.868-2.51-9.528-3.363v-19.37c4.078-5.56,13.814-5.649,13.912-5.649h.846a10.633,10.633,0,0,1,6.787,2.489,13.964,13.964,0,0,0,8.928,3.289h7.213a5.115,5.115,0,0,1,4.454,2.618l.13.236a3.724,3.724,0,0,1-.084,3.776H54.057a13.653,13.653,0,0,0-7.837,2.5l-1,.7a1.669,1.669,0,1,0,1.917,2.732l1-.7a10.326,10.326,0,0,1,5.923-1.9H66.323a6.757,6.757,0,0,0,2.289-.388l25.494-8.945a2.04,2.04,0,0,1,2.332.768A2.5,2.5,0,0,1,96.838,345.231Z" transform="translate(-0.054 -267.688)" fill="#182e68"/>
            <path id="Path_912792" data-name="Path 912792" d="M35.818,447.156A1.76,1.76,0,0,0,37,446.672a1.929,1.929,0,0,0,.351-.551,1.672,1.672,0,0,0,.134-.634,1.67,1.67,0,0,0-2.855-1.185,1.67,1.67,0,0,0,1.185,2.855Z" transform="translate(-27.47 -357.003)" fill="#182e68"/>
            <path id="Path_912793" data-name="Path 912793" d="M337.863,61.217a5.009,5.009,0,1,0-5.009-5.009A5.009,5.009,0,0,0,337.863,61.217Zm0-6.678a1.669,1.669,0,1,1-1.669,1.669A1.669,1.669,0,0,1,337.863,54.539Z" transform="translate(-267.743 -41.183)" fill="#182e68"/>
            <path id="Path_912794" data-name="Path 912794" d="M317.457,146.178h13.356a1.669,1.669,0,0,0,1.67-1.67v-6.678a1.669,1.669,0,0,0-1.67-1.67h-1.669V121.136a1.669,1.669,0,0,0-1.67-1.67H317.457a1.669,1.669,0,0,0-1.67,1.67v6.678a1.669,1.669,0,0,0,1.67,1.67h1.669v6.678h-1.669a1.669,1.669,0,0,0-1.67,1.67v6.678a1.669,1.669,0,0,0,1.67,1.669Zm1.669-6.678H320.8a1.669,1.669,0,0,0,1.67-1.67V127.814a1.669,1.669,0,0,0-1.67-1.67h-1.669V122.8H325.8V137.83a1.669,1.669,0,0,0,1.67,1.67h1.669v3.339H319.126Z" transform="translate(-254.015 -96.093)" fill="#182e68"/>
            <path id="Path_912795" data-name="Path 912795" d="M216.533,53.827v9.614a1.669,1.669,0,0,0,2.706,1.308l7.343-5.816a30.093,30.093,0,1,0-10.05-5.106Zm-5.4-35.916a26.684,26.684,0,1,1,15.608,37.58,1.679,1.679,0,0,0-1.55.281l-5.323,4.217v-7a1.668,1.668,0,0,0-.69-1.352A26.7,26.7,0,0,1,211.137,17.911Z" transform="translate(-164.778 0)" fill="#182e68"/>
          </g>
        </g>
      </g>
    </g>
  </g>
</svg>
