<svg xmlns="http://www.w3.org/2000/svg" xmlns:xlink="http://www.w3.org/1999/xlink" width="109" height="109" viewBox="0 0 109 109">
  <defs>
    <linearGradient id="linear-gradient" x1="0.5" x2="0.5" y2="1" gradientUnits="objectBoundingBox">
      <stop offset="0" stop-color="#ddf1ff"/>
      <stop offset="1" stop-color="#fff"/>
    </linearGradient>
  </defs>
  <g id="Group_1108958" data-name="Group 1108958" transform="translate(-950.878 -9141.342)">
    <g id="Group_1099855" data-name="Group 1099855" transform="translate(955.878 9146.342)">
      <g id="Group_1099808" data-name="Group 1099808" transform="translate(0 0)">
        <g id="Group_1099775" data-name="Group 1099775" transform="translate(0 0)">
          <g id="Group_1099770" data-name="Group 1099770">
            <g id="Rectangle_401345" data-name="Rectangle 401345" stroke="#614c8d" stroke-width="5" fill="url(#linear-gradient)">
              <rect width="99" height="99" rx="10" stroke="none"/>
              <rect x="-2.5" y="-2.5" width="104" height="104" rx="12.5" fill="none"/>
            </g>
          </g>
        </g>
        <g id="Group_1099776" data-name="Group 1099776" transform="translate(11.22 11.103)">
          <g id="Group_1099618" data-name="Group 1099618" transform="translate(0 0)">
            <rect id="Rectangle_401104" data-name="Rectangle 401104" width="75.681" height="76.593" transform="translate(0)" fill="none"/>
          </g>
          <g id="Outline" transform="translate(-0.119 0.333)">
            <g id="Outline-2" data-name="Outline" transform="translate(0.119 0.127)">
              <path id="Path_912814" data-name="Path 912814" d="M2.791,40.821h.94A34.35,34.35,0,0,0,33.312,71.9l2.906,3.069a2.666,2.666,0,0,0,4.6-1.83V72.1A34.339,34.339,0,0,0,72,42.515l2.972-2.809a2.666,2.666,0,0,0-1.836-4.6h-.922A34.253,34.253,0,0,0,42.388,3.8L39.7.962a2.666,2.666,0,0,0-4.6,1.83v.829A34.283,34.283,0,0,0,3.9,33.435L.953,36.219a2.666,2.666,0,0,0,1.836,4.6ZM39.88,70.38a.889.889,0,0,0-.836.889v1.866a.889.889,0,0,1-1.535.61l-7.5-7.918a.9.9,0,0,1,0-1.227l7.5-7.918a.889.889,0,0,1,1.534.61v2.1a.893.893,0,0,0,.969.885A22.612,22.612,0,0,0,59.691,43.715L63.377,47.2a2.661,2.661,0,0,0,3.662,0l2.8-2.651A32.562,32.562,0,0,1,39.88,70.381ZM20.468,36.219l-2.784-2.631A20.777,20.777,0,0,1,35.1,17.328v1.309a2.666,2.666,0,0,0,4.6,1.831l2.7-2.851A20.809,20.809,0,0,1,58.508,35.1H57.289a2.666,2.666,0,0,0-1.836,4.6L58.2,42.3A20.818,20.818,0,0,1,40.821,58.39v-1.1a2.666,2.666,0,0,0-4.6-1.831l-2.535,2.677A20.8,20.8,0,0,1,17.44,40.821h1.191a2.666,2.666,0,0,0,1.836-4.6Zm50.02-.178a.889.889,0,0,0,.889.839H73.13a.889.889,0,0,1,.616,1.534l-7.929,7.5a.9.9,0,0,1-1.218,0l-7.925-7.493a.889.889,0,0,1,.614-1.535H59.5a.893.893,0,0,0,.885-.964A22.6,22.6,0,0,0,43.814,16.124L47.2,12.546a2.682,2.682,0,0,0,0-3.666l-2.8-2.952A32.479,32.479,0,0,1,70.488,36.043ZM36.039,5.338a.889.889,0,0,0,.836-.889V2.79a.889.889,0,0,1,1.535-.606l7.5,7.915a.9.9,0,0,1,0,1.227l-7.5,7.921a.889.889,0,0,1-1.534-.611v-2.3a.889.889,0,0,0-.969-.885A22.562,22.562,0,0,0,16.182,32.169l-3.634-3.44a2.647,2.647,0,0,0-3.665,0l-2.851,2.7A32.508,32.508,0,0,1,36.039,5.338ZM2.175,37.51l7.931-7.5a.875.875,0,0,1,1.215,0l7.925,7.492a.889.889,0,0,1-.614,1.535H16.439a.893.893,0,0,0-.884.973A22.6,22.6,0,0,0,32.263,59.635L28.719,63.38a2.682,2.682,0,0,0,0,3.668l2.555,2.7A32.576,32.576,0,0,1,5.443,39.878a.889.889,0,0,0-.889-.834H2.791a.889.889,0,0,1-.616-1.534Z" transform="translate(-0.119 -0.127)" fill="#182e68"/>
            </g>
          </g>
        </g>
      </g>
    </g>
  </g>
</svg>
