<svg xmlns="http://www.w3.org/2000/svg" width="151" height="151" viewBox="0 0 151 151">
  <g id="Group_1108990" data-name="Group 1108990" transform="translate(-181.568 -7375.496)">
    <g id="Group_1099775" data-name="Group 1099775" transform="translate(181.568 7375.496)">
      <g id="Group_1099770" data-name="Group 1099770" transform="translate(0 0)">
        <g id="Rectangle_401345" data-name="Rectangle 401345" transform="translate(0 0)" fill="#fff" stroke="#daf5fe" stroke-width="5">
          <rect width="151" height="151" rx="10" stroke="none"/>
          <rect x="2.5" y="2.5" width="146" height="146" rx="7.5" fill="none"/>
        </g>
      </g>
    </g>
    <g id="Group_1099776" data-name="Group 1099776" transform="translate(207.569 7399.496)">
      <g id="Group_1099618" data-name="Group 1099618" transform="translate(0 0)">
        <rect id="Rectangle_401104" data-name="Rectangle 401104" width="100.171" height="101.377" transform="translate(0)" fill="none"/>
      </g>
      <g id="Group_1122216" data-name="Group 1122216" transform="translate(0.001 5.471)">
        <path id="Path_912802" data-name="Path 912802" d="M89.607,0H24.833A10.156,10.156,0,0,0,14.638,10.082L14.22,67.118H1.58A1.645,1.645,0,0,0,0,68.806v7.85A13.754,13.754,0,0,0,12.977,90.343v.094H67.523v-.106c.406.017.651.106.93.106h.039A13.712,13.712,0,0,0,82.123,76.654V26.766H98.59a1.662,1.662,0,0,0,1.58-1.706v-14.4A10.639,10.639,0,0,0,89.607,0ZM13.687,87.193h-.011A10.512,10.512,0,0,1,3.244,76.654V70.363h51.5v6.265a13.73,13.73,0,0,0,4.008,9.743,5.825,5.825,0,0,1,.854.823Zm65.192-10.54A10.475,10.475,0,0,1,68.49,87.193h-.033A10.54,10.54,0,0,1,57.993,76.628V68.806a1.68,1.68,0,0,0-1.622-1.688H17.465l.417-57.026a6.91,6.91,0,0,1,6.951-6.848H81.948A11.069,11.069,0,0,0,78.879,10.7ZM96.926,10.686V23.522h-14.8V10.7a7.513,7.513,0,0,1,7.436-7.454H89.6a7.4,7.4,0,0,1,7.321,7.43Zm0,0" fill="#182e68"/>
        <path id="Path_912803" data-name="Path 912803" d="M168.037,82.64l8.364,5.718a1.6,1.6,0,0,0,1.813,0l8.338-5.717a12.6,12.6,0,0,0,5.036-9.611V61.461A1.586,1.586,0,0,0,190.723,60l-12.734-6.264a1.594,1.594,0,0,0-1.418,0L163.86,59.987A1.583,1.583,0,0,0,163,61.444V73.03a12.6,12.6,0,0,0,5.04,9.61Zm-1.8-20.184L177.292,57l11.051,5.468V73.03a9.348,9.348,0,0,1-3.622,6.929l-7.448,5.094-7.419-5.093a9.343,9.343,0,0,1-3.613-6.93Zm0,0" transform="translate(-129.945 -42.711)" fill="#182e68"/>
        <path id="Path_912804" data-name="Path 912804" d="M205.278,125.35a1.62,1.62,0,0,0,1.149.486h0a1.624,1.624,0,0,0,1.147-.48l6.453-6.456a1.623,1.623,0,0,0-2.294-2.3l-5.3,5.3-2.119-2.139a1.623,1.623,0,1,0-2.306,2.285Zm0,0" transform="translate(-160.674 -92.582)" fill="#182e68"/>
        <path id="Path_912805" data-name="Path 912805" d="M173.555,248H134.622a1.622,1.622,0,1,0,0,3.244h38.933a1.622,1.622,0,1,0,0-3.244Zm0,0" transform="translate(-106.032 -197.712)" fill="#182e68"/>
        <path id="Path_912806" data-name="Path 912806" d="M173.555,285H134.622a1.622,1.622,0,0,0,0,3.244h38.933a1.622,1.622,0,0,0,0-3.244Zm0,0" transform="translate(-106.032 -227.209)" fill="#182e68"/>
      </g>
    </g>
  </g>
</svg>
