<svg xmlns="http://www.w3.org/2000/svg" xmlns:xlink="http://www.w3.org/1999/xlink" width="109" height="109" viewBox="0 0 109 109">
  <defs>
    <linearGradient id="linear-gradient" x1="0.5" x2="0.5" y2="1" gradientUnits="objectBoundingBox">
      <stop offset="0" stop-color="#ddf1ff"/>
      <stop offset="1" stop-color="#fff"/>
    </linearGradient>
  </defs>
  <g id="Group_1122139" data-name="Group 1122139" transform="translate(-950.878 -9141.342)">
    <g id="Group_1099855" data-name="Group 1099855" transform="translate(955.878 9146.342)">
      <g id="Group_1099808" data-name="Group 1099808" transform="translate(0 0)">
        <g id="Group_1099775" data-name="Group 1099775" transform="translate(0 0)">
          <g id="Group_1099770" data-name="Group 1099770">
            <g id="Rectangle_401345" data-name="Rectangle 401345" stroke="#614c8d" stroke-width="5" fill="url(#linear-gradient)">
              <rect width="99" height="99" rx="10" stroke="none"/>
              <rect x="-2.5" y="-2.5" width="104" height="104" rx="12.5" fill="none"/>
            </g>
          </g>
        </g>
        <g id="Group_1099776" data-name="Group 1099776" transform="translate(11.22 11.103)">
          <g id="Group_1099618" data-name="Group 1099618" transform="translate(0 0)">
            <rect id="Rectangle_401104" data-name="Rectangle 401104" width="75.681" height="76.593" transform="translate(0)" fill="none"/>
          </g>
          <path id="Path_912839" data-name="Path 912839" d="M15.035,61.742a1.221,1.221,0,1,1-2.1,1.247,36.564,36.564,0,0,1-2.31-32.646,1.221,1.221,0,1,1,2.254.939,34.123,34.123,0,0,0,2.155,30.46ZM78.214,40.27a1.221,1.221,0,1,1,2.424-.291,36.558,36.558,0,0,1-43.23,40.257,1.221,1.221,0,1,1,.463-2.4A34.116,34.116,0,0,0,78.214,40.27ZM31.231,12.9a1.221,1.221,0,0,1-.942-2.252,36.567,36.567,0,0,1,32.2,2,1.221,1.221,0,0,1-1.214,2.118A34.126,34.126,0,0,0,31.231,12.9ZM17.976,7A10.976,10.976,0,1,1,7,17.976,10.981,10.981,0,0,1,17.976,7Zm0,2.441a8.535,8.535,0,1,0,8.535,8.535A8.539,8.539,0,0,0,17.976,9.441Zm0,3.754a4.781,4.781,0,1,1-4.781,4.781A4.783,4.783,0,0,1,17.976,13.195Zm0,2.441a2.34,2.34,0,1,0,2.34,2.34A2.341,2.341,0,0,0,17.976,15.636Zm31,11.448a17.229,17.229,0,0,1,3.869,1.6l2.483-1.1a1.221,1.221,0,0,1,1.359.252l3.6,3.6a1.221,1.221,0,0,1,.253,1.358l-1.1,2.484a17.2,17.2,0,0,1,1.6,3.876l2.532.975a1.22,1.22,0,0,1,.782,1.139v5.094a1.221,1.221,0,0,1-.782,1.139l-2.533.975a17.371,17.371,0,0,1-1.6,3.869l1.1,2.485a1.221,1.221,0,0,1-.253,1.358l-3.6,3.6a1.221,1.221,0,0,1-1.358.253l-2.483-1.1a17.189,17.189,0,0,1-3.872,1.6L48,63.079a1.221,1.221,0,0,1-1.139.782H41.77a1.221,1.221,0,0,1-1.139-.782l-.975-2.533a17.345,17.345,0,0,1-3.875-1.605l-2.485,1.1a1.221,1.221,0,0,1-1.358-.253l-3.6-3.6a1.221,1.221,0,0,1-.252-1.359l1.1-2.482a17.34,17.34,0,0,1-1.607-3.87L25.048,47.5a1.221,1.221,0,0,1-.782-1.139V41.268a1.221,1.221,0,0,1,.782-1.139l2.534-.975a17.36,17.36,0,0,1,1.607-3.874l-1.1-2.483a1.221,1.221,0,0,1,.252-1.359l3.6-3.6a1.221,1.221,0,0,1,1.359-.252l2.483,1.1a17.234,17.234,0,0,1,3.87-1.6l.98-2.539a1.221,1.221,0,0,1,1.139-.781h5.094A1.221,1.221,0,0,1,48,24.547Zm-2.053,1.463-.9-2.342H42.607l-.9,2.343a1.221,1.221,0,0,1-.857.748A14.8,14.8,0,0,0,36.5,31.1a1.221,1.221,0,0,1-1.136.076l-2.291-1.019-2.416,2.416,1.019,2.291A1.221,1.221,0,0,1,31.6,36a14.926,14.926,0,0,0-1.807,4.354,1.22,1.22,0,0,1-.748.854l-2.337.9v3.418l2.337.9a1.221,1.221,0,0,1,.748.854A14.891,14.891,0,0,0,31.6,51.625a1.22,1.22,0,0,1,.077,1.138l-1.019,2.291,2.417,2.417,2.292-1.015a1.221,1.221,0,0,1,1.132.075,14.91,14.91,0,0,0,4.353,1.8,1.22,1.22,0,0,1,.858.749l.9,2.337h3.418l.9-2.337a1.22,1.22,0,0,1,.857-.749,14.743,14.743,0,0,0,4.345-1.8,1.22,1.22,0,0,1,1.136-.078l2.292,1.015,2.417-2.417-1.015-2.292a1.221,1.221,0,0,1,.075-1.132,14.937,14.937,0,0,0,1.8-4.349,1.221,1.221,0,0,1,.749-.857l2.337-.9V42.106l-2.337-.9a1.22,1.22,0,0,1-.749-.858A14.778,14.778,0,0,0,57.035,36a1.221,1.221,0,0,1-.077-1.135l1.015-2.292-2.416-2.417-2.291,1.019a1.221,1.221,0,0,1-1.136-.076,14.8,14.8,0,0,0-4.346-1.8,1.221,1.221,0,0,1-.857-.75Zm-2.611,5.16A10.109,10.109,0,1,1,34.208,43.813,10.108,10.108,0,0,1,44.315,33.706Zm0,2.441a7.668,7.668,0,1,0,7.67,7.665A7.662,7.662,0,0,0,44.315,36.148ZM80.679,16.755a2,2,0,0,1,2,2V34.07a2,2,0,0,1-2,2H65.366a2,2,0,0,1-2-2V18.757a2,2,0,0,1,2-2ZM65.806,19.2V33.63H80.239V19.2Zm7.217,2.09A5.127,5.127,0,1,1,67.9,26.413,5.129,5.129,0,0,1,73.023,21.287Zm0,2.441a2.686,2.686,0,1,0,2.686,2.686,2.687,2.687,0,0,0-2.686-2.686ZM19.333,61.447a1.932,1.932,0,0,1,3.295,0L33.843,79.738A1.932,1.932,0,0,1,32.2,82.681H9.765a1.932,1.932,0,0,1-1.647-2.942ZM10.675,80.239H31.286L20.98,63.431ZM20.98,69.626A4.779,4.779,0,1,1,16.2,74.4a4.781,4.781,0,0,1,4.779-4.779Zm0,2.441A2.337,2.337,0,1,0,23.318,74.4,2.338,2.338,0,0,0,20.98,72.067Z" transform="translate(-7 -6.544)" fill="#182e68" fill-rule="evenodd"/>
        </g>
      </g>
    </g>
  </g>
</svg>
