<svg xmlns="http://www.w3.org/2000/svg" xmlns:xlink="http://www.w3.org/1999/xlink" width="129" height="128" viewBox="0 0 129 128">
  <defs>
    <clipPath id="clip-path">
      <rect id="Rectangle_400938" data-name="Rectangle 400938" width="120" height="120" fill="none"/>
    </clipPath>
    <clipPath id="clip-path-2">
      <rect id="Rectangle_401139" data-name="Rectangle 401139" width="129" height="128" transform="translate(389 2749)" fill="#8f006f"/>
    </clipPath>
  </defs>
  <g id="Group_1122321" data-name="Group 1122321" transform="translate(-361 -5862)">
    <g id="Group_1099488" data-name="Group 1099488" transform="translate(-28 3113)">
      <g id="Grupo_108927" data-name="Grupo 108927" transform="translate(-1 -1718)">
        <path id="Rectángulo_36179" data-name="Rectángulo 36179" d="M0,0H129V128H0Z" transform="translate(390 4467)" fill="#0653ae"/>
      </g>
      <g id="Mask_Group_1098688" data-name="Mask Group 1098688" clip-path="url(#clip-path-2)">
        <path id="Path_878164" data-name="Path 878164" d="M195.281,0h1.95l-.293,3.327,2.755-2.1.988,1.694-3.133,1.536,3.133,1.621-.988,1.708-2.755-2.171.293,3.39h-1.95l.365-3.45L192.88,7.7,191.9,6l3.048-1.536-3.121-1.45.988-1.694,2.815,2.047Z" transform="translate(204.529 2754.341)" fill="#dbccfc"/>
        <path id="Path_878165" data-name="Path 878165" d="M207.27,0h1.95l-.293,3.327,2.755-2.1.988,1.694-3.133,1.536,3.133,1.621-.988,1.708-2.755-2.171.293,3.39h-1.95l.365-3.45L204.869,7.7,203.894,6l3.047-1.536-3.121-1.45.988-1.694,2.815,2.047Z" transform="translate(207.238 2754.341)" fill="#dbccfc"/>
        <path id="Path_878166" data-name="Path 878166" d="M219.26,0h1.95l-.293,3.327,2.755-2.1.988,1.694-3.133,1.536,3.133,1.621-.988,1.708-2.755-2.171.293,3.39h-1.95l.365-3.45L216.858,7.7,215.884,6l3.046-1.536-3.12-1.45.987-1.694,2.816,2.047Z" transform="translate(209.945 2754.341)" fill="#dbccfc"/>
        <path id="Path_878167" data-name="Path 878167" d="M231.249,0h1.95l-.293,3.327,2.755-2.1.988,1.694-3.133,1.536,3.133,1.621-.988,1.708-2.755-2.171.293,3.39h-1.95l.365-3.45L228.848,7.7,227.873,6l3.048-1.536L227.8,3.011l.988-1.694L231.6,3.364Z" transform="translate(212.654 2754.341)" fill="#dbccfc"/>
        <path id="Path_878168" data-name="Path 878168" d="M243.239,0h1.95L244.9,3.327l2.755-2.1.987,1.694-3.132,1.536,3.132,1.621-.987,1.708L244.9,5.618l.293,3.39h-1.95l.365-3.45L240.837,7.7,239.863,6l3.046-1.536-3.12-1.45.987-1.694,2.816,2.047Z" transform="translate(215.361 2754.341)" fill="#dbccfc"/>
        <path id="Path_878169" data-name="Path 878169" d="M195.281,0h1.95l-.293,3.327,2.755-2.1.988,1.694-3.133,1.536,3.133,1.621-.988,1.708-2.755-2.171.293,3.39h-1.95l.365-3.45L192.88,7.7,191.9,6l3.048-1.536-3.121-1.45.988-1.694,2.815,2.047Z" transform="translate(250.529 2861.341)" fill="#dbccfc"/>
        <path id="Path_878170" data-name="Path 878170" d="M207.27,0h1.95l-.293,3.327,2.755-2.1.988,1.694-3.133,1.536,3.133,1.621-.988,1.708-2.755-2.171.293,3.39h-1.95l.365-3.45L204.869,7.7,203.894,6l3.047-1.536-3.121-1.45.988-1.694,2.815,2.047Z" transform="translate(253.238 2861.341)" fill="#dbccfc"/>
        <path id="Path_878171" data-name="Path 878171" d="M219.26,0h1.95l-.293,3.327,2.755-2.1.988,1.694-3.133,1.536,3.133,1.621-.988,1.708-2.755-2.171.293,3.39h-1.95l.365-3.45L216.858,7.7,215.884,6l3.046-1.536-3.12-1.45.987-1.694,2.816,2.047Z" transform="translate(255.945 2861.341)" fill="#dbccfc"/>
        <path id="Path_878172" data-name="Path 878172" d="M231.249,0h1.95l-.293,3.327,2.755-2.1.988,1.694-3.133,1.536,3.133,1.621-.988,1.708-2.755-2.171.293,3.39h-1.95l.365-3.45L228.848,7.7,227.873,6l3.048-1.536L227.8,3.011l.988-1.694L231.6,3.364Z" transform="translate(258.654 2861.341)" fill="#dbccfc"/>
        <path id="Path_878173" data-name="Path 878173" d="M243.239,0h1.95L244.9,3.327l2.755-2.1.987,1.694-3.132,1.536,3.132,1.621-.987,1.708L244.9,5.618l.293,3.39h-1.95l.365-3.45L240.837,7.7,239.863,6l3.046-1.536-3.12-1.45.987-1.694,2.816,2.047Z" transform="translate(261.361 2861.341)" fill="#dbccfc"/>
      </g>
    </g>
    <g id="Group_1099484" data-name="Group 1099484" transform="translate(379.875 5879.719)">
      <rect id="Rectangle_401104" data-name="Rectangle 401104" width="92" height="94" transform="translate(0.124 -0.719)" fill="none"/>
      <path id="Path_913005" data-name="Path 913005" d="M49.66,10.576a1.32,1.32,0,0,1,1.32-1.32H67.573a1.32,1.32,0,0,1,0,2.641H50.98A1.32,1.32,0,0,1,49.66,10.576ZM67.573,42.985H56.736a1.32,1.32,0,1,0,0,2.641H67.573a1.32,1.32,0,0,0,0-2.641ZM45.255,44.317a1.321,1.321,0,0,0-1.862.143l-3.069,3.58-1.276-1.421a1.32,1.32,0,0,0-1.965,1.764l2.281,2.541a1.32,1.32,0,0,0,.982.438h.015a1.32,1.32,0,0,0,.987-.461L45.4,46.179A1.32,1.32,0,0,0,45.255,44.317ZM67.573,29.492H56.736a1.32,1.32,0,1,0,0,2.641H67.573a1.32,1.32,0,0,0,0-2.641ZM50.98,38.882H67.573a1.32,1.32,0,0,0,0-2.641H50.98a1.32,1.32,0,1,0,0,2.641ZM67.573,16H56.736a1.32,1.32,0,1,0,0,2.641H67.573a1.32,1.32,0,0,0,0-2.641ZM50.98,25.389H67.573a1.32,1.32,0,0,0,0-2.641H50.98a1.32,1.32,0,1,0,0,2.641Zm-5.725,5.434a1.321,1.321,0,0,0-1.862.143l-3.069,3.58-1.276-1.421a1.32,1.32,0,0,0-1.965,1.764l2.281,2.541a1.32,1.32,0,0,0,.982.438h.015a1.32,1.32,0,0,0,.987-.461L45.4,32.686a1.32,1.32,0,0,0-.143-1.862Zm-4.93-9.769-1.276-1.421A1.32,1.32,0,0,0,37.083,21.4l2.281,2.541a1.32,1.32,0,0,0,.982.438h.015a1.32,1.32,0,0,0,.987-.46L45.4,19.2a1.32,1.32,0,0,0-2-1.72ZM99.1,51.684V63.45a15.769,15.769,0,0,1-6.725,13.118L81.946,84.06a1.32,1.32,0,0,1-1.541,0L69.977,76.567a17,17,0,0,1-2.342-2.028H65.879L69.938,82.8H75.38a4.011,4.011,0,0,1,0,8.022H34.662a4.011,4.011,0,0,1,0-8.022H40.1l4.062-8.257H18.823a5.035,5.035,0,0,1-5.029-5.029V19.5a5.035,5.035,0,0,1,5.029-5.029H29.113V13.037A1.321,1.321,0,0,1,29.5,12.1L40.208,1.4a1.32,1.32,0,0,1,.934-.387h33.63a1.32,1.32,0,0,1,1.32,1.32V5.846h3.517a1.32,1.32,0,0,1,1.32,1.32v7.305h10.3A5.033,5.033,0,0,1,96.249,19.5V49.87a7.292,7.292,0,0,0,1.741.51A1.321,1.321,0,0,1,99.1,51.684ZM80.928,17.113v2.246h9.113a1.32,1.32,0,0,1,1.32,1.32V43.45a1.318,1.318,0,0,1,.607.91,7.266,7.266,0,0,0,1.639,3.554V19.5a2.389,2.389,0,0,0-2.383-2.388h-10.3ZM88.721,22H80.928V43.25h7.792ZM76.092,8.487V43.25h2.2V8.487ZM73.451,3.65H42.461v9.387a1.32,1.32,0,0,1-1.32,1.32H31.754V57.1h31.5V52.375H50.98a1.32,1.32,0,0,1,0-2.641H66.4a7.277,7.277,0,0,0,3.99-5.376,1.321,1.321,0,0,1,1.3-1.108h1.759V3.65ZM29.113,58.423V22H21.321V67.011H63.627a16.629,16.629,0,0,1-.337-2.431H35.271a1.32,1.32,0,0,1-1.32-1.32V59.743H30.433a1.321,1.321,0,0,1-1.32-1.32Zm34.139,1.32H36.591v2.2H63.252ZM39.821,11.716v-6.2l-6.2,6.2Zm35.56,73.72H34.662a1.37,1.37,0,0,0,0,2.74H75.38a1.37,1.37,0,0,0,0-2.74Zm-12.443-10.9H47.109L43.048,82.8H66.995ZM65.586,71.9a15.381,15.381,0,0,1-1.143-2.246H20a1.32,1.32,0,0,1-1.32-1.32V20.679A1.32,1.32,0,0,1,20,19.359h9.112V17.113H18.823A2.391,2.391,0,0,0,16.434,19.5V69.51A2.391,2.391,0,0,0,18.823,71.9H65.586ZM96.458,52.743a9.9,9.9,0,0,1-6.852-6.852H72.749a9.909,9.909,0,0,1-6.855,6.852V63.45a13.033,13.033,0,0,0,5.625,10.973l9.657,6.939,9.658-6.939a13.024,13.024,0,0,0,5.625-10.973V52.743Zm-2.4.851a1.32,1.32,0,0,1,.738,1.185v8.671a11.426,11.426,0,0,1-4.933,9.623l-7.917,5.691a1.32,1.32,0,0,1-1.542,0l-7.912-5.691a11.418,11.418,0,0,1-4.937-9.623V54.779a1.32,1.32,0,0,1,.739-1.186,11.674,11.674,0,0,0,5.307-5.3,1.321,1.321,0,0,1,1.185-.738H87.57a1.321,1.321,0,0,1,1.186.739A11.655,11.655,0,0,0,94.058,53.594Zm-1.9,1.98a14.337,14.337,0,0,1-5.38-5.38H75.58a14.356,14.356,0,0,1-5.384,5.38V63.45a8.763,8.763,0,0,0,3.837,7.478l7.143,5.137,7.146-5.137a8.77,8.77,0,0,0,3.833-7.479V55.574Zm-2.817.973a3.336,3.336,0,0,1,.37,4.694l-7.586,8.846A3.326,3.326,0,0,1,79.63,71.35l-.125,0a3.323,3.323,0,0,1-2.476-1.1l-4.323-4.812h0a3.335,3.335,0,1,1,4.96-4.459l1.785,1.989,5.19-6.055a3.335,3.335,0,0,1,4.7-.363Zm-1.716,2.007a.692.692,0,0,0-.976.075l-6.17,7.2a1.32,1.32,0,0,1-.987.461,1.337,1.337,0,0,1-1-.438L75.7,62.739a.685.685,0,0,0-.477-.228.695.695,0,0,0-.553,1.159l4.323,4.812a.694.694,0,0,0,1.063-.04l.042-.052,7.6-8.865a.692.692,0,0,0-.079-.972Z" transform="translate(-9.276 0.369)" fill="#fff"/>
    </g>
  </g>
</svg>
