<svg xmlns="http://www.w3.org/2000/svg" xmlns:xlink="http://www.w3.org/1999/xlink" width="99.458" height="150" viewBox="0 0 99.458 150">
  <defs>
    <linearGradient id="linear-gradient" x1="0.5" x2="0.5" y2="1" gradientUnits="objectBoundingBox">
      <stop offset="0" stop-color="#ddf1ff"/>
      <stop offset="1" stop-color="#fff"/>
    </linearGradient>
  </defs>
  <g id="Group_1122709" data-name="Group 1122709" transform="translate(-809.917 -4819.328)">
    <rect id="Rectangle_404540" data-name="Rectangle 404540" width="85" height="150" transform="translate(809.917 4819.328)" fill="#daf5fe"/>
    <g id="Group_1109035" data-name="Group 1109035" transform="translate(566.388 -1173.086)">
      <g id="Group_1099808" data-name="Group 1099808" transform="translate(269.987 6031.414)">
        <g id="Group_1099775" data-name="Group 1099775" transform="translate(0 0)">
          <g id="Group_1099770" data-name="Group 1099770">
            <g id="Rectangle_401345" data-name="Rectangle 401345" stroke="#8f006f" stroke-width="5" fill="url(#linear-gradient)">
              <rect width="73" height="73" rx="10" stroke="none"/>
              <rect x="2.5" y="2.5" width="68" height="68" rx="7.5" fill="none"/>
            </g>
          </g>
        </g>
        <g id="Group_1099776" data-name="Group 1099776" transform="translate(12.023 11.982)">
          <g id="Group_1099618" data-name="Group 1099618" transform="translate(0 0)">
            <rect id="Rectangle_401104" data-name="Rectangle 401104" width="48.305" height="48.887" transform="translate(0)" fill="none"/>
          </g>
          <g id="Group_1122315" data-name="Group 1122315" transform="translate(0 0.291)">
            <g id="Group_1122314" data-name="Group 1122314">
              <g id="Group_1122313" data-name="Group 1122313">
                <path id="Path_913025" data-name="Path 913025" d="M44.277,34.133h-.805a.805.805,0,0,0,0,1.61h.805a.805.805,0,0,0,0-1.61Z" transform="translate(-38.642 -30.913)" fill="#182e68"/>
                <path id="Path_913026" data-name="Path 913026" d="M86.944,34.133h-.805a.805.805,0,1,0,0,1.61h.805a.805.805,0,1,0,0-1.61Z" transform="translate(-77.283 -30.913)" fill="#182e68"/>
                <path id="Path_913027" data-name="Path 913027" d="M129.611,34.133h-.805a.805.805,0,0,0,0,1.61h.805a.805.805,0,0,0,0-1.61Z" transform="translate(-115.925 -30.913)" fill="#182e68"/>
                <path id="Path_913028" data-name="Path 913028" d="M193.209,34.133H171.472a.805.805,0,1,0,0,1.61h21.737a.805.805,0,0,0,0-1.61Z" transform="translate(-154.565 -30.913)" fill="#182e68"/>
                <path id="Path_913029" data-name="Path 913029" d="M46.7,28.983H45.89V24.958A8.814,8.814,0,0,0,43.475,18.9V4.025A4.03,4.03,0,0,0,39.449,0H4.025A4.03,4.03,0,0,0,0,4.025v32.2a4.03,4.03,0,0,0,4.025,4.025H25.763V42.67A5.642,5.642,0,0,0,31.4,48.305H42.67a5.642,5.642,0,0,0,5.636-5.636V30.593A1.61,1.61,0,0,0,46.7,28.983ZM44.28,24.958v4.025H29.788V24.958a7.246,7.246,0,0,1,14.492,0ZM1.61,4.025A2.415,2.415,0,0,1,4.025,1.61H39.449a2.415,2.415,0,0,1,2.415,2.415V6.441H1.61ZM25.763,30.593v8.051H4.025A2.415,2.415,0,0,1,1.61,36.229V8.051H41.865v9.494a8.845,8.845,0,0,0-13.687,7.413v4.025h-.805A1.61,1.61,0,0,0,25.763,30.593ZM46.7,32.2H44.28a.805.805,0,0,0,0,1.61H46.7v1.61H44.28a.805.805,0,0,0,0,1.61H46.7v1.61H44.28a.805.805,0,0,0,0,1.61H46.7v1.61H44.28a.805.805,0,0,0,0,1.61h2.335a4.033,4.033,0,0,1-3.945,3.22H31.4a4.033,4.033,0,0,1-3.945-3.22h2.335a.805.805,0,1,0,0-1.61H27.373v-1.61h2.415a.805.805,0,1,0,0-1.61H27.373v-1.61h2.415a.805.805,0,1,0,0-1.61H27.373v-1.61h2.415a.805.805,0,1,0,0-1.61H27.373v-1.61H46.7V32.2Z" fill="#182e68"/>
                <path id="Path_913030" data-name="Path 913030" d="M368.552,371.615v1.758a.805.805,0,0,0,1.61,0v-1.758a2.414,2.414,0,1,0-1.61,0Zm.805-3.072a.805.805,0,1,1-.805.805A.805.805,0,0,1,369.357,368.543Z" transform="translate(-332.323 -332.314)" fill="#182e68"/>
                <path id="Path_913031" data-name="Path 913031" d="M60.056,124.3a.805.805,0,0,0-.805.805v2.415H52.81v-6.441h3.22a.805.805,0,1,0,0-1.61H52.81a1.61,1.61,0,0,0-1.61,1.61v6.441a1.61,1.61,0,0,0,1.61,1.61h6.441a1.61,1.61,0,0,0,1.61-1.61V125.1A.805.805,0,0,0,60.056,124.3Z" transform="translate(-46.369 -108.196)" fill="#182e68"/>
                <path id="Path_913032" data-name="Path 913032" d="M78.269,122.927a.805.805,0,0,0-1.138,1.138l1.61,1.61a.805.805,0,0,0,.569.236h.036a.805.805,0,0,0,.582-.288l4.025-4.831a.805.805,0,1,0-1.237-1.032l-3.462,4.154Z" transform="translate(-69.649 -108.199)" fill="#182e68"/>
                <path id="Path_913033" data-name="Path 913033" d="M60.056,269.364a.805.805,0,0,0-.805.805v2.415H52.81v-6.441h3.22a.805.805,0,1,0,0-1.61H52.81a1.61,1.61,0,0,0-1.61,1.61v6.441a1.61,1.61,0,0,0,1.61,1.61h6.441a1.61,1.61,0,0,0,1.61-1.61V270.17A.805.805,0,0,0,60.056,269.364Z" transform="translate(-46.369 -239.576)" fill="#182e68"/>
                <path id="Path_913034" data-name="Path 913034" d="M78.269,267.995a.805.805,0,0,0-1.138,1.138l1.61,1.61a.8.8,0,0,0,.569.236h.036a.805.805,0,0,0,.582-.288l4.025-4.831a.805.805,0,1,0-1.237-1.032l-3.462,4.154Z" transform="translate(-69.649 -239.581)" fill="#182e68"/>
                <path id="Path_913035" data-name="Path 913035" d="M180.005,129.61h6.441a.805.805,0,0,0,0-1.61h-6.441a.805.805,0,0,0,0,1.61Z" transform="translate(-162.293 -115.924)" fill="#182e68"/>
                <path id="Path_913036" data-name="Path 913036" d="M191.276,171.472a.805.805,0,0,0-.805-.805H180.005a.805.805,0,0,0,0,1.61h10.466A.805.805,0,0,0,191.276,171.472Z" transform="translate(-162.293 -154.565)" fill="#182e68"/>
                <path id="Path_913037" data-name="Path 913037" d="M186.446,273.067h-6.441a.805.805,0,0,0,0,1.61h6.441a.805.805,0,0,0,0-1.61Z" transform="translate(-162.293 -247.304)" fill="#182e68"/>
                <path id="Path_913038" data-name="Path 913038" d="M185.642,315.733h-5.636a.805.805,0,1,0,0,1.61h5.636a.805.805,0,0,0,0-1.61Z" transform="translate(-162.294 -285.945)" fill="#182e68"/>
              </g>
            </g>
          </g>
        </g>
      </g>
    </g>
  </g>
</svg>
