<svg xmlns="http://www.w3.org/2000/svg" xmlns:xlink="http://www.w3.org/1999/xlink" width="99.458" height="150" viewBox="0 0 99.458 150">
  <defs>
    <linearGradient id="linear-gradient" x1="0.5" x2="0.5" y2="1" gradientUnits="objectBoundingBox">
      <stop offset="0" stop-color="#ddf1ff"/>
      <stop offset="1" stop-color="#fff"/>
    </linearGradient>
  </defs>
  <g id="Group_1122712" data-name="Group 1122712" transform="translate(-180 -5183.328)">
    <rect id="Rectangle_410777" data-name="Rectangle 410777" width="85" height="150" transform="translate(180 5183.328)" fill="#daf5fe"/>
    <g id="Group_1122247" data-name="Group 1122247" transform="translate(-63.529 -809.086)">
      <g id="Group_1099808" data-name="Group 1099808" transform="translate(269.987 6031.414)">
        <g id="Group_1099775" data-name="Group 1099775" transform="translate(0 0)">
          <g id="Group_1099770" data-name="Group 1099770">
            <g id="Rectangle_401345" data-name="Rectangle 401345" stroke="#8f006f" stroke-width="5" fill="url(#linear-gradient)">
              <rect width="73" height="73" rx="10" stroke="none"/>
              <rect x="2.5" y="2.5" width="68" height="68" rx="7.5" fill="none"/>
            </g>
          </g>
        </g>
        <g id="Group_1099776" data-name="Group 1099776" transform="translate(12.023 11.982)">
          <g id="Group_1099618" data-name="Group 1099618" transform="translate(0 0)">
            <rect id="Rectangle_401104" data-name="Rectangle 401104" width="48.305" height="48.887" transform="translate(0)" fill="none"/>
          </g>
          <path id="Path_913051" data-name="Path 913051" d="M22.471,27.729V10.637a2.917,2.917,0,0,1,2.915-2.909h6.163a3.128,3.128,0,0,1,2.773,1.591l0,0L36.3,12.746h7.868a.806.806,0,0,1,0,1.612H24.083v13.37a1.3,1.3,0,0,0,1.3,1.3h2.931a.806.806,0,1,1,0,1.612H25.386a2.917,2.917,0,0,1-2.915-2.909ZM34.437,12.746l-1.511-2.619a1.556,1.556,0,0,0-1.378-.787H25.386a1.3,1.3,0,0,0-1.3,1.3v2.11ZM44.941,23.6h.452a1.827,1.827,0,0,1,1.824,1.824V36.313a1.824,1.824,0,0,1-1.824,1.824H31.7a1.827,1.827,0,0,1-1.826-1.824V25.428A1.829,1.829,0,0,1,31.7,23.6h.45V22.058a6.4,6.4,0,1,1,12.791,0Zm-11.185,0h.956V22.058a3.834,3.834,0,1,1,7.669,0V23.6h.954V22.058a4.79,4.79,0,1,0-9.579,0Zm2.562,0h4.457V22.058a2.228,2.228,0,1,0-4.457,0ZM31.7,25.211a.219.219,0,0,0-.22.218V36.313a.219.219,0,0,0,.22.218H45.393a.218.218,0,0,0,.218-.218V25.428a.218.218,0,0,0-.218-.218Zm6.847.973a2.8,2.8,0,0,1,1.847,4.891V33.71a1.847,1.847,0,1,1-3.695,0V31.075a2.794,2.794,0,0,1,1.847-4.891Zm0,1.606a1.188,1.188,0,0,0-.623,2.2.8.8,0,0,1,.382.684V33.71a.241.241,0,0,0,.483,0V30.674a.8.8,0,0,1,.382-.684,1.189,1.189,0,0,0-.623-2.2ZM54.193,50.681l1.1.009H55.3a1.886,1.886,0,0,1,1.856,1.894v.008l-.023,2.34a1.876,1.876,0,0,1-1.894,1.856l-12.171-.1A1.881,1.881,0,0,1,41.2,54.8v-.008l.023-2.34a1.894,1.894,0,0,1,1.883-1.868h.007l.877.007-.009-6.1h0c0-1.867.309-3.621,1.7-4.871a53.309,53.309,0,0,0,5.659-5.254.789.789,0,0,1,.074-.077,2.893,2.893,0,0,1,4.011.026,3.324,3.324,0,0,1,.335.384,3.98,3.98,0,0,0,.077-.789l-.034-8.42h0c-.011-3.091,1.037-4.543,2.125-5.078a2.963,2.963,0,0,1,2.861.2,2.932,2.932,0,0,1,1.457,2.326l.448,15.5s0,0,0,0a5.691,5.691,0,0,1-1.714,4.261l0,0-6.785,6.774ZM43.1,52.193h0a.274.274,0,0,0-.271.266s0,.005,0,.008-.023,2.338-.023,2.342a.272.272,0,0,0,.266.271h.007l12.18.1h.009a.257.257,0,0,0,.261-.254v-.008s.023-2.339.023-2.342a.286.286,0,0,0-.278-.283Zm2.036,1.173a.884.884,0,1,1-1.643.655.884.884,0,1,1,1.643-.655Zm.456-2.758,6.991.059V49.149a.8.8,0,0,1,.236-.568l7.02-7.009a4.133,4.133,0,0,0,1.247-3.088l-.448-15.5v0a1.306,1.306,0,0,0-.692-1c-1.1-.674-2.552-.017-2.54,3.505l.034,8.422v0a5.507,5.507,0,0,1-1.317,3.6l0,0-.574.7-.018.022h0c-1.114,1.265-2.308,2.334-3.55,3.575a.8.8,0,0,1-1.136-1.136c1.209-1.209,2.375-2.249,3.461-3.479a1.242,1.242,0,0,0-.009-1.736l0,0a1.293,1.293,0,0,0-1.765,0,55.765,55.765,0,0,1-5.768,5.362l0,0c-1.042.934-1.169,2.28-1.169,3.676Zm-22.7.073v-1.2l-6.785-6.774,0,0a5.691,5.691,0,0,1-1.714-4.261s0,0,0,0l.448-15.5A2.932,2.932,0,0,1,16.3,20.614a2.963,2.963,0,0,1,2.861-.2c1.088.535,2.136,1.987,2.125,5.078h0l-.034,8.42a3.979,3.979,0,0,0,.077.789,3.324,3.324,0,0,1,.335-.384,2.893,2.893,0,0,1,4.011-.026.789.789,0,0,1,.074.077,53.308,53.308,0,0,0,5.659,5.254c1.392,1.249,1.7,3,1.7,4.871h0l-.009,6.1.877-.007h.007a1.894,1.894,0,0,1,1.883,1.868l.023,2.34V54.8a1.881,1.881,0,0,1-1.869,1.883l-12.171.1a1.876,1.876,0,0,1-1.894-1.856l-.023-2.34v-.008a1.886,1.886,0,0,1,1.856-1.895H21.8Zm8.6-.073L31.5,44.5c0-1.4-.127-2.742-1.169-3.676l0,0a55.764,55.764,0,0,1-5.768-5.362,1.293,1.293,0,0,0-1.765,0l0,0a1.242,1.242,0,0,0-.009,1.736c1.086,1.229,2.251,2.269,3.461,3.479a.8.8,0,1,1-1.136,1.136c-1.242-1.242-2.436-2.31-3.55-3.575h0l-.018-.022-.574-.7,0,0a5.507,5.507,0,0,1-1.317-3.6v0l.034-8.422c.012-3.522-1.441-4.18-2.54-3.505a1.306,1.306,0,0,0-.692,1v0L16,38.485a4.133,4.133,0,0,0,1.247,3.088l7.02,7.009a.8.8,0,0,1,.236.568v1.518Zm2.492,1.585-12.169.1a.286.286,0,0,0-.278.283s.023,2.342.023,2.342v.008a.257.257,0,0,0,.261.254h.009l12.18-.1h.007a.272.272,0,0,0,.266-.271s-.023-2.342-.023-2.342,0-.005,0-.008a.274.274,0,0,0-.271-.266ZM31.95,53.366a.884.884,0,0,1,1.643.655.884.884,0,0,1-1.643-.655ZM50.69,30.379l-2.3-2.476a.8.8,0,0,1-.215-.547V17.41a5.669,5.669,0,1,1,6.214,0v4.051a.8.8,0,0,1-.264.6l-.733.664.733.663a.8.8,0,0,1,0,1.191l-.734.665.734.665a.8.8,0,0,1,.264.6v.856a.8.8,0,0,1-.215.547l-2.3,2.476a.8.8,0,0,1-1.176,0Zm.588-1.726,1.5-1.613v-.184l-1.127-1.021a.8.8,0,0,1,0-1.19l.733-.664-.733-.663a.8.8,0,0,1,0-1.191l1.127-1.021v-4.15a.8.8,0,0,1,.422-.707,4.063,4.063,0,1,0-3.846,0,.8.8,0,0,1,.422.707V27.04ZM49.03,11.492a2.25,2.25,0,1,1,2.249,2.249A2.25,2.25,0,0,1,49.03,11.492Zm1.606,0a.643.643,0,1,0,.643-.644A.643.643,0,0,0,50.636,11.492Z" transform="translate(-14.392 -7.451)" fill="#182e68" fill-rule="evenodd"/>
        </g>
      </g>
    </g>
  </g>
</svg>
