<svg xmlns="http://www.w3.org/2000/svg" xmlns:xlink="http://www.w3.org/1999/xlink" width="99.458" height="150" viewBox="0 0 99.458 150">
  <defs>
    <linearGradient id="linear-gradient" x1="0.5" x2="0.5" y2="1" gradientUnits="objectBoundingBox">
      <stop offset="0" stop-color="#ddf1ff"/>
      <stop offset="1" stop-color="#fff"/>
    </linearGradient>
  </defs>
  <g id="Group_1122711" data-name="Group 1122711" transform="translate(-809.917 -5001.328)">
    <rect id="Rectangle_410765" data-name="Rectangle 410765" width="85" height="150" transform="translate(809.917 5001.328)" fill="#daf5fe"/>
    <g id="Group_1122243" data-name="Group 1122243" transform="translate(566.388 -991.086)">
      <g id="Group_1099808" data-name="Group 1099808" transform="translate(269.987 6031.414)">
        <g id="Group_1099775" data-name="Group 1099775" transform="translate(0 0)">
          <g id="Group_1099770" data-name="Group 1099770">
            <g id="Rectangle_401345" data-name="Rectangle 401345" stroke="#8f006f" stroke-width="5" fill="url(#linear-gradient)">
              <rect width="73" height="73" rx="10" stroke="none"/>
              <rect x="2.5" y="2.5" width="68" height="68" rx="7.5" fill="none"/>
            </g>
          </g>
        </g>
        <g id="Group_1099776" data-name="Group 1099776" transform="translate(12.023 11.982)">
          <g id="Group_1099618" data-name="Group 1099618" transform="translate(0 0)">
            <rect id="Rectangle_401104" data-name="Rectangle 401104" width="48.305" height="48.887" transform="translate(0)" fill="none"/>
          </g>
          <g id="Layer_9" data-name="Layer 9" transform="translate(0 0.289)">
            <path id="Path_913046" data-name="Path 913046" d="M26.529,42h0a4.529,4.529,0,0,0,0,9.057h0a4.529,4.529,0,0,0,0-9.057ZM23.51,46.529a3.019,3.019,0,1,1,3.019,3.019A3.019,3.019,0,0,1,23.51,46.529Z" transform="translate(-5.395 -10.299)" fill="#182e68"/>
            <path id="Path_913047" data-name="Path 913047" d="M31.755,20.51h.755a.755.755,0,0,0,0-1.51h-.755a.755.755,0,0,0,0,1.51Z" transform="translate(-7.602 -4.659)" fill="#182e68"/>
            <path id="Path_913048" data-name="Path 913048" d="M23.51,19h-.755a.755.755,0,1,0,0,1.51h.755a.755.755,0,1,0,0-1.51Z" transform="translate(-5.395 -4.659)" fill="#182e68"/>
            <path id="Path_913049" data-name="Path 913049" d="M48.209,27.557,41.416,15.481a.755.755,0,0,0-.659-.385h0a.755.755,0,0,0-.658.386l-4.852,8.671H33.753L36.127,20a.755.755,0,0,0,.1-.385c0-.143-.034-.6-.038-.622-.211-4.473-2-9.161-5.367-13.947a11.83,11.83,0,0,0-19.381,0C8.076,9.833,6.283,14.521,6.073,18.994c0,.023-.035.478-.037.62a.755.755,0,0,0,.1.385l2.374,4.154H5.385a2.264,2.264,0,0,0-2.259,2.415l.3,4.476L.632,36.976A6.717,6.717,0,0,0,0,39.816a6.629,6.629,0,0,0,1.952,4.716l2.541,2.544.035.528a.755.755,0,0,0,.756.7h31.7a.755.755,0,0,0,.755-.7l.035-.528,2.536-2.541a6.626,6.626,0,0,0,1.957-4.716,6.7,6.7,0,0,0-.636-2.84l-2.787-5.921,0-.008L39,28.682H47.55a.755.755,0,0,0,.658-1.125Zm-16.194-3.4H25.668a7.583,7.583,0,0,0,3-5.143l.523-4.183c3.2,1.106,5.2,2.793,5.51,4.414,0,.063.012.128.014.19ZM15.1,18.823l-.088-.708h3.862a.759.759,0,0,0,.419-.127l1.845-1.232,1.845,1.23a.759.759,0,0,0,.419.128H27.26l-.088.708a6.085,6.085,0,0,1-12.076,0Zm12.353-2.218H23.624L21.55,15.223a.755.755,0,0,0-.838,0l-2.07,1.383H14.818l-.277-2.214a26.724,26.724,0,0,1,6.592-.8,26.314,26.314,0,0,1,6.6.794ZM12.675,5.913a10.322,10.322,0,0,1,16.912,0A28.186,28.186,0,0,1,34.26,15.9c-2.6-2.3-7.493-3.818-13.126-3.818s-10.525,1.51-13.125,3.8a28.2,28.2,0,0,1,4.667-9.96ZM7.548,19.432c0-.064.011-.129.014-.193.318-1.789,2.444-3.38,5.51-4.415l.524,4.187a7.583,7.583,0,0,0,3,5.143H10.247ZM3.019,43.467a5.128,5.128,0,0,1-1.51-3.651A5.194,5.194,0,0,1,2,37.618l1.633-3.472.709,10.642Zm37.245-5.848a5.2,5.2,0,0,1,.494,2.2,5.127,5.127,0,0,1-1.51,3.651l-1.321,1.322.709-10.642ZM36.275,46.8H5.987L4.628,26.468a.755.755,0,0,1,.755-.8H34.4l-1.06,1.9A.755.755,0,0,0,34,28.682h3.481Zm-.986-19.624,5.468-9.779,5.5,9.779Z" transform="translate(0)" fill="#182e68"/>
            <path id="Path_913050" data-name="Path 913050" d="M53,25.755v3.019a.755.755,0,0,0,1.51,0V25.755a.755.755,0,0,0-1.51,0Z" transform="translate(-12.997 -6.13)" fill="#182e68"/>
            <ellipse id="Ellipse_11593" data-name="Ellipse 11593" cx="0.568" cy="1.136" rx="0.568" ry="1.136" transform="translate(40.35 24.447)" fill="#182e68"/>
          </g>
        </g>
      </g>
    </g>
  </g>
</svg>
