<svg xmlns="http://www.w3.org/2000/svg" xmlns:xlink="http://www.w3.org/1999/xlink" width="129" height="128" viewBox="0 0 129 128">
  <defs>
    <clipPath id="clip-path">
      <rect id="Rectangle_400938" data-name="Rectangle 400938" width="120" height="120" fill="none"/>
    </clipPath>
    <clipPath id="clip-path-2">
      <rect id="Rectangle_401139" data-name="Rectangle 401139" width="129" height="128" transform="translate(389 2749)" fill="#8f006f"/>
    </clipPath>
  </defs>
  <g id="Group_1122324" data-name="Group 1122324" transform="translate(-361 -6372)">
    <g id="Group_1122252" data-name="Group 1122252" transform="translate(-28 3623)">
      <g id="Grupo_108927" data-name="Grupo 108927" transform="translate(-1 -1718)">
        <path id="Rectángulo_36179" data-name="Rectángulo 36179" d="M0,0H129V128H0Z" transform="translate(390 4467)" fill="#0653ae"/>
      </g>
      <g id="Mask_Group_1098688" data-name="Mask Group 1098688" clip-path="url(#clip-path-2)">
        <path id="Path_878164" data-name="Path 878164" d="M195.281,0h1.95l-.293,3.327,2.755-2.1.988,1.694-3.133,1.536,3.133,1.621-.988,1.708-2.755-2.171.293,3.39h-1.95l.365-3.45L192.88,7.7,191.9,6l3.048-1.536-3.121-1.45.988-1.694,2.815,2.047Z" transform="translate(204.529 2754.341)" fill="#dbccfc"/>
        <path id="Path_878165" data-name="Path 878165" d="M207.27,0h1.95l-.293,3.327,2.755-2.1.988,1.694-3.133,1.536,3.133,1.621-.988,1.708-2.755-2.171.293,3.39h-1.95l.365-3.45L204.869,7.7,203.894,6l3.047-1.536-3.121-1.45.988-1.694,2.815,2.047Z" transform="translate(207.238 2754.341)" fill="#dbccfc"/>
        <path id="Path_878166" data-name="Path 878166" d="M219.26,0h1.95l-.293,3.327,2.755-2.1.988,1.694-3.133,1.536,3.133,1.621-.988,1.708-2.755-2.171.293,3.39h-1.95l.365-3.45L216.858,7.7,215.884,6l3.046-1.536-3.12-1.45.987-1.694,2.816,2.047Z" transform="translate(209.945 2754.341)" fill="#dbccfc"/>
        <path id="Path_878167" data-name="Path 878167" d="M231.249,0h1.95l-.293,3.327,2.755-2.1.988,1.694-3.133,1.536,3.133,1.621-.988,1.708-2.755-2.171.293,3.39h-1.95l.365-3.45L228.848,7.7,227.873,6l3.048-1.536L227.8,3.011l.988-1.694L231.6,3.364Z" transform="translate(212.654 2754.341)" fill="#dbccfc"/>
        <path id="Path_878168" data-name="Path 878168" d="M243.239,0h1.95L244.9,3.327l2.755-2.1.987,1.694-3.132,1.536,3.132,1.621-.987,1.708L244.9,5.618l.293,3.39h-1.95l.365-3.45L240.837,7.7,239.863,6l3.046-1.536-3.12-1.45.987-1.694,2.816,2.047Z" transform="translate(215.361 2754.341)" fill="#dbccfc"/>
        <path id="Path_878169" data-name="Path 878169" d="M195.281,0h1.95l-.293,3.327,2.755-2.1.988,1.694-3.133,1.536,3.133,1.621-.988,1.708-2.755-2.171.293,3.39h-1.95l.365-3.45L192.88,7.7,191.9,6l3.048-1.536-3.121-1.45.988-1.694,2.815,2.047Z" transform="translate(250.529 2861.341)" fill="#dbccfc"/>
        <path id="Path_878170" data-name="Path 878170" d="M207.27,0h1.95l-.293,3.327,2.755-2.1.988,1.694-3.133,1.536,3.133,1.621-.988,1.708-2.755-2.171.293,3.39h-1.95l.365-3.45L204.869,7.7,203.894,6l3.047-1.536-3.121-1.45.988-1.694,2.815,2.047Z" transform="translate(253.238 2861.341)" fill="#dbccfc"/>
        <path id="Path_878171" data-name="Path 878171" d="M219.26,0h1.95l-.293,3.327,2.755-2.1.988,1.694-3.133,1.536,3.133,1.621-.988,1.708-2.755-2.171.293,3.39h-1.95l.365-3.45L216.858,7.7,215.884,6l3.046-1.536-3.12-1.45.987-1.694,2.816,2.047Z" transform="translate(255.945 2861.341)" fill="#dbccfc"/>
        <path id="Path_878172" data-name="Path 878172" d="M231.249,0h1.95l-.293,3.327,2.755-2.1.988,1.694-3.133,1.536,3.133,1.621-.988,1.708-2.755-2.171.293,3.39h-1.95l.365-3.45L228.848,7.7,227.873,6l3.048-1.536L227.8,3.011l.988-1.694L231.6,3.364Z" transform="translate(258.654 2861.341)" fill="#dbccfc"/>
        <path id="Path_878173" data-name="Path 878173" d="M243.239,0h1.95L244.9,3.327l2.755-2.1.987,1.694-3.132,1.536,3.132,1.621-.987,1.708L244.9,5.618l.293,3.39h-1.95l.365-3.45L240.837,7.7,239.863,6l3.046-1.536-3.12-1.45.987-1.694,2.816,2.047Z" transform="translate(261.361 2861.341)" fill="#dbccfc"/>
      </g>
    </g>
    <g id="Group_1122253" data-name="Group 1122253" transform="translate(379.875 6389.719)">
      <rect id="Rectangle_401104" data-name="Rectangle 401104" width="92" height="94" transform="translate(0.124 -0.719)" fill="none"/>
      <g id="Group_1122312" data-name="Group 1122312" transform="translate(0.731 1.551)">
        <g id="Group_1122311" data-name="Group 1122311" transform="translate(0.804)">
          <path id="Path_913019" data-name="Path 913019" d="M87.792,93.1a24.955,24.955,0,0,0,0-34.966,24.494,24.494,0,0,0-9.378-5.886,1.748,1.748,0,0,0-1.143,3.3A21.022,21.022,0,0,1,85.32,60.6a21.229,21.229,0,1,1-30.022,0,21.028,21.028,0,0,1,7.993-5.035,1.748,1.748,0,1,0-1.152-3.3,24.5,24.5,0,0,0-9.313,5.864A24.725,24.725,0,0,0,87.792,93.1Z" transform="translate(-37.77 -43.035)" fill="#fff"/>
          <path id="Path_913020" data-name="Path 913020" d="M86.921,71.413,69.55,54.043a1.766,1.766,0,0,0-2.472,0l-.981.981-5.14-5.14A32.868,32.868,0,0,0,56.379,9.542a32.578,32.578,0,0,0-46.072,0,32.518,32.518,0,0,0,0,46.071,32.867,32.867,0,0,0,40.106,4.723L55.6,65.522l-1.033,1.033a1.748,1.748,0,0,0,0,2.472L71.937,86.4A10.6,10.6,0,1,0,86.921,71.413ZM12.779,53.141a29.352,29.352,0,0,1,0-41.127,29.082,29.082,0,0,1,41.127,0A29.341,29.341,0,0,1,57.282,49.1a32.439,32.439,0,0,1-7.664,7.587,29.341,29.341,0,0,1-36.839-3.545Zm40.551,5.168a35.613,35.613,0,0,0,5.575-5.532L63.625,57.5,58.071,63.05ZM84.448,83.926a7.164,7.164,0,0,1-10.04,0L58.274,67.791l10.04-10.04L84.448,73.886A7.164,7.164,0,0,1,84.448,83.926Z" transform="translate(-0.804)" fill="#fff"/>
          <path id="Path_913021" data-name="Path 913021" d="M86.711,141.615a1.748,1.748,0,0,0,0,2.206c.287.353,7.158,8.658,17.275,8.658s16.988-8.3,17.276-8.658a1.748,1.748,0,0,0,0-2.206c-.287-.353-7.158-8.658-17.276-8.658S87,141.262,86.711,141.615Zm17.275,5.982a4.879,4.879,0,1,1,4.879-4.879A4.885,4.885,0,0,1,103.986,147.6Zm-6.976-9.508a8.353,8.353,0,0,0,0,9.258,24.238,24.238,0,0,1-6.552-4.629A24.24,24.24,0,0,1,97.01,138.089Zm13.951,9.257a8.353,8.353,0,0,0,0-9.258,24.237,24.237,0,0,1,6.552,4.629A24.237,24.237,0,0,1,110.962,147.347Z" transform="translate(-71.377 -109.726)" fill="#fff"/>
          <path id="Path_913022" data-name="Path 913022" d="M175.773,173.991a1.747,1.747,0,1,0-.946,2.283A1.763,1.763,0,0,0,175.773,173.991Z" transform="translate(-142.429 -142.702)" fill="#fff"/>
          <path id="Path_913023" data-name="Path 913023" d="M177.183,47.38a1.747,1.747,0,1,0,.946-2.283A1.766,1.766,0,0,0,177.183,47.38Z" transform="translate(-146.258 -37.11)" fill="#fff"/>
        </g>
      </g>
    </g>
  </g>
</svg>
