<svg xmlns="http://www.w3.org/2000/svg" xmlns:xlink="http://www.w3.org/1999/xlink" width="109" height="109" viewBox="0 0 109 109">
  <defs>
    <linearGradient id="linear-gradient" x1="0.5" x2="0.5" y2="1" gradientUnits="objectBoundingBox">
      <stop offset="0" stop-color="#ddf1ff"/>
      <stop offset="1" stop-color="#fff"/>
    </linearGradient>
  </defs>
  <g id="Group_1122136" data-name="Group 1122136" transform="translate(-950.878 -9141.342)">
    <g id="Group_1099855" data-name="Group 1099855" transform="translate(955.878 9146.342)">
      <g id="Group_1099808" data-name="Group 1099808" transform="translate(0 0)">
        <g id="Group_1099775" data-name="Group 1099775" transform="translate(0 0)">
          <g id="Group_1099770" data-name="Group 1099770">
            <g id="Rectangle_401345" data-name="Rectangle 401345" stroke="#614c8d" stroke-width="5" fill="url(#linear-gradient)">
              <rect width="99" height="99" rx="10" stroke="none"/>
              <rect x="-2.5" y="-2.5" width="104" height="104" rx="12.5" fill="none"/>
            </g>
          </g>
        </g>
        <g id="Group_1099776" data-name="Group 1099776" transform="translate(11.22 11.103)">
          <g id="Group_1099618" data-name="Group 1099618" transform="translate(0 0)">
            <rect id="Rectangle_401104" data-name="Rectangle 401104" width="75.681" height="76.593" transform="translate(0)" fill="none"/>
          </g>
          <g id="Group_1122218" data-name="Group 1122218" transform="translate(-0.004 0.455)">
            <path id="Path_912815" data-name="Path 912815" d="M115.329,136.807h18.8a1.109,1.109,0,0,0,0-2.217h-18.8A1.109,1.109,0,0,0,115.329,136.807Z" transform="translate(-97.362 -114.695)" fill="#182e68"/>
            <path id="Path_912816" data-name="Path 912816" d="M115.329,194.946h0l15.4-.012a1.111,1.111,0,0,0,0-2.217l-15.4.012A1.109,1.109,0,0,0,115.329,194.946Z" transform="translate(-97.362 -164.23)" fill="#182e68"/>
            <path id="Path_912817" data-name="Path 912817" d="M115.329,253.151h0l12.884-.012a1.111,1.111,0,0,0,0-2.217l-12.884.012A1.109,1.109,0,0,0,115.329,253.151Z" transform="translate(-97.361 -213.832)" fill="#182e68"/>
            <path id="Path_912818" data-name="Path 912818" d="M115.329,311.356h0l13.128-.011a1.111,1.111,0,0,0,0-2.217l-13.128.011A1.109,1.109,0,0,0,115.329,311.356Z" transform="translate(-97.362 -263.433)" fill="#182e68"/>
            <path id="Path_912819" data-name="Path 912819" d="M134.036,367.332h0l-18.5.011a1.111,1.111,0,0,0,0,2.217l18.5-.011A1.109,1.109,0,0,0,134.036,367.332Z" transform="translate(-97.573 -313.034)" fill="#182e68"/>
            <path id="Path_912820" data-name="Path 912820" d="M133.791,425.537h0l-18.252.011a1.111,1.111,0,0,0,0,2.217l18.252-.011A1.109,1.109,0,0,0,133.791,425.537Z" transform="translate(-97.572 -362.636)" fill="#182e68"/>
            <path id="Path_912821" data-name="Path 912821" d="M75.685,39.433a1.211,1.211,0,0,0-.066-.424L70.051,23.7a1.325,1.325,0,0,0-1.108-.82H63.59a7.819,7.819,0,0,0-6.677-6.606v-5.56a2.578,2.578,0,0,0-2.575-2.575h-1.6V6.754a2.578,2.578,0,0,0-2.575-2.575h-1.6v-1.6A2.578,2.578,0,0,0,45.987,0H2.579A2.578,2.578,0,0,0,0,2.575V64.969a2.578,2.578,0,0,0,2.575,2.575h1.6v1.6A2.579,2.579,0,0,0,6.76,71.723l1.6,0v1.389a2.578,2.578,0,0,0,2.575,2.575H45.56a1.137,1.137,0,0,0,.792-.332L56.587,65.164a1.108,1.108,0,0,0,.327-.786V56.672h2.1a1.109,1.109,0,0,0,0-2.217H45.3a3.858,3.858,0,0,1,3.688-2.742h13.76a3.858,3.858,0,0,1,3.688,2.742H64.873a1.109,1.109,0,0,0,0,2.217h2.835a1.109,1.109,0,0,0,1.109-1.109A6.075,6.075,0,0,0,62.748,49.5H59.092V25.115l8.367-.017L62.4,39.01a1.123,1.123,0,0,0-.065.439,6.675,6.675,0,0,0,13.35,0C75.685,39.443,75.685,39.438,75.685,39.433Zm-2.69-1.154h-7.97L69.01,27.323ZM61.341,22.88H50.4a5.587,5.587,0,0,1,10.945,0ZM6.757,69.506a.358.358,0,0,1-.357-.358V23.8a1.109,1.109,0,0,0-2.217,0V65.326h-1.6a.358.358,0,0,1-.357-.358V2.575a.358.358,0,0,1,.357-.358H45.987a.358.358,0,0,1,.357.358v1.6H6.757A2.578,2.578,0,0,0,4.182,6.754v11.5a1.109,1.109,0,0,0,2.217,0V6.754A.358.358,0,0,1,6.757,6.4H50.165a.358.358,0,0,1,.357.358V8.138H10.93a2.578,2.578,0,0,0-2.575,2.575V69.5Zm39.913,2.383V65.749a.358.358,0,0,1,.357-.358h6.11Zm8.193-22.4V25.131h2.013V49.485Zm-2.217.011H48.988a6.075,6.075,0,0,0-6.068,6.068,1.109,1.109,0,0,0,1.109,1.109H54.7v6.5H47.027a2.578,2.578,0,0,0-2.575,2.575v7.716H10.93a.358.358,0,0,1-.357-.358V10.714a.358.358,0,0,1,.357-.358H54.339a.358.358,0,0,1,.357.358V16.29a7.822,7.822,0,0,0-6.55,6.59H42.793a1.325,1.325,0,0,0-1.108.82L36.117,39.009a1.123,1.123,0,0,0-.065.439,6.675,6.675,0,0,0,13.35,0,1.126,1.126,0,0,0-.065-.439L44.277,25.1l8.367.017V49.5ZM38.742,38.28l3.985-10.957L46.712,38.28ZM47.047,40.5a4.46,4.46,0,0,1-8.64,0ZM69.01,43.848A4.467,4.467,0,0,1,64.69,40.5h8.64A4.467,4.467,0,0,1,69.01,43.848Z" fill="#182e68"/>
          </g>
        </g>
      </g>
    </g>
  </g>
</svg>
