<svg xmlns="http://www.w3.org/2000/svg" xmlns:xlink="http://www.w3.org/1999/xlink" width="109" height="109" viewBox="0 0 109 109">
  <defs>
    <linearGradient id="linear-gradient" x1="0.5" x2="0.5" y2="1" gradientUnits="objectBoundingBox">
      <stop offset="0" stop-color="#ddf1ff"/>
      <stop offset="1" stop-color="#fff"/>
    </linearGradient>
  </defs>
  <g id="Group_1122135" data-name="Group 1122135" transform="translate(-950.878 -9141.342)">
    <g id="Group_1099855" data-name="Group 1099855" transform="translate(955.878 9146.342)">
      <g id="Group_1099808" data-name="Group 1099808" transform="translate(0 0)">
        <g id="Group_1099775" data-name="Group 1099775" transform="translate(0 0)">
          <g id="Group_1099770" data-name="Group 1099770">
            <g id="Rectangle_401345" data-name="Rectangle 401345" stroke="#614c8d" stroke-width="5" fill="url(#linear-gradient)">
              <rect width="99" height="99" rx="10" stroke="none"/>
              <rect x="-2.5" y="-2.5" width="104" height="104" rx="12.5" fill="none"/>
            </g>
          </g>
        </g>
        <g id="Group_1099776" data-name="Group 1099776" transform="translate(11.22 11.103)">
          <g id="Group_1099618" data-name="Group 1099618" transform="translate(0 0)">
            <rect id="Rectangle_401104" data-name="Rectangle 401104" width="75.681" height="76.593" transform="translate(0)" fill="none"/>
          </g>
          <path id="Path_912822" data-name="Path 912822" d="M72.733,97.057H69.859v-4.7a1.181,1.181,0,0,0-1.181-1.181H54.445V87.663H57.32a2.954,2.954,0,0,0,2.95-2.95V76.6a2.954,2.954,0,0,0-2.95-2.95H54.445v-4.7a1.182,1.182,0,0,0-1.181-1.181H39.026v-3.52H41.9a2.954,2.954,0,0,0,2.95-2.95V53.19a2.954,2.954,0,0,0-2.95-2.95H33.789a2.954,2.954,0,0,0-2.95,2.95V61.3a2.954,2.954,0,0,0,2.95,2.95h2.875v3.52H22.43a1.181,1.181,0,0,0-1.181,1.181v4.7H18.374a2.954,2.954,0,0,0-2.95,2.95v8.112a2.954,2.954,0,0,0,2.95,2.95h2.875V91.18H7.007a1.182,1.182,0,0,0-1.181,1.181v4.7H2.95A2.954,2.954,0,0,0,0,100.009v8.112a2.954,2.954,0,0,0,2.95,2.95h8.112a2.954,2.954,0,0,0,2.95-2.95v-8.112a2.954,2.954,0,0,0-2.95-2.95H8.188V93.544H36.659v3.515H33.784a2.954,2.954,0,0,0-2.95,2.95v8.112a2.954,2.954,0,0,0,2.95,2.95H41.9a2.954,2.954,0,0,0,2.95-2.95v-8.112a2.954,2.954,0,0,0-2.95-2.95H39.021V93.544H67.493v3.515H64.618a2.954,2.954,0,0,0-2.95,2.95v8.112a2.954,2.954,0,0,0,2.95,2.95H72.73a2.954,2.954,0,0,0,2.95-2.95v-8.112A2.95,2.95,0,0,0,72.733,97.057ZM33.2,61.3V53.19a.6.6,0,0,1,.587-.587H41.9a.6.6,0,0,1,.587.587V61.3a.6.6,0,0,1-.587.587H33.786A.6.6,0,0,1,33.2,61.3ZM11.65,100.008v8.112a.587.587,0,0,1-.587.587H2.95a.6.6,0,0,1-.587-.587v-8.112a.6.6,0,0,1,.587-.587h8.112A.587.587,0,0,1,11.65,100.008Zm30.835,0v8.112a.6.6,0,0,1-.587.587H33.786a.6.6,0,0,1-.587-.587v-8.112a.6.6,0,0,1,.587-.587H41.9A.6.6,0,0,1,42.485,100.008ZM57.9,76.6v8.112a.6.6,0,0,1-.587.587H49.2a.6.6,0,0,1-.587-.587V76.6a.6.6,0,0,1,.587-.587h8.112A.6.6,0,0,1,57.9,76.6Zm-40.12,8.112V76.6a.6.6,0,0,1,.587-.587h8.112a.6.6,0,0,1,.587.587v8.112a.6.6,0,0,1-.587.587H18.371A.594.594,0,0,1,17.784,84.713Zm5.824,2.95h2.875a2.954,2.954,0,0,0,2.95-2.95V76.6a2.954,2.954,0,0,0-2.95-2.95H23.608V70.135H52.08V73.65H49.2a2.954,2.954,0,0,0-2.95,2.95v8.112a2.954,2.954,0,0,0,2.95,2.95H52.08v3.515H23.608ZM73.32,108.12a.6.6,0,0,1-.587.587H64.621a.6.6,0,0,1-.587-.587v-8.112a.6.6,0,0,1,.587-.587h8.112a.6.6,0,0,1,.587.587Z" transform="translate(0 -42.36)" fill="#182e68"/>
        </g>
      </g>
    </g>
  </g>
</svg>
