<svg xmlns="http://www.w3.org/2000/svg" width="152" height="152" viewBox="0 0 152 152">
  <g id="Group_1109027" data-name="Group 1109027" transform="translate(-317 -4479)">
    <g id="Group_1103900" data-name="Group 1103900" transform="translate(317 4479)">
      <g id="Rectangle_401345" data-name="Rectangle 401345" transform="translate(0)" fill="#fff" stroke="#ffcff3" stroke-width="5">
        <rect width="152" height="152" rx="10" stroke="none"/>
        <rect x="2.5" y="2.5" width="147" height="147" rx="7.5" fill="none"/>
      </g>
      <g id="Group_1099758" data-name="Group 1099758" transform="translate(29.471 30.923)">
        <rect id="Rectangle_401104" data-name="Rectangle 401104" width="92.476" height="92.476" transform="translate(0 0)" fill="none"/>
        <g id="_x31_75" transform="translate(-2.502 -0.616)">
          <g id="Group_1122222" data-name="Group 1122222" transform="translate(2.502 4.537)">
            <g id="Group_1122220" data-name="Group 1122220" transform="translate(23.938 5.199)">
              <path id="Path_912841" data-name="Path 912841" d="M14.926,7.235V31.144H83.463V10.818A3.583,3.583,0,0,0,79.88,7.235Z" transform="translate(-14.926 -7.235)" fill="#f2c341"/>
            </g>
            <g id="Group_1122221" data-name="Group 1122221">
              <path id="Path_912842" data-name="Path 912842" d="M94.977,22.2V75A3.578,3.578,0,0,1,91.4,78.574H6.08A3.578,3.578,0,0,1,2.5,75V8.115A3.578,3.578,0,0,1,6.08,4.537H31.219A3.578,3.578,0,0,1,34.261,6.23l6.629,10.7a3.578,3.578,0,0,0,3.041,1.693H91.393A3.583,3.583,0,0,1,94.977,22.2Z" transform="translate(-2.502 -4.537)" fill="#ffd54f"/>
            </g>
          </g>
          <g id="Group_1122227" data-name="Group 1122227" transform="translate(50.428 35.893)">
            <g id="Group_1122223" data-name="Group 1122223" transform="translate(0 22.031)">
              <path id="Path_912843" data-name="Path 912843" d="M65.691,36.337V59.4A4.092,4.092,0,0,1,61.6,63.493H31.469A4.092,4.092,0,0,1,27.377,59.4V36.337a4.092,4.092,0,0,1,4.092-4.092H61.6A4.092,4.092,0,0,1,65.691,36.337Z" transform="translate(-27.377 -32.245)" fill="#2196f3"/>
            </g>
            <g id="Group_1122225" data-name="Group 1122225" transform="translate(5.084)">
              <g id="Group_1122224" data-name="Group 1122224">
                <path id="Path_912844" data-name="Path 912844" d="M58.163,42.842H52.507V34.885a8.418,8.418,0,0,0-16.836,0v7.957H30.015V34.885a14.074,14.074,0,0,1,28.148,0Z" transform="translate(-30.015 -20.811)" fill="#455a64"/>
              </g>
            </g>
            <g id="Group_1122226" data-name="Group 1122226" transform="translate(14.526 30.144)">
              <path id="Path_912845" data-name="Path 912845" d="M41.854,45.1l1.236,6.374h-7.1L37.24,45.1a4.631,4.631,0,1,1,4.614,0Z" transform="translate(-34.916 -36.456)" fill="#455a64"/>
            </g>
          </g>
        </g>
      </g>
    </g>
  </g>
</svg>
