<svg xmlns="http://www.w3.org/2000/svg" width="151" height="151" viewBox="0 0 151 151">
  <g id="Group_1108991" data-name="Group 1108991" transform="translate(-181.568 -7375.496)">
    <g id="Group_1099775" data-name="Group 1099775" transform="translate(181.568 7375.496)">
      <g id="Group_1099770" data-name="Group 1099770" transform="translate(0 0)">
        <g id="Rectangle_401345" data-name="Rectangle 401345" transform="translate(0 0)" fill="#fff" stroke="#daf5fe" stroke-width="5">
          <rect width="151" height="151" rx="10" stroke="none"/>
          <rect x="2.5" y="2.5" width="146" height="146" rx="7.5" fill="none"/>
        </g>
      </g>
    </g>
    <g id="Group_1099776" data-name="Group 1099776" transform="translate(207.569 7399.496)">
      <g id="Group_1099618" data-name="Group 1099618" transform="translate(0 0)">
        <rect id="Rectangle_401104" data-name="Rectangle 401104" width="100.171" height="101.377" transform="translate(0)" fill="none"/>
      </g>
      <path id="Path_912807" data-name="Path 912807" d="M120.117,60.827a1.511,1.511,0,0,1-.33,2.111l-5.919,4.339a1.513,1.513,0,0,1-2.041-.236l-2.358-2.762a1.511,1.511,0,0,1,2.294-1.965l1.445,1.7L118,60.5A1.516,1.516,0,0,1,120.117,60.827Zm0-11.865a1.511,1.511,0,0,1-.33,2.111l-5.919,4.339a1.515,1.515,0,0,1-2.041-.234l-2.358-2.761a1.511,1.511,0,1,1,2.294-1.966l1.445,1.7L118,48.638a1.518,1.518,0,0,1,2.117.324ZM58.324,52.774a4.169,4.169,0,0,1-3.866-2.637H62.19A4.17,4.17,0,0,1,58.324,52.774Zm0-12.238,3.232,6.579H55.091Zm25.351,6.579H77.21l3.232-6.579Zm-3.232,5.659a4.169,4.169,0,0,1-3.866-2.637h7.732A4.157,4.157,0,0,1,80.442,52.774Zm-2.865,8.773a1.508,1.508,0,0,0-1.508-1.511H70.9V38.62h7.124l-4.588,9.339a1.473,1.473,0,0,0-.152.667,7.168,7.168,0,1,0,14.336,0,1.659,1.659,0,0,0-.152-.667L81.8,36.444a1.5,1.5,0,0,0-1.356-.846H58.324a1.5,1.5,0,0,0-1.356.846L51.314,47.959a1.482,1.482,0,0,0-.165.667,7.174,7.174,0,0,0,14.349,0,1.482,1.482,0,0,0-.165-.667L60.745,38.62h7.124V60.035H62.7a1.511,1.511,0,0,0,0,3.022H76.069a1.506,1.506,0,0,0,1.508-1.511Zm53.934,39.107a3.641,3.641,0,0,1-1.7,2.2l-22.245,12.717c-5.007,2.865-7.124,3-12.739,3.368-8.634.562-17-.43-25.5-1.125a1.469,1.469,0,0,0-.33.008l-7.086.938V100.541h1.673a1.661,1.661,0,0,0,1.078-.405c6.274-5.561,13.081-6.1,22.081-1.728a1.7,1.7,0,0,0,.71.161h15.211a3.625,3.625,0,0,1,2.573,6.17H86.59a1.611,1.611,0,1,0,0,3.223l19.432-.012.609-.2,19.584-11.194A3.631,3.631,0,0,1,131.512,100.654ZM58.894,121.285a.591.591,0,0,1-.583.584H53.875a.591.591,0,0,1-.583-.584V97.769a.591.591,0,0,1,.583-.584h4.436a.591.591,0,0,1,.583.584ZM129.813,93.1a6.806,6.806,0,0,0-5.2.657l-15.109,8.636v-.2a6.852,6.852,0,0,0-6.845-6.847H87.819A26.951,26.951,0,0,0,75.233,92.31a19.871,19.871,0,0,0-12.244,5.008h-1.1a3.609,3.609,0,0,0-3.575-3.155H53.875a3.612,3.612,0,0,0-3.6,3.606v23.516a3.612,3.612,0,0,0,3.6,3.606h4.436a3.6,3.6,0,0,0,3.524-2.873l7.415-.983c1.61.127,3.232.268,4.8.4a134.858,134.858,0,0,0,20.978.709c5.818-.377,8.48-.55,14.133-3.783l22.245-12.718a6.85,6.85,0,0,0-1.6-12.546Zm-9.7-56a1.513,1.513,0,0,1-.33,2.113l-5.919,4.339a1.514,1.514,0,0,1-2.041-.236l-2.358-2.762a1.511,1.511,0,0,1,2.294-1.966l1.445,1.7L118,36.773A1.517,1.517,0,0,1,120.117,37.1Zm11.674,32.742a1.245,1.245,0,0,0,1.242-1.245v-26.9h-5.919a4.274,4.274,0,0,1-4.272-4.269V31.5H107.327a1.247,1.247,0,0,0-1.242,1.247V68.595a1.245,1.245,0,0,0,1.242,1.245h24.464Zm-5.932-36.2,5.032,5.032h-3.777a1.257,1.257,0,0,1-1.255-1.247Zm-77.6,15.688A21.13,21.13,0,1,0,69.389,28.2,21.148,21.148,0,0,0,48.259,49.329Zm87.347-10.215L125.415,28.925a1.485,1.485,0,0,0-1.065-.443H107.327a4.271,4.271,0,0,0-4.259,4.269V68.595a4.27,4.27,0,0,0,4.259,4.267H118.38v6.561H70.9V73.431a24.153,24.153,0,1,0-3.029,0v7.5a1.518,1.518,0,0,0,1.521,1.511H93.131v9.129a1.508,1.508,0,1,0,3.017,0V82.444H119.9a1.508,1.508,0,0,0,1.508-1.511V72.861h10.381a4.27,4.27,0,0,0,4.259-4.267V40.183a1.483,1.483,0,0,0-.444-1.07Z" transform="translate(-40.555 -24.346)" fill="#182e68" fill-rule="evenodd"/>
    </g>
  </g>
</svg>
