<svg xmlns="http://www.w3.org/2000/svg" width="151" height="151" viewBox="0 0 151 151">
  <g id="Group_1108991" data-name="Group 1108991" transform="translate(-181.568 -7375.496)">
    <g id="Group_1099775" data-name="Group 1099775" transform="translate(181.568 7375.496)">
      <g id="Group_1099770" data-name="Group 1099770" transform="translate(0 0)">
        <g id="Rectangle_401345" data-name="Rectangle 401345" transform="translate(0 0)" fill="#fff" stroke="#daf5fe" stroke-width="5">
          <rect width="151" height="151" rx="10" stroke="none"/>
          <rect x="2.5" y="2.5" width="146" height="146" rx="7.5" fill="none"/>
        </g>
      </g>
    </g>
    <g id="Group_1099776" data-name="Group 1099776" transform="translate(207.569 7399.496)">
      <g id="Group_1099618" data-name="Group 1099618" transform="translate(0 0)">
        <rect id="Rectangle_401104" data-name="Rectangle 401104" width="100.171" height="101.377" transform="translate(0)" fill="none"/>
      </g>
      <g id="ICON" transform="translate(-9.5 -1.53)">
        <path id="Path_912796" data-name="Path 912796" d="M36.2,6.855H23.99A5.139,5.139,0,0,0,18.85,12v8.568H8.568A8.569,8.569,0,0,0,0,29.131V39.413a8.571,8.571,0,0,0,5.141,7.855v4.853A8.571,8.571,0,0,0,0,59.976V70.257a8.571,8.571,0,0,0,5.141,7.855v4.853A8.571,8.571,0,0,0,0,90.82V101.1a8.569,8.569,0,0,0,8.568,8.568H63.4a8.571,8.571,0,0,0,7.855-5.141H97.675a5.139,5.139,0,0,0,5.141-5.141V70.041a6.854,6.854,0,1,0-3.427,0V99.388a1.712,1.712,0,0,1-1.714,1.714h-25.7V94.248h12a5.139,5.139,0,0,0,5.141-5.141V80.323a6.854,6.854,0,1,0-3.427,0v8.784a1.712,1.712,0,0,1-1.714,1.714h-12a8.571,8.571,0,0,0-5.141-7.855V78.113a8.571,8.571,0,0,0,5.141-7.855V66.83a1.714,1.714,0,1,0-3.427,0v3.427A5.14,5.14,0,0,1,63.4,75.4H8.568a5.14,5.14,0,0,1-5.141-5.141V59.976a5.14,5.14,0,0,1,5.141-5.141H54.835a1.714,1.714,0,1,0,0-3.427H8.568V47.981h42.84a1.714,1.714,0,0,0,0-3.427H8.568a5.14,5.14,0,0,1-5.141-5.141V29.131A5.14,5.14,0,0,1,8.568,23.99H44.553a1.714,1.714,0,1,0,0-3.427H22.277V12a1.712,1.712,0,0,1,1.714-1.714H36.2a6.854,6.854,0,1,0,0-3.427Zm27.2,99.388H8.568A5.14,5.14,0,0,1,3.427,101.1V90.82A5.14,5.14,0,0,1,8.568,85.68H63.4a5.14,5.14,0,0,1,5.141,5.141V101.1A5.14,5.14,0,0,1,63.4,106.243ZM17.136,95.961A5.141,5.141,0,1,0,12,101.1,5.143,5.143,0,0,0,17.136,95.961Zm20.563,0a5.141,5.141,0,1,0-5.141,5.141A5.143,5.143,0,0,0,37.7,95.961Zm-10.282,0a5.141,5.141,0,1,0-5.141,5.141A5.143,5.143,0,0,0,27.417,95.961ZM42.84,97.675H61.689a1.714,1.714,0,1,0,0-3.427H42.84a1.714,1.714,0,1,0,0,3.427ZM13.709,95.961A1.714,1.714,0,1,1,12,94.248,1.714,1.714,0,0,1,13.709,95.961Zm20.563,0a1.714,1.714,0,1,1-1.714-1.714A1.714,1.714,0,0,1,34.272,95.961Zm-10.282,0a1.714,1.714,0,1,1-1.714-1.714A1.714,1.714,0,0,1,23.99,95.961ZM63.4,78.825H8.568v3.427H63.4Zm23.99-1.714a3.427,3.427,0,1,1,3.427-3.427A3.426,3.426,0,0,1,87.393,77.112Zm-70.257-12A5.141,5.141,0,1,0,12,70.257,5.143,5.143,0,0,0,17.136,65.117Zm20.563,0a5.141,5.141,0,1,0-5.141,5.141A5.143,5.143,0,0,0,37.7,65.117Zm-10.282,0a5.141,5.141,0,1,0-5.141,5.141A5.143,5.143,0,0,0,27.417,65.117Zm-3.427,0A1.714,1.714,0,1,1,22.277,63.4,1.714,1.714,0,0,1,23.99,65.117Zm-10.282,0A1.714,1.714,0,1,1,12,63.4,1.714,1.714,0,0,1,13.709,65.117Zm20.563,0A1.714,1.714,0,1,1,32.558,63.4,1.714,1.714,0,0,1,34.272,65.117ZM101.1,66.83a3.427,3.427,0,1,1,3.427-3.427A3.426,3.426,0,0,1,101.1,66.83Zm-58.262,0H61.689a1.714,1.714,0,1,0,0-3.427H42.84a1.714,1.714,0,1,0,0,3.427ZM81.375,64.9l4.056-2.264c16.817-9.385,26.18-27.325,23.9-45.71a1.714,1.714,0,0,0-.853-1.278L81.387.225a1.709,1.709,0,0,0-1.695,0L52.6,15.647a1.709,1.709,0,0,0-.853,1.278c-2.279,18.385,7.082,36.325,23.9,45.71L79.7,64.9A1.715,1.715,0,0,0,81.375,64.9Zm2.385-5.256-3.222,1.8-3.222-1.8C62.006,51.1,53.329,34.916,55.053,18.2c0,0,25.486-14.511,25.486-14.511l25.488,14.509C107.749,34.916,99.071,51.1,83.76,59.643Zm-4.75-2.982,0,0,.679.38a1.716,1.716,0,0,0,1.7,0l.68-.379h0l.024-.012c13.294-7.42,21.144-21.055,20.707-35.4a1.714,1.714,0,0,0-.865-1.438L81.385,8.112a1.709,1.709,0,0,0-1.695,0l-20.544,11.7a1.714,1.714,0,0,0-.865,1.438c-.437,14.35,7.413,27.985,20.707,35.4Zm1.529-3.072C68.763,46.965,61.66,35.011,61.691,22.3L80.539,11.574,99.387,22.3C99.417,35.011,92.315,46.965,80.539,53.589Zm-63.4-19.317A5.141,5.141,0,1,0,12,39.413,5.143,5.143,0,0,0,17.136,34.272Zm20.563,0a5.141,5.141,0,1,0-5.141,5.141A5.143,5.143,0,0,0,37.7,34.272Zm-10.282,0a5.141,5.141,0,1,0-5.141,5.141A5.143,5.143,0,0,0,27.417,34.272Zm51.408-.293v3.647a1.714,1.714,0,1,0,3.427,0V33.979a5.141,5.141,0,1,0-3.427,0ZM42.84,35.986h3.427a1.714,1.714,0,1,0,0-3.427H42.84a1.714,1.714,0,0,0,0,3.427ZM23.99,34.272a1.714,1.714,0,1,1-1.714-1.714A1.714,1.714,0,0,1,23.99,34.272Zm-10.282,0A1.714,1.714,0,1,1,12,32.558,1.714,1.714,0,0,1,13.709,34.272Zm20.563,0a1.714,1.714,0,1,1-1.714-1.714A1.714,1.714,0,0,1,34.272,34.272Zm46.3-3.427a1.714,1.714,0,1,0-.075,0h.038A.277.277,0,0,1,80.576,30.845ZM39.413,8.568A3.427,3.427,0,1,1,42.84,12,3.428,3.428,0,0,1,39.413,8.568Z" fill="#182e68" fill-rule="evenodd"/>
      </g>
    </g>
  </g>
</svg>
