<svg xmlns="http://www.w3.org/2000/svg" xmlns:xlink="http://www.w3.org/1999/xlink" width="129" height="128" viewBox="0 0 129 128">
  <defs>
    <clipPath id="clip-path">
      <rect id="Rectangle_400938" data-name="Rectangle 400938" width="120" height="120" fill="none"/>
    </clipPath>
    <clipPath id="clip-path-2">
      <rect id="Rectangle_401139" data-name="Rectangle 401139" width="129" height="128" transform="translate(389 2749)" fill="#8f006f"/>
    </clipPath>
  </defs>
  <g id="Group_1122318" data-name="Group 1122318" transform="translate(-389 -1078)">
    <g id="Group_1099488" data-name="Group 1099488" transform="translate(0 -1671)">
      <g id="Grupo_108927" data-name="Grupo 108927" transform="translate(-1 -1718)">
        <path id="Rectángulo_36179" data-name="Rectángulo 36179" d="M0,0H129V128H0Z" transform="translate(390 4467)" fill="#0653ae"/>
      </g>
      <g id="Mask_Group_1098688" data-name="Mask Group 1098688" clip-path="url(#clip-path-2)">
        <path id="Path_878164" data-name="Path 878164" d="M195.281,0h1.95l-.293,3.327,2.755-2.1.988,1.694-3.133,1.536,3.133,1.621-.988,1.708-2.755-2.171.293,3.39h-1.95l.365-3.45L192.88,7.7,191.9,6l3.048-1.536-3.121-1.45.988-1.694,2.815,2.047Z" transform="translate(204.529 2754.341)" fill="#dbccfc"/>
        <path id="Path_878165" data-name="Path 878165" d="M207.27,0h1.95l-.293,3.327,2.755-2.1.988,1.694-3.133,1.536,3.133,1.621-.988,1.708-2.755-2.171.293,3.39h-1.95l.365-3.45L204.869,7.7,203.894,6l3.047-1.536-3.121-1.45.988-1.694,2.815,2.047Z" transform="translate(207.238 2754.341)" fill="#dbccfc"/>
        <path id="Path_878166" data-name="Path 878166" d="M219.26,0h1.95l-.293,3.327,2.755-2.1.988,1.694-3.133,1.536,3.133,1.621-.988,1.708-2.755-2.171.293,3.39h-1.95l.365-3.45L216.858,7.7,215.884,6l3.046-1.536-3.12-1.45.987-1.694,2.816,2.047Z" transform="translate(209.945 2754.341)" fill="#dbccfc"/>
        <path id="Path_878167" data-name="Path 878167" d="M231.249,0h1.95l-.293,3.327,2.755-2.1.988,1.694-3.133,1.536,3.133,1.621-.988,1.708-2.755-2.171.293,3.39h-1.95l.365-3.45L228.848,7.7,227.873,6l3.048-1.536L227.8,3.011l.988-1.694L231.6,3.364Z" transform="translate(212.654 2754.341)" fill="#dbccfc"/>
        <path id="Path_878168" data-name="Path 878168" d="M243.239,0h1.95L244.9,3.327l2.755-2.1.987,1.694-3.132,1.536,3.132,1.621-.987,1.708L244.9,5.618l.293,3.39h-1.95l.365-3.45L240.837,7.7,239.863,6l3.046-1.536-3.12-1.45.987-1.694,2.816,2.047Z" transform="translate(215.361 2754.341)" fill="#dbccfc"/>
        <path id="Path_878169" data-name="Path 878169" d="M195.281,0h1.95l-.293,3.327,2.755-2.1.988,1.694-3.133,1.536,3.133,1.621-.988,1.708-2.755-2.171.293,3.39h-1.95l.365-3.45L192.88,7.7,191.9,6l3.048-1.536-3.121-1.45.988-1.694,2.815,2.047Z" transform="translate(250.529 2861.341)" fill="#dbccfc"/>
        <path id="Path_878170" data-name="Path 878170" d="M207.27,0h1.95l-.293,3.327,2.755-2.1.988,1.694-3.133,1.536,3.133,1.621-.988,1.708-2.755-2.171.293,3.39h-1.95l.365-3.45L204.869,7.7,203.894,6l3.047-1.536-3.121-1.45.988-1.694,2.815,2.047Z" transform="translate(253.238 2861.341)" fill="#dbccfc"/>
        <path id="Path_878171" data-name="Path 878171" d="M219.26,0h1.95l-.293,3.327,2.755-2.1.988,1.694-3.133,1.536,3.133,1.621-.988,1.708-2.755-2.171.293,3.39h-1.95l.365-3.45L216.858,7.7,215.884,6l3.046-1.536-3.12-1.45.987-1.694,2.816,2.047Z" transform="translate(255.945 2861.341)" fill="#dbccfc"/>
        <path id="Path_878172" data-name="Path 878172" d="M231.249,0h1.95l-.293,3.327,2.755-2.1.988,1.694-3.133,1.536,3.133,1.621-.988,1.708-2.755-2.171.293,3.39h-1.95l.365-3.45L228.848,7.7,227.873,6l3.048-1.536L227.8,3.011l.988-1.694L231.6,3.364Z" transform="translate(258.654 2861.341)" fill="#dbccfc"/>
        <path id="Path_878173" data-name="Path 878173" d="M243.239,0h1.95L244.9,3.327l2.755-2.1.987,1.694-3.132,1.536,3.132,1.621-.987,1.708L244.9,5.618l.293,3.39h-1.95l.365-3.45L240.837,7.7,239.863,6l3.046-1.536-3.12-1.45.987-1.694,2.816,2.047Z" transform="translate(261.361 2861.341)" fill="#dbccfc"/>
      </g>
    </g>
    <g id="Group_1099484" data-name="Group 1099484" transform="translate(407.875 1095.719)">
      <rect id="Rectangle_401104" data-name="Rectangle 401104" width="92" height="94" transform="translate(0.124 -0.719)" fill="none"/>
      <g id="Group_1122214" data-name="Group 1122214" transform="translate(5.124 4.832)">
        <path id="Path_912797" data-name="Path 912797" d="M74.564,67.49a7.389,7.389,0,0,0-3.089.674L63.008,59.7q.938-1.36,1.735-2.753a31.8,31.8,0,0,0,4.344-15.921V21.249L65.8,19.765l5.245-5.245a7.447,7.447,0,1,0-3.273-3.531L61.108,17.65,40.9,8.538,20.922,17.611l-6.669-6.669A7.442,7.442,0,1,0,11,14.5l5.24,5.24L12.9,21.253V41.024a31.667,31.667,0,0,0,4.314,15.8q.833,1.464,1.824,2.9l-8.467,8.467a7.448,7.448,0,1,0,3.471,3.333l7.977-7.977A51.593,51.593,0,0,0,26.5,68.073,66.774,66.774,0,0,0,41,77.654a67.247,67.247,0,0,0,14.388-9.466,50.758,50.758,0,0,0,4.643-4.664l7.949,7.949a7.435,7.435,0,1,0,6.584-3.983Zm0-62.145a2.626,2.626,0,1,1-2.626,2.626,2.629,2.629,0,0,1,2.626-2.626ZM4.811,7.971A2.626,2.626,0,1,1,7.437,10.6,2.629,2.629,0,0,1,4.811,7.971ZM7.437,77.553a2.626,2.626,0,1,1,2.626-2.626A2.629,2.629,0,0,1,7.437,77.553ZM52.294,64.5A57.509,57.509,0,0,1,41,72.318a58.227,58.227,0,0,1-11.382-7.91,40.586,40.586,0,0,1-8.255-10.023,26.9,26.9,0,0,1-3.651-13.361V24.352l23.2-10.534L64.277,24.357V41.024A27.033,27.033,0,0,1,60.6,54.5a40.039,40.039,0,0,1-8.306,10Zm22.27,13.052a2.626,2.626,0,1,1,2.626-2.626A2.629,2.629,0,0,1,74.564,77.553Z" transform="translate(0)" fill="#fff"/>
        <path id="Path_912798" data-name="Path 912798" d="M162.5,151.705a17.823,17.823,0,1,0,17.823,17.823A17.843,17.843,0,0,0,162.5,151.705Zm0,30.835a13.012,13.012,0,1,1,13.012-13.012A13.027,13.027,0,0,1,162.5,182.54Z" transform="translate(-121.506 -126.96)" fill="#fff"/>
        <path id="Path_912799" data-name="Path 912799" d="M213.487,228.33l-2.789-2.79-3.4,3.4,6.191,6.192,9.4-9.4-3.4-3.4Z" transform="translate(-174.096 -186.278)" fill="#fff"/>
      </g>
    </g>
  </g>
</svg>
