<svg xmlns="http://www.w3.org/2000/svg" xmlns:xlink="http://www.w3.org/1999/xlink" width="109" height="109" viewBox="0 0 109 109">
  <defs>
    <linearGradient id="linear-gradient" x1="0.5" x2="0.5" y2="1" gradientUnits="objectBoundingBox">
      <stop offset="0" stop-color="#ddf1ff"/>
      <stop offset="1" stop-color="#fff"/>
    </linearGradient>
  </defs>
  <g id="Group_1122140" data-name="Group 1122140" transform="translate(-950.878 -9141.342)">
    <g id="Group_1099855" data-name="Group 1099855" transform="translate(955.878 9146.342)">
      <g id="Group_1099808" data-name="Group 1099808" transform="translate(0 0)">
        <g id="Group_1099775" data-name="Group 1099775" transform="translate(0 0)">
          <g id="Group_1099770" data-name="Group 1099770">
            <g id="Rectangle_401345" data-name="Rectangle 401345" stroke="#614c8d" stroke-width="5" fill="url(#linear-gradient)">
              <rect width="99" height="99" rx="10" stroke="none"/>
              <rect x="-2.5" y="-2.5" width="104" height="104" rx="12.5" fill="none"/>
            </g>
          </g>
        </g>
        <g id="Group_1099776" data-name="Group 1099776" transform="translate(11.22 11.103)">
          <g id="Group_1099618" data-name="Group 1099618" transform="translate(0 0)">
            <rect id="Rectangle_401104" data-name="Rectangle 401104" width="75.681" height="76.593" transform="translate(0)" fill="none"/>
          </g>
          <g id="Group_1122219" data-name="Group 1122219" transform="translate(-1 -0.558)">
            <path id="Path_912823" data-name="Path 912823" d="M14.359,7.035a7.324,7.324,0,1,0,7.324,7.324A7.331,7.331,0,0,0,14.359,7.035Zm0,12.207a4.883,4.883,0,1,1,4.883-4.883A4.888,4.888,0,0,1,14.359,19.242Z" transform="translate(1.332 1.324)" fill="#182e68"/>
            <path id="Path_912824" data-name="Path 912824" d="M60.226,49.019,58.5,47.293l-8.9,8.9-1.578-1.578-1.726,1.726,3.3,3.3Z" transform="translate(9.994 10.207)" fill="#182e68"/>
            <path id="Path_912825" data-name="Path 912825" d="M35,12h2.441v2.441H35Z" transform="translate(7.502 2.419)" fill="#182e68"/>
            <path id="Path_912826" data-name="Path 912826" d="M47,12h2.441v2.441H47Z" transform="translate(10.15 2.419)" fill="#182e68"/>
            <path id="Path_912827" data-name="Path 912827" d="M43,12h2.441v2.441H43Z" transform="translate(9.268 2.419)" fill="#182e68"/>
            <path id="Path_912828" data-name="Path 912828" d="M39,12h2.441v2.441H39Z" transform="translate(8.385 2.419)" fill="#182e68"/>
            <path id="Path_912829" data-name="Path 912829" d="M29.075,44.936h19.53a3.666,3.666,0,0,0,3.662-3.662V40.053H68.136a8.555,8.555,0,0,0,8.545-8.545V22.964a8.555,8.555,0,0,0-8.545-8.545H64.474V13.2a3.666,3.666,0,0,0-3.662-3.662H41.282A3.666,3.666,0,0,0,37.62,13.2v1.221H30.338V12.31l-3.2-.875c-.1-.281-.222-.56-.349-.836l1.649-2.888-4.77-4.77L20.777,4.588c-.277-.127-.555-.244-.836-.349l-.876-3.2H12.318l-.876,3.2q-.421.157-.835.349L7.718,2.94l-4.77,4.77L4.6,10.6c-.127.276-.244.555-.349.836l-3.2.875v6.745l3.2.876c.1.281.222.56.349.836L2.947,23.656l4.77,4.769,2.888-1.648c.276.127.554.244.835.349l.876,3.2h6.747l.876-3.2c.28-.1.559-.222.836-.349l2.887,1.647,4.77-4.769-1.649-2.888c.127-.276.244-.555.349-.836l3.2-.876V16.861H37.62v1.221a3.666,3.666,0,0,0,3.662,3.662h19.53a3.666,3.666,0,0,0,3.662-3.662V16.861h3.662a6.11,6.11,0,0,1,6.1,6.1v8.545a6.11,6.11,0,0,1-6.1,6.1H52.268V36.391a3.666,3.666,0,0,0-3.662-3.662H29.075a3.666,3.666,0,0,0-3.662,3.662v1.221H9.545A8.556,8.556,0,0,0,1,46.157v9.765a8.556,8.556,0,0,0,8.545,8.545h3.662v1.221a3.666,3.666,0,0,0,3.662,3.662H36.4a3.666,3.666,0,0,0,3.662-3.662V64.466h9.827a13.427,13.427,0,1,0,0-2.441H40.061V60.8A3.666,3.666,0,0,0,36.4,57.142H16.869A3.666,3.666,0,0,0,13.207,60.8v1.221H9.545a6.11,6.11,0,0,1-6.1-6.1V46.157a6.11,6.11,0,0,1,6.1-6.1H25.413v1.221A3.666,3.666,0,0,0,29.075,44.936ZM27.9,17.193l-2.677.732-.2.641a9.827,9.827,0,0,1-.7,1.672l-.315.593,1.379,2.416-2.134,2.135L20.839,24l-.592.314a9.643,9.643,0,0,1-1.672.7l-.64.2L17.2,27.889H14.183l-.734-2.677-.64-.2a9.706,9.706,0,0,1-1.672-.7L10.544,24,8.129,25.382,5.992,23.247l1.379-2.416-.315-.593a9.729,9.729,0,0,1-.7-1.672l-.2-.641-2.677-.732v-3.02l2.677-.731.2-.641a9.671,9.671,0,0,1,.7-1.671l.315-.594L5.992,8.12,8.126,5.985l2.416,1.378.593-.314a9.777,9.777,0,0,1,1.672-.7l.64-.2.734-2.677H17.2l.734,2.677.64.2a9.713,9.713,0,0,1,1.672.7l.592.314,2.417-1.378L25.387,8.12l-1.379,2.416.315.593a9.576,9.576,0,0,1,.7,1.671l.2.641,2.677.731v3.021Zm34.136.889A1.222,1.222,0,0,1,60.812,19.3H41.282a1.222,1.222,0,0,1-1.221-1.221V13.2a1.222,1.222,0,0,1,1.221-1.221h19.53A1.222,1.222,0,0,1,62.033,13.2ZM63.253,52.26A10.986,10.986,0,1,1,52.268,63.246,11,11,0,0,1,63.253,52.26ZM15.648,60.8a1.221,1.221,0,0,1,1.221-1.221H36.4A1.221,1.221,0,0,1,37.62,60.8v4.883A1.221,1.221,0,0,1,36.4,66.908H16.869a1.221,1.221,0,0,1-1.221-1.221ZM27.854,36.391a1.222,1.222,0,0,1,1.221-1.221h19.53a1.222,1.222,0,0,1,1.221,1.221v4.883a1.221,1.221,0,0,1-1.221,1.221H29.075a1.221,1.221,0,0,1-1.221-1.221Z" fill="#182e68"/>
            <path id="Path_912830" data-name="Path 912830" d="M33,31h2.441v2.441H33Z" transform="translate(7.061 6.612)" fill="#182e68"/>
            <path id="Path_912831" data-name="Path 912831" d="M29,31h2.441v2.441H29Z" transform="translate(6.178 6.612)" fill="#182e68"/>
            <path id="Path_912832" data-name="Path 912832" d="M25,31h2.441v2.441H25Z" transform="translate(5.296 6.612)" fill="#182e68"/>
            <path id="Path_912833" data-name="Path 912833" d="M37,31h2.441v2.441H37Z" transform="translate(7.944 6.612)" fill="#182e68"/>
            <path id="Path_912834" data-name="Path 912834" d="M19,51h2.441v2.441H19Z" transform="translate(3.972 11.025)" fill="#182e68"/>
            <path id="Path_912835" data-name="Path 912835" d="M27,51h2.441v2.441H27Z" transform="translate(5.737 11.025)" fill="#182e68"/>
            <path id="Path_912836" data-name="Path 912836" d="M23,51h2.441v2.441H23Z" transform="translate(4.854 11.025)" fill="#182e68"/>
            <path id="Path_912837" data-name="Path 912837" d="M15,51h2.441v2.441H15Z" transform="translate(3.089 11.025)" fill="#182e68"/>
          </g>
        </g>
      </g>
    </g>
  </g>
</svg>
