<svg xmlns="http://www.w3.org/2000/svg" xmlns:xlink="http://www.w3.org/1999/xlink" width="129" height="128" viewBox="0 0 129 128">
  <defs>
    <clipPath id="clip-path">
      <rect id="Rectangle_400938" data-name="Rectangle 400938" width="120" height="120" fill="none"/>
    </clipPath>
    <clipPath id="clip-path-2">
      <rect id="Rectangle_401139" data-name="Rectangle 401139" width="129" height="128" transform="translate(389 2749)" fill="#8f006f"/>
    </clipPath>
  </defs>
  <g id="Group_1122323" data-name="Group 1122323" transform="translate(-361 -6203)">
    <g id="Group_1122250" data-name="Group 1122250" transform="translate(-28 3454)">
      <g id="Grupo_108927" data-name="Grupo 108927" transform="translate(-1 -1718)">
        <path id="Rectángulo_36179" data-name="Rectángulo 36179" d="M0,0H129V128H0Z" transform="translate(390 4467)" fill="#0653ae"/>
      </g>
      <g id="Mask_Group_1098688" data-name="Mask Group 1098688" clip-path="url(#clip-path-2)">
        <path id="Path_878164" data-name="Path 878164" d="M195.281,0h1.95l-.293,3.327,2.755-2.1.988,1.694-3.133,1.536,3.133,1.621-.988,1.708-2.755-2.171.293,3.39h-1.95l.365-3.45L192.88,7.7,191.9,6l3.048-1.536-3.121-1.45.988-1.694,2.815,2.047Z" transform="translate(204.529 2754.341)" fill="#dbccfc"/>
        <path id="Path_878165" data-name="Path 878165" d="M207.27,0h1.95l-.293,3.327,2.755-2.1.988,1.694-3.133,1.536,3.133,1.621-.988,1.708-2.755-2.171.293,3.39h-1.95l.365-3.45L204.869,7.7,203.894,6l3.047-1.536-3.121-1.45.988-1.694,2.815,2.047Z" transform="translate(207.238 2754.341)" fill="#dbccfc"/>
        <path id="Path_878166" data-name="Path 878166" d="M219.26,0h1.95l-.293,3.327,2.755-2.1.988,1.694-3.133,1.536,3.133,1.621-.988,1.708-2.755-2.171.293,3.39h-1.95l.365-3.45L216.858,7.7,215.884,6l3.046-1.536-3.12-1.45.987-1.694,2.816,2.047Z" transform="translate(209.945 2754.341)" fill="#dbccfc"/>
        <path id="Path_878167" data-name="Path 878167" d="M231.249,0h1.95l-.293,3.327,2.755-2.1.988,1.694-3.133,1.536,3.133,1.621-.988,1.708-2.755-2.171.293,3.39h-1.95l.365-3.45L228.848,7.7,227.873,6l3.048-1.536L227.8,3.011l.988-1.694L231.6,3.364Z" transform="translate(212.654 2754.341)" fill="#dbccfc"/>
        <path id="Path_878168" data-name="Path 878168" d="M243.239,0h1.95L244.9,3.327l2.755-2.1.987,1.694-3.132,1.536,3.132,1.621-.987,1.708L244.9,5.618l.293,3.39h-1.95l.365-3.45L240.837,7.7,239.863,6l3.046-1.536-3.12-1.45.987-1.694,2.816,2.047Z" transform="translate(215.361 2754.341)" fill="#dbccfc"/>
        <path id="Path_878169" data-name="Path 878169" d="M195.281,0h1.95l-.293,3.327,2.755-2.1.988,1.694-3.133,1.536,3.133,1.621-.988,1.708-2.755-2.171.293,3.39h-1.95l.365-3.45L192.88,7.7,191.9,6l3.048-1.536-3.121-1.45.988-1.694,2.815,2.047Z" transform="translate(250.529 2861.341)" fill="#dbccfc"/>
        <path id="Path_878170" data-name="Path 878170" d="M207.27,0h1.95l-.293,3.327,2.755-2.1.988,1.694-3.133,1.536,3.133,1.621-.988,1.708-2.755-2.171.293,3.39h-1.95l.365-3.45L204.869,7.7,203.894,6l3.047-1.536-3.121-1.45.988-1.694,2.815,2.047Z" transform="translate(253.238 2861.341)" fill="#dbccfc"/>
        <path id="Path_878171" data-name="Path 878171" d="M219.26,0h1.95l-.293,3.327,2.755-2.1.988,1.694-3.133,1.536,3.133,1.621-.988,1.708-2.755-2.171.293,3.39h-1.95l.365-3.45L216.858,7.7,215.884,6l3.046-1.536-3.12-1.45.987-1.694,2.816,2.047Z" transform="translate(255.945 2861.341)" fill="#dbccfc"/>
        <path id="Path_878172" data-name="Path 878172" d="M231.249,0h1.95l-.293,3.327,2.755-2.1.988,1.694-3.133,1.536,3.133,1.621-.988,1.708-2.755-2.171.293,3.39h-1.95l.365-3.45L228.848,7.7,227.873,6l3.048-1.536L227.8,3.011l.988-1.694L231.6,3.364Z" transform="translate(258.654 2861.341)" fill="#dbccfc"/>
        <path id="Path_878173" data-name="Path 878173" d="M243.239,0h1.95L244.9,3.327l2.755-2.1.987,1.694-3.132,1.536,3.132,1.621-.987,1.708L244.9,5.618l.293,3.39h-1.95l.365-3.45L240.837,7.7,239.863,6l3.046-1.536-3.12-1.45.987-1.694,2.816,2.047Z" transform="translate(261.361 2861.341)" fill="#dbccfc"/>
      </g>
    </g>
    <g id="Group_1122255" data-name="Group 1122255" transform="translate(379.875 6220.719)">
      <rect id="Rectangle_401104" data-name="Rectangle 401104" width="92" height="94" transform="translate(0.124 -0.719)" fill="none"/>
      <g id="Group_1122310" data-name="Group 1122310" transform="translate(-23.026 -23.674)">
        <path id="Path_913018" data-name="Path 913018" d="M64.946,90.386a5.807,5.807,0,0,1,1.718.257l9.92-18.816-.8.458a1.573,1.573,0,0,1-1.568-2.727l5.917-3.415a1.579,1.579,0,0,1,2.151.577,1.613,1.613,0,0,1,.207.784h.012v6.835a1.581,1.581,0,0,1-3.162,0v-.986L69.307,92.389A5.742,5.742,0,1,1,59.26,95.363L49.388,90a5.421,5.421,0,0,1-.375.415,5.751,5.751,0,0,1-6.8.984l-8.364,9.075A5.728,5.728,0,1,1,31.575,98.3l8.386-9.1a5.739,5.739,0,1,1,10.73-2.832,6.744,6.744,0,0,1-.045.75l9.869,5.358c.118-.14.241-.275.369-.4a5.712,5.712,0,0,1,4.063-1.681ZM66.771,94.3a2.579,2.579,0,1,0,.756,1.825A2.594,2.594,0,0,0,66.771,94.3ZM46.779,84.534a2.579,2.579,0,1,0,.756,1.825A2.594,2.594,0,0,0,46.779,84.534ZM30.712,101.543a2.579,2.579,0,1,0,.756,1.825A2.573,2.573,0,0,0,30.712,101.543ZM93.777,84.131a10.465,10.465,0,1,1-7.4,3.063A10.418,10.418,0,0,1,93.777,84.131Zm5.167,5.3a7.3,7.3,0,1,0,2.145,5.172A7.28,7.28,0,0,0,98.943,89.428ZM95.959,78.809l-.912-2.423H92.505L91.6,78.809a1.569,1.569,0,0,1-1.165.991,15.444,15.444,0,0,0-2.457.784l-.079.034a15.331,15.331,0,0,0-2.246,1.175,1.564,1.564,0,0,1-1.556.073l-2.3-1.041L80,82.616l1.074,2.368a1.576,1.576,0,0,1-.107,1.489v.006a14.833,14.833,0,0,0-1.209,2.313V88.8a15.4,15.4,0,0,0-.79,2.486,1.562,1.562,0,0,1-.986,1.136l-2.423.907v2.548l2.423.907a1.581,1.581,0,0,1,.991,1.165,15.149,15.149,0,0,0,1.993,4.775,1.575,1.575,0,0,1,.073,1.562L80,106.585l1.791,1.791,2.368-1.074a1.576,1.576,0,0,1,1.489.107,15.2,15.2,0,0,0,4.809,2,1.558,1.558,0,0,1,1.136.986l.907,2.423h2.542l.912-2.423a1.561,1.561,0,0,1,1.159-.991,15.105,15.105,0,0,0,4.781-1.993,1.575,1.575,0,0,1,1.562-.073l2.295,1.041,1.8-1.791-1.074-2.368a1.576,1.576,0,0,1,.107-1.489v-.006a14.849,14.849,0,0,0,1.209-2.319.176.176,0,0,1,.034-.073,15.9,15.9,0,0,0,.756-2.413,1.562,1.562,0,0,1,.986-1.136l2.419-.907V93.327l-2.419-.907a1.589,1.589,0,0,1-1-1.165,14.954,14.954,0,0,0-1.987-4.775,1.576,1.576,0,0,1-.079-1.562l1.047-2.3-1.8-1.791L103.393,81.9a1.588,1.588,0,0,1-1.5-.107,15.116,15.116,0,0,0-2.319-1.209,15.4,15.4,0,0,0-2.486-.79,1.574,1.574,0,0,1-1.134-.986Zm1.653-4.552,1,2.67a18.347,18.347,0,0,1,2.178.745,18.757,18.757,0,0,1,2.06,1.007l2.514-1.142a1.585,1.585,0,0,1,1.858.28l3.336,3.336h-.006a1.568,1.568,0,0,1,.324,1.764L109.7,85.526a18.933,18.933,0,0,1,1.007,2.06,17.45,17.45,0,0,1,.739,2.172l2.548.958a1.583,1.583,0,0,1,1.159,1.523v4.72h-.006a1.573,1.573,0,0,1-1.025,1.473l-2.676,1.007a18.515,18.515,0,0,1-.705,2.088c-.012.028-.022.055-.034.085a18.756,18.756,0,0,1-1.007,2.06l1.142,2.514a1.585,1.585,0,0,1-.28,1.858l-3.336,3.336h-.006a1.577,1.577,0,0,1-1.764.32l-2.6-1.181a18.755,18.755,0,0,1-2.06,1.007,18.227,18.227,0,0,1-2.178.745l-.952,2.542a1.578,1.578,0,0,1-1.523,1.159h-4.72v-.006a1.576,1.576,0,0,1-1.477-1.025l-1-2.67a18.428,18.428,0,0,1-4.232-1.752l-2.514,1.142a1.585,1.585,0,0,1-1.858-.28L77,108.044a1.589,1.589,0,0,1-.324-1.764l1.187-2.609a17.9,17.9,0,0,1-1.007-2.06,18.5,18.5,0,0,1-.745-2.172l-2.542-.958a1.576,1.576,0,0,1-1.159-1.523v-4.72h.006a1.573,1.573,0,0,1,1.025-1.473l2.67-1.007a18.254,18.254,0,0,1,.745-2.172,17.768,17.768,0,0,1,1.007-2.06l-1.142-2.514A1.576,1.576,0,0,1,77,81.153l3.336-3.336A1.579,1.579,0,0,1,82.1,77.5l2.609,1.181a18.377,18.377,0,0,1,1.977-.974l.085-.034a18.134,18.134,0,0,1,2.172-.745l.958-2.542a1.578,1.578,0,0,1,1.523-1.159h4.72v.006a1.573,1.573,0,0,1,1.469,1.025ZM67.006,60.125V79A6.337,6.337,0,0,1,54.757,81.52a1.579,1.579,0,0,1,2.951-1.126,3.163,3.163,0,0,0,1.45,1.657,3.185,3.185,0,0,0,4.053-.867,3.155,3.155,0,0,0,.644-2.032,1.711,1.711,0,0,1-.012-.174V60.123a7.427,7.427,0,0,0-13.6.28,1.571,1.571,0,0,1-2.06.851,1.533,1.533,0,0,1-.851-.851c-.055-.14-.122-.275-.186-.409a.478.478,0,0,1-.028-.055,7.426,7.426,0,0,0-13.507.466,1.578,1.578,0,0,1-3.034-.66,34.862,34.862,0,1,1,69.695.1,1.575,1.575,0,0,1-3.028.561h-.006a7.426,7.426,0,0,0-13.507-.466.476.476,0,0,1-.028.055c-.061.134-.122.269-.186.409a1.571,1.571,0,0,1-2.06.851,1.551,1.551,0,0,1-.851-.851,7.429,7.429,0,0,0-10.983-3.332,7.317,7.317,0,0,0-2.621,3.051ZM46.632,54.651A34.7,34.7,0,0,1,59.414,27.673,31.712,31.712,0,0,0,33.953,54.921c.207-.162.421-.32.644-.464a10.561,10.561,0,0,1,11.751,0C46.443,54.522,46.538,54.584,46.632,54.651ZM71.44,27.673A34.675,34.675,0,0,1,84.216,54.651c.095-.067.19-.128.286-.2a10.567,10.567,0,0,1,11.755,0c.219.146.431.3.638.464A31.68,31.68,0,0,0,71.44,27.673ZM81.046,55.6a31.517,31.517,0,0,0-14.04-27.286V55.093c.275-.223.559-.436.863-.638a10.561,10.561,0,0,1,11.751,0A10.879,10.879,0,0,1,81.046,55.6Zm-17.2-.5V28.311A31.517,31.517,0,0,0,49.8,55.6a11.165,11.165,0,0,1,1.428-1.142,10.567,10.567,0,0,1,11.755,0c.3.2.583.415.857.638Z" transform="translate(0)" fill="#fff"/>
      </g>
    </g>
  </g>
</svg>
