<svg xmlns="http://www.w3.org/2000/svg" xmlns:xlink="http://www.w3.org/1999/xlink" width="109" height="109" viewBox="0 0 109 109">
  <defs>
    <linearGradient id="linear-gradient" x1="0.5" x2="0.5" y2="1" gradientUnits="objectBoundingBox">
      <stop offset="0" stop-color="#ddf1ff"/>
      <stop offset="1" stop-color="#fff"/>
    </linearGradient>
  </defs>
  <g id="Group_1122144" data-name="Group 1122144" transform="translate(-950.878 -9141.342)">
    <g id="Group_1099855" data-name="Group 1099855" transform="translate(955.878 9146.342)">
      <g id="Group_1099808" data-name="Group 1099808" transform="translate(0 0)">
        <g id="Group_1099775" data-name="Group 1099775" transform="translate(0 0)">
          <g id="Group_1099770" data-name="Group 1099770">
            <g id="Rectangle_401345" data-name="Rectangle 401345" stroke="#614c8d" stroke-width="5" fill="url(#linear-gradient)">
              <rect width="99" height="99" rx="10" stroke="none"/>
              <rect x="-2.5" y="-2.5" width="104" height="104" rx="12.5" fill="none"/>
            </g>
          </g>
        </g>
        <g id="Group_1099776" data-name="Group 1099776" transform="translate(11.22 11.103)">
          <g id="Group_1099618" data-name="Group 1099618" transform="translate(0 0)">
            <rect id="Rectangle_401104" data-name="Rectangle 401104" width="75.681" height="76.593" transform="translate(0)" fill="none"/>
          </g>
          <path id="Path_912838" data-name="Path 912838" d="M27.109,73.583l1.169,2.066,0,0a3.258,3.258,0,0,1-1.228,4.421l-3.858,2.187,0,0a3.258,3.258,0,0,1-4.421-1.229L7.423,60.985A3.252,3.252,0,0,1,8.645,56.56l3.863-2.187h0A3.261,3.261,0,0,1,16.93,55.6l0,0,.964,1.7,10.232-5.924c3-1.735,6.064-2.877,9.359-1.807,3.253,1.055,8.563,3.327,13.983,4.307a1.218,1.218,0,0,1,.159.04,5.187,5.187,0,0,1,3.55,6.242,5.634,5.634,0,0,1-.611,1.459,7.572,7.572,0,0,0,2.107-.846l13.757-8.012c4.9-2.852,8.155-2.569,10-1.33a5.312,5.312,0,0,1,2.248,4.619A5.256,5.256,0,0,1,80.392,60.4L55.429,75.77a10.338,10.338,0,0,1-8.367,1.189h0L29.44,72.237ZM19.1,59.43l6.807,12.029,2.751-1.589a1.221,1.221,0,0,1,.926-.122L47.691,74.6a7.975,7.975,0,0,0,6.456-.908h0l24.964-15.37a2.714,2.714,0,0,0,1.118-2.13,2.8,2.8,0,0,0-2.167-3.142c-1.48-.31-3.567.171-6.4,1.824L57.9,62.885a10.1,10.1,0,0,1-6.941,1.222h0l-1.706-.278h0l-.049-.009h0c-3.1-.637-5.979-1.574-9.171-2.432a1.221,1.221,0,0,1,.634-2.358c3.126.84,5.944,1.761,8.979,2.388a2.658,2.658,0,0,0,3.179-1.889h0a2.751,2.751,0,0,0-1.873-3.261c-5.511-1.01-10.905-3.3-14.214-4.371h0c-2.611-.848-5,.224-7.382,1.6Zm-4.291-2.624v0a.811.811,0,0,0-1.1-.3L9.848,58.685h0a.8.8,0,0,0-.3,1.1h0L20.893,79.83h0a.809.809,0,0,0,1.1.3l3.855-2.185h0a.809.809,0,0,0,.3-1.1Zm-1.575,2.181A1.6,1.6,0,1,1,11.878,60.8a1.6,1.6,0,0,1,1.355-1.814ZM41.214,37.61A47.95,47.95,0,0,0,30.5,32.67l-.493-.139-.336,1.191a1.986,1.986,0,0,1-3.518.635h0l-5.632-7.745a1.973,1.973,0,0,1,.847-3l8.847-3.665a1.986,1.986,0,0,1,2.669,2.379l-.336,1.191.328.053a60.81,60.81,0,0,1,11.013,4.686V18.235H42.725a1.964,1.964,0,0,1-1.548-3.179h0L46.934,7.75a1.952,1.952,0,0,1,3.087,0l5.757,7.306a1.964,1.964,0,0,1-1.548,3.179H53.063V28.249a96.172,96.172,0,0,1,11.065-4.66l.276-.078-.336-1.191a1.986,1.986,0,0,1,2.669-2.379h0l8.847,3.665a1.973,1.973,0,0,1,.846,3L70.8,34.357a1.986,1.986,0,0,1-3.518-.635l-.336-1.191-.494.139A47.944,47.944,0,0,0,55.74,37.612,42.117,42.117,0,0,1,64.658,54.06a1.221,1.221,0,0,1-2.345.681A39.656,39.656,0,0,0,53.7,39a34.714,34.714,0,0,0-3.516,2.923,35.181,35.181,0,0,1,7.736,13.887,1.221,1.221,0,0,1-2.34.7,32.8,32.8,0,0,0-7.1-12.832,31.666,31.666,0,0,0-4.443,6.314,1.221,1.221,0,0,1-2.152-1.152q6.932-12.945,23.833-18.489l1.742-.492a1.22,1.22,0,0,1,1.506.844l.413,1.467,4.74-6.519-7.446-3.085.413,1.467a1.221,1.221,0,0,1-.844,1.506l-1.451.409a1.215,1.215,0,0,1-.259.043Q45.2,32.25,37.59,47.239a1.221,1.221,0,0,1-2.175-1.109,40.586,40.586,0,0,1,5.8-8.52Zm5.119-7.916q1.1.694,2.143,1.433,1.043-.74,2.146-1.435V17.014a1.221,1.221,0,0,1,1.221-1.221h1.408L48.477,9.736,43.7,15.793h1.408a1.221,1.221,0,0,1,1.221,1.221Zm.09,2.979a54.416,54.416,0,0,0-14-6.69c-.088-.005-1.71-.452-1.71-.452a1.221,1.221,0,0,1-.844-1.506l.413-1.467-7.446,3.085,4.74,6.519.413-1.467A1.22,1.22,0,0,1,29.5,29.85l1.693.477.049.015A50.016,50.016,0,0,1,42.918,35.8,42.48,42.48,0,0,1,46.423,32.673Z" transform="translate(-7.002 -6.539)" fill="#182e68" fill-rule="evenodd"/>
        </g>
      </g>
    </g>
  </g>
</svg>
