<svg xmlns="http://www.w3.org/2000/svg" xmlns:xlink="http://www.w3.org/1999/xlink" width="129" height="128" viewBox="0 0 129 128">
  <defs>
    <clipPath id="clip-path">
      <rect id="Rectangle_400938" data-name="Rectangle 400938" width="120" height="120" fill="none"/>
    </clipPath>
    <clipPath id="clip-path-2">
      <rect id="Rectangle_401139" data-name="Rectangle 401139" width="129" height="128" transform="translate(389 2749)" fill="#8f006f"/>
    </clipPath>
  </defs>
  <g id="Group_1122322" data-name="Group 1122322" transform="translate(-361 -6031)">
    <g id="Group_1103898" data-name="Group 1103898" transform="translate(-28 3282)">
      <g id="Grupo_108927" data-name="Grupo 108927" transform="translate(-1 -1718)">
        <path id="Rectángulo_36179" data-name="Rectángulo 36179" d="M0,0H129V128H0Z" transform="translate(390 4467)" fill="#0653ae"/>
      </g>
      <g id="Mask_Group_1098688" data-name="Mask Group 1098688" clip-path="url(#clip-path-2)">
        <path id="Path_878164" data-name="Path 878164" d="M195.281,0h1.95l-.293,3.327,2.755-2.1.988,1.694-3.133,1.536,3.133,1.621-.988,1.708-2.755-2.171.293,3.39h-1.95l.365-3.45L192.88,7.7,191.9,6l3.048-1.536-3.121-1.45.988-1.694,2.815,2.047Z" transform="translate(204.529 2754.341)" fill="#dbccfc"/>
        <path id="Path_878165" data-name="Path 878165" d="M207.27,0h1.95l-.293,3.327,2.755-2.1.988,1.694-3.133,1.536,3.133,1.621-.988,1.708-2.755-2.171.293,3.39h-1.95l.365-3.45L204.869,7.7,203.894,6l3.047-1.536-3.121-1.45.988-1.694,2.815,2.047Z" transform="translate(207.238 2754.341)" fill="#dbccfc"/>
        <path id="Path_878166" data-name="Path 878166" d="M219.26,0h1.95l-.293,3.327,2.755-2.1.988,1.694-3.133,1.536,3.133,1.621-.988,1.708-2.755-2.171.293,3.39h-1.95l.365-3.45L216.858,7.7,215.884,6l3.046-1.536-3.12-1.45.987-1.694,2.816,2.047Z" transform="translate(209.945 2754.341)" fill="#dbccfc"/>
        <path id="Path_878167" data-name="Path 878167" d="M231.249,0h1.95l-.293,3.327,2.755-2.1.988,1.694-3.133,1.536,3.133,1.621-.988,1.708-2.755-2.171.293,3.39h-1.95l.365-3.45L228.848,7.7,227.873,6l3.048-1.536L227.8,3.011l.988-1.694L231.6,3.364Z" transform="translate(212.654 2754.341)" fill="#dbccfc"/>
        <path id="Path_878168" data-name="Path 878168" d="M243.239,0h1.95L244.9,3.327l2.755-2.1.987,1.694-3.132,1.536,3.132,1.621-.987,1.708L244.9,5.618l.293,3.39h-1.95l.365-3.45L240.837,7.7,239.863,6l3.046-1.536-3.12-1.45.987-1.694,2.816,2.047Z" transform="translate(215.361 2754.341)" fill="#dbccfc"/>
        <path id="Path_878169" data-name="Path 878169" d="M195.281,0h1.95l-.293,3.327,2.755-2.1.988,1.694-3.133,1.536,3.133,1.621-.988,1.708-2.755-2.171.293,3.39h-1.95l.365-3.45L192.88,7.7,191.9,6l3.048-1.536-3.121-1.45.988-1.694,2.815,2.047Z" transform="translate(250.529 2861.341)" fill="#dbccfc"/>
        <path id="Path_878170" data-name="Path 878170" d="M207.27,0h1.95l-.293,3.327,2.755-2.1.988,1.694-3.133,1.536,3.133,1.621-.988,1.708-2.755-2.171.293,3.39h-1.95l.365-3.45L204.869,7.7,203.894,6l3.047-1.536-3.121-1.45.988-1.694,2.815,2.047Z" transform="translate(253.238 2861.341)" fill="#dbccfc"/>
        <path id="Path_878171" data-name="Path 878171" d="M219.26,0h1.95l-.293,3.327,2.755-2.1.988,1.694-3.133,1.536,3.133,1.621-.988,1.708-2.755-2.171.293,3.39h-1.95l.365-3.45L216.858,7.7,215.884,6l3.046-1.536-3.12-1.45.987-1.694,2.816,2.047Z" transform="translate(255.945 2861.341)" fill="#dbccfc"/>
        <path id="Path_878172" data-name="Path 878172" d="M231.249,0h1.95l-.293,3.327,2.755-2.1.988,1.694-3.133,1.536,3.133,1.621-.988,1.708-2.755-2.171.293,3.39h-1.95l.365-3.45L228.848,7.7,227.873,6l3.048-1.536L227.8,3.011l.988-1.694L231.6,3.364Z" transform="translate(258.654 2861.341)" fill="#dbccfc"/>
        <path id="Path_878173" data-name="Path 878173" d="M243.239,0h1.95L244.9,3.327l2.755-2.1.987,1.694-3.132,1.536,3.132,1.621-.987,1.708L244.9,5.618l.293,3.39h-1.95l.365-3.45L240.837,7.7,239.863,6l3.046-1.536-3.12-1.45.987-1.694,2.816,2.047Z" transform="translate(261.361 2861.341)" fill="#dbccfc"/>
      </g>
    </g>
    <g id="Group_1103899" data-name="Group 1103899" transform="translate(379.875 6048.719)">
      <rect id="Rectangle_401104" data-name="Rectangle 401104" width="92" height="94" transform="translate(0.124 -0.719)" fill="none"/>
      <g id="Group_1122309" data-name="Group 1122309" transform="translate(0.124 0.289)">
        <path id="Path_913006" data-name="Path 913006" d="M69.74,45.266a8.04,8.04,0,0,0-5.348-3.706V15.335a7.675,7.675,0,0,0-7.666-7.666H44.035a3.056,3.056,0,0,0-2.64-1.533H39.339a9.2,9.2,0,0,0-17.352,0H19.931a3.056,3.056,0,0,0-2.64,1.533H7.666A7.675,7.675,0,0,0,0,15.335V79.727a7.675,7.675,0,0,0,7.666,7.666h26.92c.071.144.127.293.207.434a8,8,0,0,0,7.062,4.166H83.878a8,8,0,0,0,7.052-4.167,8.2,8.2,0,0,0-.176-8.391ZM61.326,15.335V41.561a7.945,7.945,0,0,0-3.066,1.292V16.868A3.066,3.066,0,0,0,55.193,13.8H44.461V10.735H56.726A4.6,4.6,0,0,1,61.326,15.335ZM19.931,9.2h3.22a1.533,1.533,0,0,0,1.5-1.227,6.133,6.133,0,0,1,12.017,0,1.533,1.533,0,0,0,1.5,1.227h3.22v6.133H19.931Zm21.464,9.2a3.056,3.056,0,0,0,2.64-1.533H55.193V46.545L35.722,78.193H9.2V16.868h8.092a3.056,3.056,0,0,0,2.64,1.533ZM7.666,84.326a4.6,4.6,0,0,1-4.6-4.6V15.335a4.6,4.6,0,0,1,4.6-4.6h9.2V13.8H9.2a3.066,3.066,0,0,0-3.066,3.066V78.193A3.066,3.066,0,0,0,9.2,81.26H34.132a8.126,8.126,0,0,0-.376,3.066Zm80.583,2a4.972,4.972,0,0,1-4.379,2.6H41.855a4.969,4.969,0,0,1-4.377-2.594,5.168,5.168,0,0,1,.109-5.294l21-34.163a4.989,4.989,0,0,1,8.54,0l21,34.166a5.165,5.165,0,0,1,.115,5.289Z" transform="translate(0 0)" fill="#fff"/>
        <path id="Path_913007" data-name="Path 913007" d="M42.6,33A4.6,4.6,0,0,0,38,37.6V51.4a4.6,4.6,0,0,0,9.2,0V37.6A4.6,4.6,0,0,0,42.6,33Zm1.533,18.4a1.533,1.533,0,0,1-3.066,0V37.6a1.533,1.533,0,0,1,3.066,0Z" transform="translate(20.259 17.597)" fill="#fff"/>
        <path id="Path_913008" data-name="Path 913008" d="M42.6,50a4.6,4.6,0,1,0,4.6,4.6A4.6,4.6,0,0,0,42.6,50Zm0,6.133A1.533,1.533,0,1,1,44.133,54.6,1.533,1.533,0,0,1,42.6,56.133Z" transform="translate(20.259 26.66)" fill="#fff"/>
        <path id="Path_913009" data-name="Path 913009" d="M20.533,20.066H40.464a1.533,1.533,0,1,0,0-3.066H20.533a1.533,1.533,0,1,0,0,3.066Z" transform="translate(10.13 9.067)" fill="#fff"/>
        <path id="Path_913010" data-name="Path 913010" d="M20.533,24.066h9.2a1.533,1.533,0,1,0,0-3.066h-9.2a1.533,1.533,0,1,0,0,3.066Z" transform="translate(10.13 11.199)" fill="#fff"/>
        <path id="Path_913011" data-name="Path 913011" d="M20.533,31.066H40.464a1.533,1.533,0,1,0,0-3.066H20.533a1.533,1.533,0,1,0,0,3.066Z" transform="translate(10.13 14.931)" fill="#fff"/>
        <path id="Path_913012" data-name="Path 913012" d="M20.533,35.066h9.2a1.533,1.533,0,1,0,0-3.066h-9.2a1.533,1.533,0,0,0,0,3.066Z" transform="translate(10.13 17.064)" fill="#fff"/>
        <path id="Path_913013" data-name="Path 913013" d="M20.533,42.066H31.265a1.533,1.533,0,0,0,0-3.066H20.533a1.533,1.533,0,0,0,0,3.066Z" transform="translate(10.13 20.796)" fill="#fff"/>
        <path id="Path_913014" data-name="Path 913014" d="M20.533,46.066h6.133a1.533,1.533,0,1,0,0-3.066H20.533a1.533,1.533,0,1,0,0,3.066Z" transform="translate(10.13 22.928)" fill="#fff"/>
        <path id="Path_913015" data-name="Path 913015" d="M9.449,24.648a1.533,1.533,0,0,0,0,2.168l3.066,3.066a1.533,1.533,0,0,0,1.084.449,1.471,1.471,0,0,0,.245-.02,1.533,1.533,0,0,0,1.127-.828L21.1,17.219a1.534,1.534,0,1,0-2.744-1.371l-5.18,10.363-1.562-1.562A1.533,1.533,0,0,0,9.449,24.648Z" transform="translate(4.798 8)" fill="#fff"/>
        <path id="Path_913016" data-name="Path 913016" d="M20.417,26.161a1.533,1.533,0,0,0-2.057.687l-5.18,10.363-1.562-1.562a1.533,1.533,0,1,0-2.168,2.168l3.066,3.066a1.533,1.533,0,0,0,1.084.449,1.47,1.47,0,0,0,.245-.02,1.533,1.533,0,0,0,1.127-.828L21.1,28.219A1.533,1.533,0,0,0,20.417,26.161Z" transform="translate(4.798 13.865)" fill="#fff"/>
        <path id="Path_913017" data-name="Path 913017" d="M20.417,37.156a1.533,1.533,0,0,0-2.057.687l-5.18,10.363-1.562-1.562a1.533,1.533,0,1,0-2.168,2.168l3.066,3.066a1.533,1.533,0,0,0,1.084.457,1.47,1.47,0,0,0,.245-.02,1.533,1.533,0,0,0,1.127-.828L21.1,39.222a1.533,1.533,0,0,0-.687-2.065Z" transform="translate(4.798 19.726)" fill="#fff"/>
      </g>
    </g>
  </g>
</svg>
