<svg xmlns="http://www.w3.org/2000/svg" xmlns:xlink="http://www.w3.org/1999/xlink" width="1030" height="496.271" viewBox="0 0 1030 496.271">
  <defs>
    <linearGradient id="linear-gradient" x1="0.5" x2="0.5" y2="1" gradientUnits="objectBoundingBox">
      <stop offset="0" stop-color="#daf5fe"/>
      <stop offset="1" stop-color="#ede5fe"/>
    </linearGradient>
    <clipPath id="clip-path">
      <path id="Path_611005" data-name="Path 611005" d="M0,0H1030V495H0Z" transform="translate(285 446.5)" fill="url(#linear-gradient)"/>
    </clipPath>
    <clipPath id="clip-path-2">
      <rect id="Rectangle_410734" data-name="Rectangle 410734" width="561.366" height="434.492" fill="none"/>
    </clipPath>
    <clipPath id="clip-path-3">
      <rect id="Rectangle_410736" data-name="Rectangle 410736" width="359" height="488" transform="translate(955.668 454.771)" fill="#fff" stroke="#707070" stroke-width="1"/>
    </clipPath>
    <clipPath id="clip-path-4">
      <rect id="Rectangle_410735" data-name="Rectangle 410735" width="329.003" height="778.332" transform="translate(0 0)" fill="none"/>
    </clipPath>
    <clipPath id="clip-path-5">
      <rect id="Rectangle_403224" data-name="Rectangle 403224" width="76.843" height="76.848" fill="#c2a4ff"/>
    </clipPath>
  </defs>
  <g id="Group_1122709" data-name="Group 1122709" transform="translate(-285.332 -2966.729)">
    <g id="Group_1073696" data-name="Group 1073696" transform="translate(0.332 2520.229)">
      <g id="Group_1073695" data-name="Group 1073695">
        <path id="Path_608309" data-name="Path 608309" d="M0,0H1030V495H0Z" transform="translate(285 446.5)" fill="url(#linear-gradient)"/>
      </g>
      <g id="Group_1122147" data-name="Group 1122147" transform="translate(412.985 477.25)">
        <g id="Group_1122146" data-name="Group 1122146" transform="translate(0 0.004)" clip-path="url(#clip-path-2)">
          <path id="Path_912606" data-name="Path 912606" d="M942.842,492.282A128.472,128.472,0,0,0,829.7,604.523a2.82,2.82,0,0,0,4.794,2.3l16.649-16.65a2.807,2.807,0,0,1,3.969,0l18.6,18.583a2.8,2.8,0,0,0,4.747-1.575,79.688,79.688,0,0,1,62.9-65.448,2.741,2.741,0,0,0,1.4-.746l23.147-23.168a2.808,2.808,0,0,0,0-3.969L945.161,493.1a2.851,2.851,0,0,0-2.319-.82" transform="translate(-676.337 -401.283)" fill="#0653ae"/>
          <path id="Path_912607" data-name="Path 912607" d="M1576.182,497.741l16.649,16.649a2.807,2.807,0,0,1,0,3.97l-18.6,18.6a2.8,2.8,0,0,0,1.573,4.747,79.769,79.769,0,0,1,65.492,62.9,2.739,2.739,0,0,0,.745,1.4l23.145,23.146a2.807,2.807,0,0,0,3.97,0l20.75-20.75a2.85,2.85,0,0,0,.82-2.32,128.448,128.448,0,0,0-112.241-113.137,2.82,2.82,0,0,0-2.3,4.794" transform="translate(-1282.602 -401.822)" fill="#8f006f"/>
          <path id="Path_912608" data-name="Path 912608" d="M1577.7,1255.958l-18.6-18.6a2.8,2.8,0,0,0-4.748,1.575,79.716,79.716,0,0,1-63.692,65.647h-.024l-23.732,23.732a2.807,2.807,0,0,0,0,3.97l20.75,20.749a2.85,2.85,0,0,0,2.319.82,128.447,128.447,0,0,0,113.137-112.241,2.82,2.82,0,0,0-4.794-2.3l-16.65,16.65a2.807,2.807,0,0,1-3.97,0" transform="translate(-1195.118 -1007.995)" fill="#614c8d"/>
          <path id="Path_912609" data-name="Path 912609" d="M943.982,1217.478a79.689,79.689,0,0,1-65.512-62.9,2.74,2.74,0,0,0-.746-1.4l-23.144-23.144a2.807,2.807,0,0,0-3.971,0L829.859,1150.8a2.851,2.851,0,0,0-.819,2.32,128.49,128.49,0,0,0,112.245,113.114,2.82,2.82,0,0,0,2.306-4.793l-16.634-16.651a2.808,2.808,0,0,1,0-3.969l18.6-18.6a2.8,2.8,0,0,0-1.576-4.748" transform="translate(-675.799 -920.503)" fill="#c2a4ff"/>
          <path id="Path_912610" data-name="Path 912610" d="M810.844,535.1a3.348,3.348,0,0,1-2.684-1.34l-39.419-52.5H739.249a3.354,3.354,0,1,1,0-6.707h31.167a3.353,3.353,0,0,1,2.682,1.34l40.426,53.841a3.354,3.354,0,0,1-2.679,5.367" transform="translate(-599.883 -386.845)" fill="#0653ae"/>
          <path id="Path_912611" data-name="Path 912611" d="M1881.1,535.1a3.354,3.354,0,0,1-2.679-5.367l40.425-53.841a3.353,3.353,0,0,1,2.682-1.34h31.167a3.354,3.354,0,1,1,0,6.707H1923.2l-39.419,52.5a3.347,3.347,0,0,1-2.684,1.34" transform="translate(-1530.692 -386.845)" fill="#8f006f"/>
          <path id="Path_912612" data-name="Path 912612" d="M1952.693,1622.039h-31.167a3.352,3.352,0,0,1-2.682-1.34l-40.425-53.84a3.353,3.353,0,0,1,5.364-4.027l39.419,52.5h29.492a3.354,3.354,0,1,1,0,6.707" transform="translate(-1530.692 -1272.89)" fill="#614c8d"/>
          <path id="Path_912613" data-name="Path 912613" d="M770.416,1622.039H739.249a3.354,3.354,0,1,1,0-6.707H768.74l39.419-52.5a3.353,3.353,0,0,1,5.364,4.027L773.1,1620.7a3.352,3.352,0,0,1-2.682,1.34" transform="translate(-599.883 -1272.89)" fill="#c2a4ff"/>
          <path id="Path_912614" data-name="Path 912614" d="M587.142,397.548A21.55,21.55,0,1,1,565.592,376a21.55,21.55,0,0,1,21.55,21.55" transform="translate(-443.489 -306.505)" fill="#0653ae"/>
          <path id="Path_912616" data-name="Path 912616" d="M2303.149,397.548A21.55,21.55,0,1,1,2281.6,376a21.55,21.55,0,0,1,21.549,21.55" transform="translate(-1842.335 -306.505)" fill="#8f006f"/>
          <path id="Path_912618" data-name="Path 912618" d="M587.142,1776a21.55,21.55,0,1,1-21.55-21.55,21.55,21.55,0,0,1,21.55,21.55" transform="translate(-443.489 -1430.182)" fill="#c2a4ff"/>
          <path id="Path_912620" data-name="Path 912620" d="M2303.149,1776a21.55,21.55,0,1,1-21.549-21.55,21.55,21.55,0,0,1,21.549,21.55" transform="translate(-1842.335 -1430.182)" fill="#614c8d"/>
          <path id="Path_912622" data-name="Path 912622" d="M2832.952,266.8a2,2,0,0,0-2.584,1.138,30.1,30.1,0,0,1-26.115,19.241l1.8-1.8a2,2,0,0,0-2.823-2.823l-5.291,5.291a2,2,0,0,0,0,2.823l5.291,5.292a2,2,0,0,0,2.823-2.823l-1.957-1.958a34.057,34.057,0,0,0,29.992-21.793,2,2,0,0,0-1.138-2.585" transform="translate(-2280.335 -217.381)" fill="#8f006f"/>
          <path id="Path_912623" data-name="Path 912623" d="M2650.675,29.748a1.994,1.994,0,0,0,2.584-1.138,30.091,30.091,0,0,1,26.114-19.242l-1.8,1.8a2,2,0,1,0,2.823,2.823l5.291-5.291a2,2,0,0,0,0-2.823L2680.394.589a2,2,0,0,0-2.823,2.823l1.958,1.958a34.055,34.055,0,0,0-29.991,21.794,2,2,0,0,0,1.138,2.584" transform="translate(-2159.725 -0.004)" fill="#8f006f"/>
          <path id="Path_912624" data-name="Path 912624" d="M2637.564,221.418a30.1,30.1,0,0,1-19.241-26.115l1.8,1.8a2,2,0,1,0,2.823-2.823l-5.291-5.291a2,2,0,0,0-2.823,0l-5.291,5.291a2,2,0,0,0,2.823,2.823l1.957-1.957a34.056,34.056,0,0,0,21.793,29.991,2,2,0,0,0,1.447-3.722" transform="translate(-2126.758 -153.585)" fill="#8f006f"/>
          <path id="Path_912625" data-name="Path 912625" d="M2904.91,68.62a2,2,0,0,0-2.823,0l-1.957,1.957a34.055,34.055,0,0,0-21.795-29.99,2,2,0,1,0-1.447,3.722,30.093,30.093,0,0,1,19.242,26.114l-1.8-1.8a2,2,0,0,0-2.824,2.823l5.292,5.291a2,2,0,0,0,2.823,0l5.291-5.291a2,2,0,0,0,0-2.823" transform="translate(-2344.128 -32.974)" fill="#8f006f"/>
          <path id="Path_912626" data-name="Path 912626" d="M2727.865,142.018a2.042,2.042,0,0,0,2.021,1.748h4.369a2.043,2.043,0,0,0,2.021-1.748l.547-3.764c1.141-.472,1.446-.6,2.587-1.071l3.048,2.274a2.042,2.042,0,0,0,2.665-.194l3.089-3.086a2.044,2.044,0,0,0,.193-2.667l-2.281-3.056c.472-1.137.6-1.441,1.067-2.578l3.775-.549a2.043,2.043,0,0,0,1.749-2.021v-4.369a2.042,2.042,0,0,0-1.749-2.02l-3.764-.548-1.071-2.587,2.275-3.046a2.044,2.044,0,0,0-.193-2.667l-3.089-3.089a2.043,2.043,0,0,0-2.665-.192l-3.048,2.275c-1.141-.474-1.446-.6-2.587-1.071l-.547-3.765a2.041,2.041,0,0,0-2.021-1.747h-4.369a2.04,2.04,0,0,0-2.021,1.747l-.546,3.765c-1.142.471-1.447.6-2.588,1.071l-3.047-2.275a2.044,2.044,0,0,0-2.666.192l-3.089,3.089a2.044,2.044,0,0,0-.193,2.665l2.275,3.048c-.472,1.142-.6,1.446-1.071,2.587l-3.764.548a2.041,2.041,0,0,0-1.748,2.02v4.369a2.042,2.042,0,0,0,1.748,2.021l3.764.548c.472,1.141.6,1.446,1.071,2.589l-2.275,3.046a2.046,2.046,0,0,0,.193,2.667l3.089,3.086a2.043,2.043,0,0,0,2.666.194l3.047-2.274,2.588,1.071Zm-5.49-18.895a9.7,9.7,0,1,1,9.7,9.7,9.7,9.7,0,0,1-9.7-9.7" transform="translate(-2210.288 -83.541)" fill="#8f006f"/>
          <path id="Path_912627" data-name="Path 912627" d="M2801.869,194.912a1.762,1.762,0,0,0-3.007-1.245l-4.016,4.018-1.737-1.736a1.76,1.76,0,0,0-2.489,2.489l2.98,2.98a1.8,1.8,0,0,0,2.489,0l5.264-5.262a1.75,1.75,0,0,0,.517-1.244" transform="translate(-2274.424 -157.454)" fill="#8f006f"/>
          <path id="Path_912628" data-name="Path 912628" d="M96.607,37.266H91.582V35.3a2.438,2.438,0,0,0-2.438-2.438H86.107A2.438,2.438,0,0,0,83.669,35.3v1.966H63.929V35.3a2.438,2.438,0,0,0-2.438-2.438H58.454A2.439,2.439,0,0,0,56.016,35.3v1.966H50.991A9.132,9.132,0,0,0,41.859,46.4V90.752a9.131,9.131,0,0,0,9.132,9.131H96.609a9.13,9.13,0,0,0,9.13-9.13V46.4a9.131,9.131,0,0,0-9.132-9.131m4.97,53.486a4.969,4.969,0,0,1-4.969,4.969H50.991a4.97,4.97,0,0,1-4.97-4.97V46.4a4.97,4.97,0,0,1,4.97-4.97H96.609a4.969,4.969,0,0,1,4.969,4.968Z" transform="translate(-34.122 -26.79)" fill="#0653ae" fill-rule="evenodd"/>
          <path id="Path_912629" data-name="Path 912629" d="M112.977,121.617l-5.455,5.454-2.006-2.009A2.081,2.081,0,0,0,102.572,128l3.479,3.48a2.08,2.08,0,0,0,2.943,0l6.925-6.925a2.08,2.08,0,0,0-2.942-2.942" transform="translate(-83.118 -98.643)" fill="#0653ae" fill-rule="evenodd"/>
          <path id="Path_912630" data-name="Path 912630" d="M112.978,197.892l-5.455,5.452-2.007-2.007a2.08,2.08,0,0,0-2.941,2.942l3.479,3.479a2.078,2.078,0,0,0,2.942,0l6.925-6.924a2.08,2.08,0,1,0-2.942-2.942" transform="translate(-83.119 -160.82)" fill="#0653ae" fill-rule="evenodd"/>
          <path id="Path_912631" data-name="Path 912631" d="M112.978,274.162l-5.455,5.453-2.007-2.007a2.08,2.08,0,1,0-2.941,2.942l3.479,3.479a2.08,2.08,0,0,0,2.942,0l6.925-6.925a2.08,2.08,0,0,0-2.942-2.942" transform="translate(-83.119 -222.994)" fill="#0653ae" fill-rule="evenodd"/>
          <path id="Path_912632" data-name="Path 912632" d="M223.821,139.74H206.569a2.081,2.081,0,1,0,0,4.162h17.252a2.081,2.081,0,1,0,0-4.162" transform="translate(-166.693 -113.913)" fill="#0653ae" fill-rule="evenodd"/>
          <path id="Path_912633" data-name="Path 912633" d="M223.821,216.014H206.569a2.081,2.081,0,1,0,0,4.162h17.252a2.081,2.081,0,1,0,0-4.162" transform="translate(-166.693 -176.09)" fill="#0653ae" fill-rule="evenodd"/>
          <path id="Path_912634" data-name="Path 912634" d="M223.821,292.284H206.569a2.081,2.081,0,1,0,0,4.162h17.252a2.081,2.081,0,1,0,0-4.162" transform="translate(-166.693 -238.263)" fill="#0653ae" fill-rule="evenodd"/>
          <path id="Path_912635" data-name="Path 912635" d="M124.693,2059.9a10.307,10.307,0,0,1,2.2.22l4.178-5.168a17.141,17.141,0,0,0-6.377-1.209,17.56,17.56,0,1,0,17.571,17.548,17.129,17.129,0,0,0-1.21-6.377l-5.168,4.178a10.356,10.356,0,0,1,.22,2.2,11.4,11.4,0,1,1-11.413-11.391" transform="translate(-87.341 -1674.16)" fill="#c2a4ff"/>
          <path id="Path_912636" data-name="Path 912636" d="M219.971,1930.987a1.424,1.424,0,0,0-1.315-.878h-7.2v-7.2a1.423,1.423,0,0,0-2.429-1.006l-7.553,7.551a1.424,1.424,0,0,0-.417,1.006v4.555l-21.3,23.309a5.547,5.547,0,1,0,3.481,3.481l23.312-21.3H211.1a1.424,1.424,0,0,0,1.006-.417l7.553-7.551a1.427,1.427,0,0,0,.309-1.552" transform="translate(-140.725 -1566.35)" fill="#c2a4ff"/>
          <path id="Path_912637" data-name="Path 912637" d="M71.633,1980.873H67.287a29.7,29.7,0,0,0-3.546-11.394l-4.882,3.936a23.89,23.89,0,1,1-10.952-10.974l3.915-4.86a29.388,29.388,0,0,0-11.388-3.568v-4.336a3.08,3.08,0,1,0-6.159,0V1954A30.158,30.158,0,0,0,7.4,1980.873H3.08a3.08,3.08,0,0,0,0,6.159H7.4a30.176,30.176,0,0,0,26.872,26.888v4.31a3.08,3.08,0,1,0,6.159,0v-4.31A30.179,30.179,0,0,0,67.3,1987.033h4.332a3.08,3.08,0,0,0,0-6.159" transform="translate(0 -1586.818)" fill="#c2a4ff"/>
          <path id="Path_912638" data-name="Path 912638" d="M2709.422,1979.39c-1.12,1.28-2.208,2.576-3.28,3.9-.464.56-.912,1.136-1.36,1.712a25.775,25.775,0,0,1,1.28,8.048,26.047,26.047,0,1,1-26.047-26.047,25.7,25.7,0,0,1,12.7,3.328c1.312-1.28,2.64-2.543,4-3.792l.848-.751a32.152,32.152,0,0,0-17.552-5.184,32.447,32.447,0,1,0,32.447,32.447,32,32,0,0,0-3.04-13.664" transform="translate(-2158.232 -1598.238)" fill="#614c8d"/>
          <path id="Path_912639" data-name="Path 912639" d="M2785.142,1990.111a3.114,3.114,0,0,0-4.394-.281c-3,2.64-5.683,5.3-8.351,8.1q-3.98,4.183-7.635,8.667c-2.449,2.978-4.786,6.057-6.985,9.247-1.113,1.569-2.169,3.181-3.194,4.818l-8.726-10.743a3.117,3.117,0,0,0-5.006,3.705l11.005,16.357a3.965,3.965,0,0,0,1.151,1.116,3.875,3.875,0,0,0,5.344-1.216l.239-.38c1.71-3.205,3.474-6.4,5.475-9.468,1.957-3.093,4.062-6.105,6.285-9.036s4.538-5.8,6.972-8.568c2.414-2.753,4.992-5.5,7.554-7.939l.08-.075a3.114,3.114,0,0,0,.186-4.307" transform="translate(-2233.839 -1621.427)" fill="#614c8d"/>
        </g>
      </g>
      <path id="Path_611088" data-name="Path 611088" d="M7.923,0H214.811c4.376,0,7.923,4.029,7.923,9V28c0,4.971-3.547,9-7.923,9H7.923C3.547,37,0,32.971,0,28V9C0,4.029,3.547,0,7.923,0Z" transform="translate(333 601.271)" fill="#0653ae"/>
      <path id="Path_913113" data-name="Path 913113" d="M53.947,13.518V18h-2.1V5.914H56.47a4.675,4.675,0,0,1,3.217,1.055,3.549,3.549,0,0,1,1.191,2.792,3.431,3.431,0,0,1-1.166,2.767,4.9,4.9,0,0,1-3.266.989Zm0-1.693H56.47a2.485,2.485,0,0,0,1.71-.527,1.937,1.937,0,0,0,.589-1.523,2.09,2.09,0,0,0-.6-1.565,2.3,2.3,0,0,0-1.644-.6H53.947ZM64.663,18H62.646V5.25h2.017Zm7.562,0a3.113,3.113,0,0,1-.232-.838,3.393,3.393,0,0,1-4.565.232,2.47,2.47,0,0,1-.855-1.909,2.55,2.55,0,0,1,1.067-2.2,5.169,5.169,0,0,1,3.051-.768h1.237v-.589a1.573,1.573,0,0,0-.39-1.116,1.547,1.547,0,0,0-1.187-.419,1.777,1.777,0,0,0-1.129.344,1.066,1.066,0,0,0-.44.876H66.763a2.239,2.239,0,0,1,.49-1.382,3.263,3.263,0,0,1,1.332-1.009,4.68,4.68,0,0,1,1.88-.365,3.769,3.769,0,0,1,2.515.793,2.827,2.827,0,0,1,.963,2.229v4.051a4.591,4.591,0,0,0,.34,1.934V18Zm-2.216-1.453a2.294,2.294,0,0,0,1.125-.291,1.941,1.941,0,0,0,.793-.78V13.783H70.839a2.973,2.973,0,0,0-1.685.39,1.264,1.264,0,0,0-.564,1.1,1.179,1.179,0,0,0,.386.926A1.5,1.5,0,0,0,70.009,16.547Zm7.919-7.529.058,1.038a3.229,3.229,0,0,1,2.615-1.2q2.806,0,2.855,3.212V18H81.439V12.181a1.85,1.85,0,0,0-.369-1.266,1.554,1.554,0,0,0-1.208-.411,1.944,1.944,0,0,0-1.818,1.1V18H76.027V9.019ZM87.656,18H85.639V9.019h2.017ZM85.515,6.686a1.071,1.071,0,0,1,.295-.772,1.113,1.113,0,0,1,.843-.307,1.127,1.127,0,0,1,.847.307,1.062,1.062,0,0,1,.3.772,1.038,1.038,0,0,1-.3.76,1.136,1.136,0,0,1-.847.3,1.122,1.122,0,0,1-.843-.3A1.046,1.046,0,0,1,85.515,6.686ZM90.387,18V10.513h-1.37V9.019h1.37V8.4a3.593,3.593,0,0,1,.448-1.81A2.788,2.788,0,0,1,92.08,5.458a4.482,4.482,0,0,1,1.934-.382,5.638,5.638,0,0,1,1.274.141q.61.141,1.266.357l-.307,1.668a6.421,6.421,0,0,0-2.092-.4,1.869,1.869,0,0,0-1.336.4A1.61,1.61,0,0,0,92.4,8.454v.564h1.768v1.494H92.4V18Zm7.122,0H95.492V9.019h2.017Zm5.927-1.444a1.824,1.824,0,0,0,1.253-.44,1.5,1.5,0,0,0,.531-1.087h1.9a2.963,2.963,0,0,1-.523,1.565,3.43,3.43,0,0,1-1.328,1.15,3.958,3.958,0,0,1-1.81.423,3.829,3.829,0,0,1-2.988-1.22,4.84,4.84,0,0,1-1.1-3.37v-.208a4.759,4.759,0,0,1,1.1-3.283,3.8,3.8,0,0,1,2.988-1.233,3.69,3.69,0,0,1,2.611.934,3.345,3.345,0,0,1,1.058,2.453h-1.9a1.847,1.847,0,0,0-.527-1.27,1.7,1.7,0,0,0-1.258-.5,1.775,1.775,0,0,0-1.511.71,3.621,3.621,0,0,0-.54,2.154v.324a3.681,3.681,0,0,0,.527,2.179A1.774,1.774,0,0,0,103.436,16.556ZM114.011,18a3.113,3.113,0,0,1-.232-.838,3.393,3.393,0,0,1-4.565.232,2.47,2.47,0,0,1-.855-1.909,2.55,2.55,0,0,1,1.067-2.2,5.169,5.169,0,0,1,3.051-.768h1.237v-.589a1.573,1.573,0,0,0-.39-1.116,1.547,1.547,0,0,0-1.187-.419,1.777,1.777,0,0,0-1.129.344,1.066,1.066,0,0,0-.44.876h-2.017a2.239,2.239,0,0,1,.49-1.382,3.263,3.263,0,0,1,1.332-1.009,4.68,4.68,0,0,1,1.88-.365,3.769,3.769,0,0,1,2.515.793,2.827,2.827,0,0,1,.963,2.229v4.051a4.591,4.591,0,0,0,.34,1.934V18Zm-2.216-1.453a2.294,2.294,0,0,0,1.125-.291,1.941,1.941,0,0,0,.793-.78V13.783h-1.087a2.973,2.973,0,0,0-1.685.39,1.264,1.264,0,0,0-.564,1.1,1.179,1.179,0,0,0,.386.926A1.5,1.5,0,0,0,111.795,16.547Zm10.75-5.686a4.991,4.991,0,0,0-.822-.066,1.85,1.85,0,0,0-1.868,1.063V18h-2.017V9.019h1.926l.05,1a2.273,2.273,0,0,1,2.025-1.17,1.888,1.888,0,0,1,.714.116Zm5.537,2.225a12.649,12.649,0,0,1,.515-3.64,9.991,9.991,0,0,1,1.511-3.08,6,6,0,0,1,2.108-1.905l.4,1.179a6.162,6.162,0,0,0-1.9,2.71,12.138,12.138,0,0,0-.793,4.171l-.008.714a13.2,13.2,0,0,0,.71,4.487,6.612,6.612,0,0,0,1.988,3l-.4,1.121A6.009,6.009,0,0,1,130.1,19.93a9.989,9.989,0,0,1-1.511-3.08A13.148,13.148,0,0,1,128.081,13.086Zm8.019.432L135.319,18h-2.05l2.1-12.086,4.184.008a4.117,4.117,0,0,1,2.972,1.035,3.222,3.222,0,0,1,.938,2.738,3.843,3.843,0,0,1-1.436,2.8,5.214,5.214,0,0,1-3.37,1.035Zm.291-1.693,2.349.017a2.837,2.837,0,0,0,1.822-.564,2.338,2.338,0,0,0,.851-1.577,1.869,1.869,0,0,0-.344-1.482,1.807,1.807,0,0,0-1.39-.6l-2.557-.008Zm9.4,6.176h-1.967l2.216-12.75h1.967Zm7.537,0a2.664,2.664,0,0,1-.083-.838,3.33,3.33,0,0,1-2.4,1,2.751,2.751,0,0,1-1.938-.751,2.317,2.317,0,0,1-.718-1.864,2.75,2.75,0,0,1,1.229-2.233,5.349,5.349,0,0,1,3.121-.813l1.278.017.116-.614a1.853,1.853,0,0,0,0-.606,1.081,1.081,0,0,0-1.187-.921,1.79,1.79,0,0,0-1.108.32,1.383,1.383,0,0,0-.585.9l-1.967.017a2.463,2.463,0,0,1,.589-1.457,3.5,3.5,0,0,1,1.411-.975,4.778,4.778,0,0,1,1.859-.332,3.141,3.141,0,0,1,2.291.884,2.62,2.62,0,0,1,.681,2.2l-.689,4.208-.066.747a2.654,2.654,0,0,0,.125.955l-.008.149Zm-2.025-1.444a2.169,2.169,0,0,0,1.154-.286,3.04,3.04,0,0,0,.9-.784l.307-1.7-.938-.008a3.3,3.3,0,0,0-1.776.419,1.537,1.537,0,0,0-.755,1.15,1.017,1.017,0,0,0,.245.876A1.2,1.2,0,0,0,151.307,16.556Zm9.073-7.545-.2,1.054a3.427,3.427,0,0,1,2.665-1.212,2.171,2.171,0,0,1,1.868.9,3.6,3.6,0,0,1,.448,2.445l-.971,5.8h-1.967l.979-5.827a2.982,2.982,0,0,0,.008-.664,1.058,1.058,0,0,0-1.179-1.013,2.391,2.391,0,0,0-1.967,1.1L158.943,18h-1.967l1.552-8.981Zm10.667,4.208a12.489,12.489,0,0,1-.506,3.557A10.078,10.078,0,0,1,169,19.9a6.014,6.014,0,0,1-2.15,1.947l-.4-1.121a6.379,6.379,0,0,0,1.971-2.943,13.071,13.071,0,0,0,.726-4.52v-.191a13.264,13.264,0,0,0-.631-4.2,7.416,7.416,0,0,0-1.81-3.042l-.257-.232.4-1.129a5.951,5.951,0,0,1,2.059,1.826,9.909,9.909,0,0,1,1.527,2.934,12.222,12.222,0,0,1,.6,3.349Z" transform="translate(333 608.271)" fill="#fff"/>
      <path id="Path_912692" data-name="Path 912692" d="M7.923,0H214.811c4.376,0,7.923,4.029,7.923,9V28c0,4.971-3.547,9-7.923,9H7.923C3.547,37,0,32.971,0,28V9C0,4.029,3.547,0,7.923,0Z" transform="translate(834 601.271)" fill="#8f006f"/>
      <path id="Path_913114" data-name="Path 913114" d="M81.314,18H79.223V12.638h-5.4V18h-2.1V5.914h2.1v5.03h5.4V5.914h2.092Zm7.653,0a3.113,3.113,0,0,1-.232-.838,3.393,3.393,0,0,1-4.565.232,2.47,2.47,0,0,1-.855-1.909,2.55,2.55,0,0,1,1.067-2.2,5.169,5.169,0,0,1,3.051-.768h1.237v-.589a1.573,1.573,0,0,0-.39-1.116,1.547,1.547,0,0,0-1.187-.419,1.777,1.777,0,0,0-1.129.344,1.066,1.066,0,0,0-.44.876H83.506A2.239,2.239,0,0,1,84,10.226a3.263,3.263,0,0,1,1.332-1.009,4.68,4.68,0,0,1,1.88-.365,3.769,3.769,0,0,1,2.515.793,2.827,2.827,0,0,1,.963,2.229v4.051a4.591,4.591,0,0,0,.34,1.934V18Zm-2.216-1.453a2.294,2.294,0,0,0,1.125-.291,1.941,1.941,0,0,0,.793-.78V13.783H87.581a2.973,2.973,0,0,0-1.685.39,1.264,1.264,0,0,0-.564,1.1,1.179,1.179,0,0,0,.386.926A1.5,1.5,0,0,0,86.751,16.547Zm9.737.008a1.824,1.824,0,0,0,1.253-.44,1.5,1.5,0,0,0,.531-1.087h1.9a2.963,2.963,0,0,1-.523,1.565,3.43,3.43,0,0,1-1.328,1.15,3.958,3.958,0,0,1-1.81.423,3.829,3.829,0,0,1-2.988-1.22,4.84,4.84,0,0,1-1.1-3.37v-.208a4.759,4.759,0,0,1,1.1-3.283A3.8,3.8,0,0,1,96.5,8.853a3.69,3.69,0,0,1,2.611.934,3.345,3.345,0,0,1,1.058,2.453h-1.9a1.847,1.847,0,0,0-.527-1.27,1.7,1.7,0,0,0-1.258-.5,1.775,1.775,0,0,0-1.511.71,3.621,3.621,0,0,0-.54,2.154v.324a3.681,3.681,0,0,0,.527,2.179A1.774,1.774,0,0,0,96.488,16.556Zm9.164,1.61a4.173,4.173,0,0,1-3.109-1.208,4.381,4.381,0,0,1-1.191-3.217v-.249a5.389,5.389,0,0,1,.519-2.4,3.949,3.949,0,0,1,1.457-1.648,3.851,3.851,0,0,1,2.092-.589,3.525,3.525,0,0,1,2.835,1.17,4.949,4.949,0,0,1,1,3.312v.813h-5.869a2.7,2.7,0,0,0,.743,1.76,2.23,2.23,0,0,0,1.639.647,2.731,2.731,0,0,0,2.258-1.121l1.087,1.038a3.631,3.631,0,0,1-1.44,1.249A4.509,4.509,0,0,1,105.652,18.166Zm-.241-7.695a1.7,1.7,0,0,0-1.341.581,3.012,3.012,0,0,0-.652,1.619h3.843v-.149a2.452,2.452,0,0,0-.54-1.531A1.686,1.686,0,0,0,105.411,10.471Zm10.11.39a4.991,4.991,0,0,0-.822-.066,1.85,1.85,0,0,0-1.868,1.063V18h-2.017V9.019h1.926l.05,1a2.273,2.273,0,0,1,2.025-1.17,1.888,1.888,0,0,1,.714.116Zm5.537,2.225a12.649,12.649,0,0,1,.515-3.64,9.991,9.991,0,0,1,1.511-3.08,6,6,0,0,1,2.108-1.905l.4,1.179a6.162,6.162,0,0,0-1.9,2.71,12.138,12.138,0,0,0-.793,4.171l-.008.714a13.2,13.2,0,0,0,.71,4.487,6.613,6.613,0,0,0,1.988,3l-.4,1.121a6.009,6.009,0,0,1-2.113-1.913,9.989,9.989,0,0,1-1.511-3.08A13.148,13.148,0,0,1,121.058,13.086ZM126.246,18l2.092-12.086,3.271.008a4.477,4.477,0,0,1,2.6.751,4.223,4.223,0,0,1,1.581,2.075,6.186,6.186,0,0,1,.3,2.918l-.091.656a7.247,7.247,0,0,1-1.1,2.959,5.917,5.917,0,0,1-2.2,2,6.2,6.2,0,0,1-2.955.714ZM130.1,7.607l-1.511,8.716,1.212.008a3.776,3.776,0,0,0,2.727-1.042,5,5,0,0,0,1.39-2.876,9.7,9.7,0,0,0,.158-2.2,2.961,2.961,0,0,0-.7-1.884,2.347,2.347,0,0,0-1.739-.714Zm7.288,5.869a5.909,5.909,0,0,1,.776-2.4,4.606,4.606,0,0,1,1.631-1.668A4.031,4.031,0,0,1,142,8.853a3.336,3.336,0,0,1,3.217,2.25,5.192,5.192,0,0,1,.27,2.308,6.019,6.019,0,0,1-.776,2.523,4.588,4.588,0,0,1-1.644,1.681,4.088,4.088,0,0,1-2.22.552,3.331,3.331,0,0,1-3.2-2.237,5.126,5.126,0,0,1-.282-2.279Zm1.934,1.137a2.371,2.371,0,0,0,.461,1.4,1.474,1.474,0,0,0,1.166.552,2.069,2.069,0,0,0,1.7-.78,4.1,4.1,0,0,0,.859-2.2l.05-.813a2.874,2.874,0,0,0-.423-1.668,1.486,1.486,0,0,0-1.229-.639A2.151,2.151,0,0,0,139.91,11.7a4.621,4.621,0,0,0-.556,1.776A6.95,6.95,0,0,0,139.32,14.613Zm11.854-1.395a12.489,12.489,0,0,1-.506,3.557,10.078,10.078,0,0,1-1.536,3.121,6.014,6.014,0,0,1-2.15,1.947l-.4-1.121a6.379,6.379,0,0,0,1.971-2.943,13.071,13.071,0,0,0,.726-4.52v-.191a13.264,13.264,0,0,0-.631-4.2,7.416,7.416,0,0,0-1.81-3.042l-.257-.232.4-1.129a5.951,5.951,0,0,1,2.059,1.826,9.909,9.909,0,0,1,1.527,2.934,12.222,12.222,0,0,1,.6,3.349Z" transform="translate(834 608.271)" fill="#fff"/>
      <path id="Path_912693" data-name="Path 912693" d="M7.923,0H214.811c4.376,0,7.923,4.029,7.923,9V28c0,4.971-3.547,9-7.923,9H7.923C3.547,37,0,32.971,0,28V9C0,4.029,3.547,0,7.923,0Z" transform="translate(333 753.271)" fill="#c2a4ff"/>
      <path id="Path_913115" data-name="Path 913115" d="M73.37,15.186H68.689L67.709,18H65.526L70.092,5.914h1.884L76.55,18H74.358Zm-4.092-1.693h3.5L71.03,8.479Zm12.136,3.063a1.824,1.824,0,0,0,1.253-.44,1.5,1.5,0,0,0,.531-1.087h1.9a2.963,2.963,0,0,1-.523,1.565,3.43,3.43,0,0,1-1.328,1.15,3.958,3.958,0,0,1-1.81.423,3.829,3.829,0,0,1-2.988-1.22,4.84,4.84,0,0,1-1.1-3.37v-.208a4.759,4.759,0,0,1,1.1-3.283,3.8,3.8,0,0,1,2.988-1.233,3.69,3.69,0,0,1,2.611.934A3.345,3.345,0,0,1,85.1,12.239H83.2a1.847,1.847,0,0,0-.527-1.27,1.7,1.7,0,0,0-1.258-.5,1.775,1.775,0,0,0-1.511.71,3.621,3.621,0,0,0-.54,2.154v.324a3.681,3.681,0,0,0,.527,2.179A1.774,1.774,0,0,0,81.414,16.556Zm7.736-9.72V9.019h1.585v1.494H89.15v5.014a1.1,1.1,0,0,0,.2.743.943.943,0,0,0,.726.228,3.107,3.107,0,0,0,.706-.083v1.561a4.968,4.968,0,0,1-1.328.191q-2.324,0-2.324-2.565V10.513H85.656V9.019h1.478V6.835ZM97.717,17.12a3.128,3.128,0,0,1-2.523,1.046,2.788,2.788,0,0,1-2.212-.855,3.637,3.637,0,0,1-.751-2.474V9.019h2.017v5.794q0,1.71,1.419,1.71a1.993,1.993,0,0,0,1.984-1.054V9.019h2.017V18h-1.9Zm9.372.88a3.113,3.113,0,0,1-.232-.838,3.393,3.393,0,0,1-4.565.232,2.47,2.47,0,0,1-.855-1.909,2.55,2.55,0,0,1,1.067-2.2,5.169,5.169,0,0,1,3.051-.768h1.237v-.589a1.573,1.573,0,0,0-.39-1.116,1.547,1.547,0,0,0-1.187-.419,1.777,1.777,0,0,0-1.129.344,1.066,1.066,0,0,0-.44.876h-2.017a2.239,2.239,0,0,1,.49-1.382,3.263,3.263,0,0,1,1.332-1.009,4.68,4.68,0,0,1,1.88-.365,3.769,3.769,0,0,1,2.515.793,2.827,2.827,0,0,1,.963,2.229v4.051a4.591,4.591,0,0,0,.34,1.934V18Zm-2.216-1.453A2.294,2.294,0,0,0,106,16.257a1.941,1.941,0,0,0,.793-.78V13.783H105.7a2.973,2.973,0,0,0-1.685.39,1.264,1.264,0,0,0-.564,1.1,1.179,1.179,0,0,0,.386.926A1.5,1.5,0,0,0,104.872,16.547Zm10.75-5.686a4.991,4.991,0,0,0-.822-.066,1.85,1.85,0,0,0-1.868,1.063V18h-2.017V9.019h1.926l.05,1a2.273,2.273,0,0,1,2.025-1.17,1.888,1.888,0,0,1,.714.116Zm5.537,2.225a12.649,12.649,0,0,1,.515-3.64,9.991,9.991,0,0,1,1.511-3.08,6,6,0,0,1,2.108-1.905l.4,1.179a6.162,6.162,0,0,0-1.9,2.71A12.138,12.138,0,0,0,123,12.521l-.008.714a13.2,13.2,0,0,0,.71,4.487,6.613,6.613,0,0,0,1.988,3l-.4,1.121a6.009,6.009,0,0,1-2.113-1.913,9.989,9.989,0,0,1-1.511-3.08A13.148,13.148,0,0,1,121.158,13.086Zm12.277,2.1h-4.524L127.467,18h-2.208l6.524-12.086h1.843L135.967,18h-2.059Zm-3.661-1.693h3.387l-.822-5Zm11.355,3.071a1.924,1.924,0,0,0,1.942-1.527l1.859-.008a3.18,3.18,0,0,1-.643,1.619,3.74,3.74,0,0,1-1.415,1.137,3.927,3.927,0,0,1-1.8.382,3.383,3.383,0,0,1-1.967-.6,3.3,3.3,0,0,1-1.187-1.606,5.139,5.139,0,0,1-.249-2.287l.025-.291a5.877,5.877,0,0,1,.76-2.362,4.434,4.434,0,0,1,1.6-1.631,4,4,0,0,1,2.175-.54,3.142,3.142,0,0,1,2.333.967,3.416,3.416,0,0,1,.872,2.428h-1.843a2.007,2.007,0,0,0-.378-1.262,1.382,1.382,0,0,0-1.092-.523,1.993,1.993,0,0,0-1.818.979,5.468,5.468,0,0,0-.714,2.855Q139.528,16.531,141.13,16.564Zm9.206-9.729-.382,2.183h1.536l-.257,1.494h-1.544l-.847,5.03a1.72,1.72,0,0,0-.008.374q.05.54.664.564a3.75,3.75,0,0,0,.7-.075l-.133,1.577a4.511,4.511,0,0,1-1.237.174,1.837,1.837,0,0,1-1.54-.7,2.538,2.538,0,0,1-.4-1.814l.838-5.13h-1.436l.266-1.494h1.428l.382-2.183Zm5.952,6.383a12.489,12.489,0,0,1-.506,3.557,10.078,10.078,0,0,1-1.536,3.121,6.014,6.014,0,0,1-2.15,1.947l-.4-1.121a6.379,6.379,0,0,0,1.971-2.943,13.071,13.071,0,0,0,.726-4.52v-.191a13.264,13.264,0,0,0-.631-4.2,7.416,7.416,0,0,0-1.81-3.042L151.7,5.59l.4-1.129a5.951,5.951,0,0,1,2.059,1.826,9.909,9.909,0,0,1,1.527,2.934,12.222,12.222,0,0,1,.6,3.349Z" transform="translate(333 760.271)" fill="#12263f"/>
      <path id="Path_912694" data-name="Path 912694" d="M7.923,0H214.811c4.376,0,7.923,4.029,7.923,9V28c0,4.971-3.547,9-7.923,9H7.923C3.547,37,0,32.971,0,28V9C0,4.029,3.547,0,7.923,0Z" transform="translate(834 753.271)" fill="#614c8d"/>
      <path id="Path_913116" data-name="Path 913116" d="M53.361,15.369l3.071-9.455H58.74L54.391,18H52.357L48.024,5.914h2.3Zm10.5,2.8a4.173,4.173,0,0,1-3.109-1.208,4.381,4.381,0,0,1-1.191-3.217v-.249a5.389,5.389,0,0,1,.519-2.4,3.949,3.949,0,0,1,1.457-1.648,3.851,3.851,0,0,1,2.092-.589,3.525,3.525,0,0,1,2.835,1.17,4.949,4.949,0,0,1,1,3.312v.813H61.6a2.7,2.7,0,0,0,.743,1.76,2.23,2.23,0,0,0,1.639.647,2.731,2.731,0,0,0,2.258-1.121l1.087,1.038a3.631,3.631,0,0,1-1.44,1.249A4.509,4.509,0,0,1,63.862,18.166Zm-.241-7.695a1.7,1.7,0,0,0-1.341.581,3.012,3.012,0,0,0-.652,1.619h3.843v-.149a2.452,2.452,0,0,0-.54-1.531A1.686,1.686,0,0,0,63.621,10.471Zm10.11.39a4.991,4.991,0,0,0-.822-.066,1.85,1.85,0,0,0-1.868,1.063V18H69.025V9.019h1.926l.05,1a2.273,2.273,0,0,1,2.025-1.17,1.888,1.888,0,0,1,.714.116ZM77.151,18H75.134V9.019h2.017ZM75.01,6.686a1.071,1.071,0,0,1,.295-.772,1.113,1.113,0,0,1,.843-.307,1.127,1.127,0,0,1,.847.307,1.062,1.062,0,0,1,.3.772,1.038,1.038,0,0,1-.3.76,1.136,1.136,0,0,1-.847.3,1.122,1.122,0,0,1-.843-.3A1.046,1.046,0,0,1,75.01,6.686ZM79.882,18V10.513h-1.37V9.019h1.37V8.4a3.593,3.593,0,0,1,.448-1.81,2.788,2.788,0,0,1,1.245-1.137,4.482,4.482,0,0,1,1.934-.382,5.638,5.638,0,0,1,1.274.141q.61.141,1.266.357l-.307,1.668a6.421,6.421,0,0,0-2.092-.4,1.869,1.869,0,0,0-1.336.4A1.61,1.61,0,0,0,81.9,8.454v.564h1.768v1.494H81.9V18ZM87,18H84.987V9.019H87Zm5.927-1.444a1.824,1.824,0,0,0,1.253-.44,1.5,1.5,0,0,0,.531-1.087h1.9a2.963,2.963,0,0,1-.523,1.565,3.43,3.43,0,0,1-1.328,1.15,3.958,3.958,0,0,1-1.81.423,3.829,3.829,0,0,1-2.988-1.22,4.84,4.84,0,0,1-1.1-3.37v-.208a4.759,4.759,0,0,1,1.1-3.283,3.8,3.8,0,0,1,2.988-1.233,3.69,3.69,0,0,1,2.611.934,3.345,3.345,0,0,1,1.058,2.453h-1.9a1.847,1.847,0,0,0-.527-1.27,1.7,1.7,0,0,0-1.258-.5,1.775,1.775,0,0,0-1.511.71,3.621,3.621,0,0,0-.54,2.154v.324a3.681,3.681,0,0,0,.527,2.179A1.774,1.774,0,0,0,92.931,16.556ZM103.506,18a3.113,3.113,0,0,1-.232-.838,3.393,3.393,0,0,1-4.565.232,2.47,2.47,0,0,1-.855-1.909,2.55,2.55,0,0,1,1.067-2.2,5.169,5.169,0,0,1,3.051-.768h1.237v-.589a1.573,1.573,0,0,0-.39-1.116,1.547,1.547,0,0,0-1.187-.419,1.777,1.777,0,0,0-1.129.344,1.066,1.066,0,0,0-.44.876H98.045a2.239,2.239,0,0,1,.49-1.382,3.263,3.263,0,0,1,1.332-1.009,4.68,4.68,0,0,1,1.88-.365,3.769,3.769,0,0,1,2.515.793,2.827,2.827,0,0,1,.963,2.229v4.051a4.591,4.591,0,0,0,.34,1.934V18Zm-2.216-1.453a2.294,2.294,0,0,0,1.125-.291,1.941,1.941,0,0,0,.793-.78V13.783H102.12a2.973,2.973,0,0,0-1.685.39,1.264,1.264,0,0,0-.564,1.1,1.179,1.179,0,0,0,.386.926A1.5,1.5,0,0,0,101.29,16.547Zm10.75-5.686a4.991,4.991,0,0,0-.822-.066,1.85,1.85,0,0,0-1.868,1.063V18h-2.017V9.019h1.926l.05,1a2.273,2.273,0,0,1,2.025-1.17,1.888,1.888,0,0,1,.714.116Zm5.537,2.225a12.649,12.649,0,0,1,.515-3.64,9.991,9.991,0,0,1,1.511-3.08,6,6,0,0,1,2.108-1.905l.4,1.179a6.162,6.162,0,0,0-1.9,2.71,12.138,12.138,0,0,0-.793,4.171l-.008.714a13.2,13.2,0,0,0,.71,4.487,6.613,6.613,0,0,0,1.988,3l-.4,1.121A6.009,6.009,0,0,1,119.6,19.93a9.989,9.989,0,0,1-1.511-3.08A13.148,13.148,0,0,1,117.576,13.086Zm14.775.971a4.7,4.7,0,0,1-1.7,3.017,5.094,5.094,0,0,1-3.4,1.092,4.011,4.011,0,0,1-2.021-.548,3.544,3.544,0,0,1-1.357-1.523,5.684,5.684,0,0,1-.548-2.262,12.239,12.239,0,0,1,.232-2.577,8.141,8.141,0,0,1,1.083-2.926,5.48,5.48,0,0,1,1.967-1.951,5.016,5.016,0,0,1,2.594-.631,3.86,3.86,0,0,1,2.851,1.133,4.447,4.447,0,0,1,1.116,3.034H131.14a2.978,2.978,0,0,0-.544-1.872,1.938,1.938,0,0,0-1.49-.6,2.8,2.8,0,0,0-2.266.97,5.678,5.678,0,0,0-1.229,2.944l-.166,1.1-.075.846a5.005,5.005,0,0,0,.12,1.6,2.093,2.093,0,0,0,.66,1.144,1.925,1.925,0,0,0,1.2.419,2.768,2.768,0,0,0,2.972-2.4Zm4.316-4.051a3.32,3.32,0,0,1,2.548-1.146,2.191,2.191,0,0,1,1.9.9,3.592,3.592,0,0,1,.461,2.457L140.611,18h-1.967l.979-5.8a3.39,3.39,0,0,0,.017-.664,1.075,1.075,0,0,0-1.2-1.038,2.427,2.427,0,0,0-1.959,1.079L135.365,18H133.4l2.208-12.75h1.976Zm10.061,8.16a3.763,3.763,0,0,1-2.03-.589,3.353,3.353,0,0,1-1.27-1.544,4.59,4.59,0,0,1-.311-2.183l.025-.34a6.011,6.011,0,0,1,.8-2.461,4.571,4.571,0,0,1,1.623-1.656,3.945,3.945,0,0,1,2.108-.54,2.942,2.942,0,0,1,2.528,1.255,4.608,4.608,0,0,1,.635,3.184l-.116.865h-5.653a2.44,2.44,0,0,0,.432,1.721,1.71,1.71,0,0,0,1.395.67,3.025,3.025,0,0,0,2.341-1.1l1,1.046a3.786,3.786,0,0,1-1.486,1.249A4.426,4.426,0,0,1,146.729,18.166Zm.838-7.7q-1.561-.05-2.341,2.208l3.727.008.033-.174a2.6,2.6,0,0,0,.008-.747,1.527,1.527,0,0,0-.465-.93A1.471,1.471,0,0,0,147.567,10.463Zm7.944,6.1a1.924,1.924,0,0,0,1.942-1.527l1.859-.008a3.18,3.18,0,0,1-.643,1.619,3.74,3.74,0,0,1-1.415,1.137,3.927,3.927,0,0,1-1.8.382,3.383,3.383,0,0,1-1.967-.6,3.3,3.3,0,0,1-1.187-1.606,5.139,5.139,0,0,1-.249-2.287l.025-.291a5.877,5.877,0,0,1,.76-2.362,4.434,4.434,0,0,1,1.6-1.631,4,4,0,0,1,2.175-.54,3.142,3.142,0,0,1,2.333.967,3.416,3.416,0,0,1,.872,2.428h-1.843a2.007,2.007,0,0,0-.378-1.262,1.382,1.382,0,0,0-1.092-.523,1.993,1.993,0,0,0-1.818.979,5.468,5.468,0,0,0-.714,2.855Q153.909,16.531,155.511,16.564Zm8.375-2.4-1.112.988L162.284,18h-1.967l2.208-12.75h1.967l-1.262,7.238.689-.714,2.855-2.756h2.515l-3.984,3.835L167.929,18H165.8Zm9.9-.946a12.489,12.489,0,0,1-.506,3.557,10.078,10.078,0,0,1-1.536,3.121,6.014,6.014,0,0,1-2.15,1.947l-.4-1.121a6.379,6.379,0,0,0,1.971-2.943,13.071,13.071,0,0,0,.726-4.52v-.191a13.264,13.264,0,0,0-.631-4.2,7.416,7.416,0,0,0-1.81-3.042L169.2,5.59l.4-1.129a5.951,5.951,0,0,1,2.059,1.826,9.909,9.909,0,0,1,1.527,2.934,12.222,12.222,0,0,1,.6,3.349Z" transform="translate(834 760.271)" fill="#fff"/>
      <g id="Mask_Group_1101320" data-name="Mask Group 1101320" clip-path="url(#clip-path-3)">
        <g id="Group_1122149" data-name="Group 1122149" transform="translate(189.668 1519.96)">
          <g id="Group_1122148" data-name="Group 1122148" transform="translate(830 -1034.997)" clip-path="url(#clip-path-4)">
            <path id="Path_912640" data-name="Path 912640" d="M90.465,510.537c-17.9,19.1-50.571,33.668-65.365,28.51C7,532.737-5.251,513.428,2.236,496.6c5.559-12.492,18.27-20.562,30.313-27.9,12.276-7.48,40.182-25.553,52.458-33.034,9.762.205,3.933,13.982,11.011,20.348,15.637,14.065,4.911,43.358-5.553,54.519" transform="translate(0 -295.806)" fill="#182e68"/>
            <path id="Path_912641" data-name="Path 912641" d="M550.019,527.228c1.289-2.426,29.494-1.99,31.595-1.99,30.467,0,48.167,25.235,52.606,26.267a8.713,8.713,0,0,1,2.992.754c2.711,1.81,2.149,5.023,5.9,5.939,3.108.759,7.16-1.14,10.294-1.4,6.148-.51,12.3-1.05,18.4-1.992s12.4-2.126,18.105-4.6c6.8-2.953,7.718-.1,10.412-6.5,4.3-10.222,1.5-19.253-3.238-23.795-2.387-2.287-5.47-3.809-7.616-6.323a49.314,49.314,0,0,1-3.367-5.146c-7.176-10.915-19.534-18.017-30.027-25.339-22.979-16.035-45.836-32.161-60.9-40.031-1.179,1.378-45.146,84.156-45.149,84.16" transform="translate(-373.444 -300.829)" fill="#182e68"/>
            <path id="Path_912642" data-name="Path 912642" d="M831.9,706.672c-8.219,38.656-54.584,64.66-73.651,81.081-1.154.994-18.568-15.333-14.212-21.675,11.432-16.645,21.278-35.278,31.235-51.57,17.018-27.845,33.261-33.642,48.408-26.587,7.161,3.336,9.245,13.93,8.219,18.752" transform="translate(-504.701 -465.216)" fill="#f59979"/>
            <path id="Path_912643" data-name="Path 912643" d="M704.743,933.028,684.134,949.9l7.729,51.739a22.828,22.828,0,0,0,19.667-16.516c.273-1.589-.664-2.479-3.607-1.228-1.486.631-3.689,3.277-6.045,6.825-.715-1.07,1.05-15.549,1.05-15.549s14.533-13.07,15.123-19.14-13.307-23-13.307-23" transform="translate(-464.503 -633.495)" fill="#f59979"/>
            <path id="Path_912644" data-name="Path 912644" d="M438.2,56.8c-.494,1.584-3.789,9.315-5.843,11.675-8.29,9.522-18.24,15.412-30.86,14.486a39.718,39.718,0,0,1-25.927-12.818c-3.338-3.552-2.66-3.967-4.489-8.5-2.146-5.315-4.013-17.248-3.724-22.972.575-11.405,2.249-21.415,11.356-29.117A40.357,40.357,0,0,1,407.575.108c13.516.992,31.488,10.951,33.48,25.694a77.074,77.074,0,0,1-2.856,31" transform="translate(-249.402 -0.003)" fill="#3a2b2f"/>
            <path id="Path_912645" data-name="Path 912645" d="M386.862,248.1l.369-54.762,36.337,16.921-.421,41.106a7.457,7.457,0,0,0,4,6.684l7.5,8.949s-13.934,44.424-64.378,0c6.48-1.841,6.171-10.158,11.433-11.855a7.451,7.451,0,0,0,5.162-7.044" transform="translate(-251.398 -131.269)" fill="#ed8364"/>
            <path id="Path_912646" data-name="Path 912646" d="M422.337,245.544c14.071,3.166,31.284-.019,36.441-5.746l.144-14.065-36.386-9.6Z" transform="translate(-286.752 -146.744)" fill="#dd7a5c"/>
            <path id="Path_912647" data-name="Path 912647" d="M393.247,80.715c-.167,24.222,5.97,41.224,22.646,42.81,25.077,2.385,31.879-16.894,34.06-42.444,2.061-24.134-11.97-39.295-28.721-39.411s-27.818,14.823-27.985,39.045" transform="translate(-266.999 -28.293)" fill="#f59979"/>
            <path id="Path_912648" data-name="Path 912648" d="M430.595,153.92c.119-1.626.9-2.9,1.734-2.834s1.422,1.43,1.3,3.057-.9,2.9-1.735,2.834-1.422-1.43-1.3-3.057" transform="translate(-292.348 -102.582)" fill="#3a2b2f"/>
            <path id="Path_912649" data-name="Path 912649" d="M517.748,160.314c.119-1.626-.464-2.995-1.3-3.057s-1.615,1.207-1.734,2.834.464,3,1.3,3.057,1.615-1.207,1.734-2.834" transform="translate(-349.461 -106.772)" fill="#3a2b2f"/>
            <path id="Path_912650" data-name="Path 912650" d="M559.952,169.965s9.6-8.857,14.687-1.226a9.942,9.942,0,0,1,1.473,7.209c-.927,5.291-5.036,13.384-18.256,11.314.012.6,2.1-17.3,2.1-17.3" transform="translate(-378.765 -112.463)" fill="#f59979"/>
            <path id="Path_912651" data-name="Path 912651" d="M567.566,195.575a1.1,1.1,0,0,1-.973-1.607,15.77,15.77,0,0,1,11.392-8.385,1.1,1.1,0,0,1,.257,2.182,13.557,13.557,0,0,0-9.7,7.221,1.1,1.1,0,0,1-.974.59" transform="translate(-384.612 -126)" fill="#07242b"/>
            <path id="Path_912652" data-name="Path 912652" d="M583.826,200.165a1.1,1.1,0,0,1-.765-.31l-2.859-2.775a1.1,1.1,0,0,1,1.53-1.576l2.859,2.775a1.1,1.1,0,0,1-.765,1.886" transform="translate(-393.711 -132.53)" fill="#07242b"/>
            <path id="Path_912653" data-name="Path 912653" d="M369.789,157.076s-7.043-11-13.9-4.9a9.941,9.941,0,0,0-3.249,6.6c-.443,5.353,1.483,14.223,14.8,15.567-.163.578,2.351-17.264,2.351-17.264" transform="translate(-239.393 -102.072)" fill="#f59979"/>
            <path id="Path_912654" data-name="Path 912654" d="M372.469,180.183a1.1,1.1,0,0,1-1.069-.853,13.7,13.7,0,0,0-7.556-9.441,1.1,1.1,0,1,1,.8-2.046,15.769,15.769,0,0,1,8.9,11,1.1,1.1,0,0,1-.825,1.316,1.083,1.083,0,0,1-.247.028" transform="translate(-246.563 -113.909)" fill="#07242b"/>
            <path id="Path_912655" data-name="Path 912655" d="M369.822,186.154a1.1,1.1,0,0,1-.542-2.055l3.468-1.961a1.1,1.1,0,1,1,1.081,1.912l-3.468,1.961a1.094,1.094,0,0,1-.54.143" transform="translate(-250.35 -123.57)" fill="#07242b"/>
            <path id="Path_912656" data-name="Path 912656" d="M511.952,139.235a1.1,1.1,0,0,1-.766-.311c-3.327-3.24-9.583-1.524-9.646-1.506a1.1,1.1,0,0,1-.6-2.114c.307-.087,7.549-2.068,11.775,2.047a1.1,1.1,0,0,1-.766,1.885" transform="translate(-339.58 -91.492)" fill="#07242b"/>
            <path id="Path_912657" data-name="Path 912657" d="M440.4,70.522c-.647-6.5-1.1-12.6-2.321-19.309-.585-3.224-1.369-6.5-3.212-9.2s-4.965-4.72-8.2-4.4c-2.895.288-5.3,2.317-8.049,3.287a11.537,11.537,0,0,1-10.337-1.437c-2.023-1.431-3.671-3.566-6.062-4.2-3.029-.8-6.134,1.138-8.236,3.485-3.275,3.657-5.123,8.354-6.906,12.941-1.561,4.019-1.452,9.191-3.014,13.21-4.258-6.653-5.978-16.93-2.627-24.1s9.572-12.689,16.524-16.383a29.578,29.578,0,0,1,8.925-3.253,27.528,27.528,0,0,1,14.267,1.858,76.719,76.719,0,0,1,12.839,6.856,26.3,26.3,0,0,1,6.018,4.629,20.3,20.3,0,0,1,3.72,6.864c2.953,8.484-2.023,27.606-3.333,29.147" transform="translate(-257.782 -14.175)" fill="#3a2b2f"/>
            <path id="Path_912658" data-name="Path 912658" d="M425.726,131.041a1.1,1.1,0,0,1-.626-.2,12.1,12.1,0,0,0-11.986-.4,1.1,1.1,0,0,1-.99-1.961,14.3,14.3,0,0,1,14.233.563,1.1,1.1,0,0,1-.631,2" transform="translate(-279.408 -86.127)" fill="#07242b"/>
            <path id="Path_912659" data-name="Path 912659" d="M637.451,1653.552c6.746,53.03,10.017,163.294,13.443,173.388.81,2.385,2.428,17.566,17.664,23.994l-55.484-16.274.3-4.6c-9.454-45.337-28.462-198.454-28.462-198.454s43.905-45.915,52.538,21.943" transform="translate(-397.136 -1097.497)" fill="#f59979"/>
            <path id="Path_912660" data-name="Path 912660" d="M691.667,2335.94c-.007-.008-.015-.016-.022-.024.008.028.016.034.022.024" transform="translate(-469.603 -1586.007)" fill="#f59979"/>
            <path id="Path_912661" data-name="Path 912661" d="M667.732,2310.419c-2.37-6.875-2.386-14.236-1.851-21.433.49-6.595.065-13.749,2.275-13.7,19.164,11.344,36.465,2.708,37.52-3.123,2.556-.084,19.429,19.238,26.158,20.918,24.927,6.618,26.764,12.24,26.89,17.072.042,1.632-90.731,1.016-90.991.264" transform="translate(-451.917 -1542.722)" fill="#302626"/>
            <path id="Path_912662" data-name="Path 912662" d="M731.257,2373.443a197.8,197.8,0,0,1-31.647-2.873c-8.941-1.487-18.453-.761-27.516-.543a5.349,5.349,0,0,1-2.75-.468c-.049-.03-.1-.061-.145-.094a3.828,3.828,0,0,1-1.27-2.021,41,41,0,0,1-2.044-11.291,50.843,50.843,0,0,1,5.882.7c2.49.454,4.941,1.093,7.4,1.683,23.372,5.6,47.639,6.757,71.643,5.537a35.633,35.633,0,0,0,7.243-.907,9.463,9.463,0,0,1,.865,4.015,3.954,3.954,0,0,1-2.75,3.708c-7.694,2.847-16.833,2.58-24.914,2.553" transform="translate(-452.113 -1599.747)" fill="#fff"/>
            <path id="Path_912663" data-name="Path 912663" d="M234.185,1624.738c2.946,61.328,6.955,121.29,8.179,176.019-.351,7.9-1.275,16.908-3.51,22.906-.879,2.36-2.25,10.711-18.159,15.22l57.062-9.34.229-6.843c2.611-39.549,15.168-195.3,15.168-195.3s-61.832-62.275-58.969-2.666" transform="translate(-149.844 -1085.611)" fill="#f59979"/>
            <path id="Path_912664" data-name="Path 912664" d="M379.953,2349.852c.007-.009.015-.016.022-.025-.008.028-.016.034-.022.025" transform="translate(-257.975 -1595.452)" fill="#f59979"/>
            <path id="Path_912665" data-name="Path 912665" d="M207.11,2324.479c2.354-6.88,2.352-14.242,1.8-21.437-.507-6.594-.1-13.75-2.308-13.694-19.136,11.391-36.458,2.8-37.527-3.03-2.556-.078-19.382,19.286-26.107,20.982-24.911,6.679-26.734,12.306-26.848,17.139-.039,1.631,90.733.793,90.991.041" transform="translate(-78.841 -1552.332)" fill="#302626"/>
            <path id="Path_912666" data-name="Path 912666" d="M143.8,2387.452a197.99,197.99,0,0,0,31.64-2.95c8.937-1.509,18.451-.806,27.515-.611a5.35,5.35,0,0,0,2.749-.475c.049-.029.1-.061.145-.093a3.832,3.832,0,0,0,1.265-2.025,40.986,40.986,0,0,0,2.016-11.3,50.832,50.832,0,0,0-5.88.713c-2.488.46-4.938,1.105-7.4,1.7-23.359,5.66-47.622,6.873-71.629,5.712a35.718,35.718,0,0,1-7.245-.888,9.457,9.457,0,0,0-.855,4.017,3.953,3.953,0,0,0,2.759,3.7c7.7,2.828,16.839,2.539,24.92,2.493" transform="translate(-78.839 -1609.15)" fill="#fff"/>
            <path id="Path_912667" data-name="Path 912667" d="M247.119,996.014s-15.6,258-3.549,402.675c18.923,8.69,44.279,3.912,54.475,2.784,7.86-36.509,20.7-290.076,20.7-290.076s20.724,193.66,50.4,286.587c16.6,4.928,35.551,5.28,49.28-3.168,0-30.272-14.626-335.584-31.073-397.348-10.413-1.38-140.237-1.454-140.237-1.454" transform="translate(-162.273 -676.26)" fill="#61474d"/>
            <path id="Path_912668" data-name="Path 912668" d="M438.5,1196.584a1.1,1.1,0,0,1-1.088-.955l-8.334-63.363L415.8,1121.825a1.1,1.1,0,0,1,1.357-1.727l13.634,10.718a1.1,1.1,0,0,1,.41.721l8.392,63.806a1.1,1.1,0,0,1-.946,1.232,1.112,1.112,0,0,1-.144.009" transform="translate(-282.026 -760.349)" fill="#07242b"/>
            <path id="Path_912669" data-name="Path 912669" d="M696.3,1406.276a1.1,1.1,0,0,1-1.1-1.061c-4.484-130.775-13.222-231.707-19.763-293.35-7.087-66.79-13.192-103.12-13.252-103.479a1.1,1.1,0,1,1,2.166-.367c.061.36,6.174,36.737,13.268,103.585,6.546,61.684,15.29,162.68,19.777,293.536a1.1,1.1,0,0,1-1.06,1.135H696.3" transform="translate(-449.594 -683.79)" fill="#07242b"/>
            <path id="Path_912670" data-name="Path 912670" d="M625.513,1045.5a1.094,1.094,0,0,1-.327-.05c-15.061-4.684-21.417-14.593-24.1-22.081a38.132,38.132,0,0,1-2.207-15.278,1.1,1.1,0,0,1,2.186.221,36.627,36.627,0,0,0,2.12,14.4c3.665,10.162,11.285,17.107,22.651,20.641a1.1,1.1,0,0,1-.326,2.147" transform="translate(-406.564 -683.791)" fill="#07242b"/>
            <path id="Path_912671" data-name="Path 912671" d="M258.649,1035.719a1.1,1.1,0,0,1-.04-2.2c15.907-.592,17.511-25.137,17.526-25.385a1.1,1.1,0,0,1,2.193.127,49.166,49.166,0,0,1-2.954,13.3c-3.453,8.98-9.222,13.874-16.683,14.151h-.041" transform="translate(-174.869 -683.79)" fill="#07242b"/>
            <path id="Path_912672" data-name="Path 912672" d="M274.879,388.757s24.656,24.462,49.723,2.345c.483.149,38.28,7.979,52.348,20.2-1.167,4.984-13.281,117.734-2.7,175.208-10.239,5.424-60.786,40.88-143.173,9.981,2.534-62.977,4.308-142.79-13.614-181.28-.35.394,16.656-18.926,57.418-26.455" transform="translate(-147.645 -263.953)" fill="#182e68"/>
            <path id="Path_912673" data-name="Path 912673" d="M240.828,616.154a1.1,1.1,0,0,1-1.093-1c-1.618-18.84-4.081-31.827-7.322-38.6a1.1,1.1,0,0,1,1.982-.948c3.355,7.016,5.888,20.259,7.529,39.363a1.1,1.1,0,0,1-1,1.188c-.032,0-.063,0-.1,0" transform="translate(-157.727 -390.388)" fill="#07242b"/>
            <path id="Path_912674" data-name="Path 912674" d="M691.068,606.485a1.1,1.1,0,0,1-1.09-.971c-2.147-18.3.1-40.894,3.517-52.173a1.1,1.1,0,1,1,2.1.637c-3.349,11.064-5.551,33.27-3.437,51.28a1.1,1.1,0,0,1-1.092,1.227" transform="translate(-467.9 -375.171)" fill="#07242b"/>
            <path id="Path_912675" data-name="Path 912675" d="M385.486,354.056s6.619-1.914,7.233-16.718c-.025-.1,35.57-2.016,44.948.968.426,0-2.643,14.109,7.311,18.884-.09-.022-31.1,30.946-59.492-3.134" transform="translate(-261.732 -228.569)" fill="#182e68"/>
            <path id="Path_912676" data-name="Path 912676" d="M458.759,170.056a1.138,1.138,0,0,1-.161-.012c-2.03-.3-4.518-1.5-4.851-3.916a5.749,5.749,0,0,1,.385-2.606c.354-1.064.758-2.119,1.149-3.139.548-1.431,1.115-2.91,1.528-4.385a12.862,12.862,0,0,0,.236-7.3,1.1,1.1,0,0,1,2.1-.66,14.986,14.986,0,0,1-.216,8.551c-.441,1.573-1.026,3.1-1.592,4.578-.382,1-.777,2.029-1.116,3.047a3.869,3.869,0,0,0-.293,1.613c.155,1.125,1.66,1.847,2.993,2.042a1.1,1.1,0,0,1-.158,2.185" transform="translate(-308.055 -99.993)" fill="#07242b"/>
            <path id="Path_912677" data-name="Path 912677" d="M463.156,240.832a1.1,1.1,0,0,1-.059-2.195,79.645,79.645,0,0,0,13.506-4.581,1.1,1.1,0,1,1,.958,1.977,75.429,75.429,0,0,1-14.4,4.8m-.008-2.2h0Z" transform="translate(-313.721 -158.842)" fill="#07242b"/>
            <path id="Path_912678" data-name="Path 912678" d="M139.358,425.976s19.912,17.278,14.135,21.211c-19.928,13.567-62.234,91.994-92.584,63.728-17.132-16.161-7.052-33.09,78.449-84.939" transform="translate(-36.604 -289.224)" fill="#f59979"/>
            <path id="Path_912679" data-name="Path 912679" d="M341.066,306.675c-1.835,2.211-7.77,9.3-13.067,14.912a84.17,84.17,0,0,0-5.529,6.515c-4.568,5.949-13.446,18.165-8.512,24.8.4.536,18.394,1.652,24.529-20.794.072-.043-5.11-.03,1.825-12.178,1.556-2.043,6.517-11.6,2.832-13.584a1.664,1.664,0,0,0-2.078.332" transform="translate(-212.183 -207.848)" fill="#f59979"/>
            <path id="Path_912680" data-name="Path 912680" d="M310.537,377.5S325.3,364,334.22,357.4c5.538,7.143,18.662,20.955,18.638,32.287-5.09,4.045-11.4,9.431-27.292,10.766-8.962,3.171-24.975-7.7-18.784-17.389,2.253-3.528,3.754-5.558,3.754-5.558" transform="translate(-207.353 -242.662)" fill="#f59979"/>
            <path id="Path_912681" data-name="Path 912681" d="M402.631,321.04a.749.749,0,0,0-.26.735l0,.015a.706.706,0,0,0,.705.556c-.676.515-1.356,1.028-2.046,1.529-.131.1-.835.612-1.313.969a3.543,3.543,0,0,1-.338.188c-.941.416-1.886.83-2.811,1.282-1.047.512-2.073,1.05-3.047,1.648l-4.113-8.542s29.308-23.513,32.782-19.72c1.4,2.12-3.721,8.627-19.563,21.339" transform="translate(-264.397 -203.207)" fill="#f59979"/>
            <path id="Path_912682" data-name="Path 912682" d="M362.2,365.713a1.1,1.1,0,0,1-.7-1.943c4.395-3.659,8.874-7.15,8.919-7.185a1.1,1.1,0,0,1,1.35,1.733c-.045.034-4.5,3.505-8.863,7.14a1.1,1.1,0,0,1-.7.254" transform="translate(-245.176 -241.953)" fill="#07242b"/>
            <path id="Path_912683" data-name="Path 912683" d="M422.456,358.463c4.053-.686,7.153,6,4.052,9.3,1.795-.539,6.277,2.339,3.966,8.4.609-.475,5.732,3.015,3.331,7.676-1.37,2.658-8.927,7.734-8.927,7.734s-11.328-26.406-11.189-26.94,8.767-6.163,8.767-6.163" transform="translate(-280.88 -243.352)" fill="#f59979"/>
            <path id="Path_912684" data-name="Path 912684" d="M424.46,360.109a1.1,1.1,0,0,1-.545-2.052l5.557-3.169a1.1,1.1,0,0,1,1.088,1.908L425,359.965a1.091,1.091,0,0,1-.543.144" transform="translate(-287.447 -240.859)" fill="#07242b"/>
            <path id="Path_912685" data-name="Path 912685" d="M437.247,388.891a1.1,1.1,0,0,1-.548-2.051l4.511-2.592a1.1,1.1,0,1,1,1.094,1.9l-4.511,2.592a1.094,1.094,0,0,1-.546.146" transform="translate(-296.129 -260.793)" fill="#07242b"/>
            <path id="Path_912686" data-name="Path 912686" d="M448.3,415.515a1.1,1.1,0,0,1-.581-2.031l4.93-3.059a1.1,1.1,0,1,1,1.158,1.866l-4.929,3.059a1.093,1.093,0,0,1-.578.165" transform="translate(-303.633 -278.552)" fill="#07242b"/>
            <path id="Path_912687" data-name="Path 912687" d="M359.028,484.626a1.094,1.094,0,0,1-.7-.25l-3.251-2.674a1.1,1.1,0,0,1,1.4-1.7l3.251,2.674a1.1,1.1,0,0,1-.7,1.947" transform="translate(-240.815 -325.738)" fill="#07242b"/>
            <path id="Path_912688" data-name="Path 912688" d="M434.788,846.123a1.108,1.108,0,0,1-.257-.031,280.129,280.129,0,0,1-66.778-25.428l-.424-.228c-3.554-1.907-7.229-3.878-11.133-4.18a1.1,1.1,0,1,1,.169-2.19c4.365.337,8.248,2.42,12,4.434l.423.227a277.934,277.934,0,0,0,66.255,25.229,1.1,1.1,0,0,1-.256,2.167" transform="translate(-241.156 -552.722)" fill="#07242b"/>
            <path id="Path_912689" data-name="Path 912689" d="M433.163,913.154a1.1,1.1,0,0,1-.285-.038,147.126,147.126,0,0,1-29.16-11.264,1.1,1.1,0,0,1,1-1.953,144.936,144.936,0,0,0,28.724,11.1,1.1,1.1,0,0,1-.284,2.16" transform="translate(-273.705 -610.919)" fill="#07242b"/>
            <path id="Path_912690" data-name="Path 912690" d="M350.064,1024.113a184.563,184.563,0,0,1-31.332-2.74c-20.37-3.517-33.995-9.273-34.13-9.331a1.1,1.1,0,0,1,.862-2.02,168.036,168.036,0,0,0,33.7,9.2c18.551,3.2,46.749,5.125,75.741-3.84a1.1,1.1,0,0,1,.649,2.1,152.556,152.556,0,0,1-41.384,6.586q-2.048.049-4.111.05" transform="translate(-192.782 -685.71)" fill="#07242b"/>
            <path id="Path_912691" data-name="Path 912691" d="M240.705,1970.985a1.1,1.1,0,0,1-1.094-1.018c-1.287-17.512-2.322-35.285-3.076-52.827-1.1-25.634-1.642-51.642-1.6-77.3a1.1,1.1,0,0,1,1.1-1.1h0a1.1,1.1,0,0,1,1.1,1.1c-.037,25.627.5,51.6,1.6,77.2.753,17.52,1.787,35.27,3.072,52.76a1.1,1.1,0,0,1-1.015,1.176c-.027,0-.055,0-.082,0" transform="translate(-159.508 -1248.443)" fill="#07242b"/>
          </g>
        </g>
      </g>
      <g id="Group_1101302" data-name="Group 1101302" transform="translate(1229.668 460.495)">
        <g id="Group_1101301" data-name="Group 1101301" transform="translate(0 0)" clip-path="url(#clip-path-5)">
          <path id="Path_875437" data-name="Path 875437" d="M69.879,75.654a3.669,3.669,0,0,1-1.04-3.114A56.64,56.64,0,0,0,52.764,24.008,56.64,56.64,0,0,0,4.232,7.932,3.665,3.665,0,1,1,3.19.677,63.9,63.9,0,0,1,57.945,18.827,63.9,63.9,0,0,1,76.095,73.582a3.663,3.663,0,0,1-6.215,2.072" transform="translate(0.071 0)" fill="#c2a4ff"/>
          <path id="Path_875438" data-name="Path 875438" d="M51.826,64.92a3.659,3.659,0,0,1-1-3.337,39.181,39.181,0,0,0-46.4-46.4A3.663,3.663,0,0,1,2.942,8.012,46.505,46.505,0,0,1,58,63.071a3.663,3.663,0,0,1-6.175,1.849" transform="translate(0.033 10.797)" fill="#c2a4ff"/>
          <path id="Path_875439" data-name="Path 875439" d="M1.07,21.55a3.67,3.67,0,0,1,1.352-6.038,29.68,29.68,0,0,1,30.943,6.837A29.691,29.691,0,0,1,40.2,53.294a3.665,3.665,0,0,1-6.9-2.485,22.321,22.321,0,0,0-5.125-23.277A22.312,22.312,0,0,0,4.907,22.409a3.672,3.672,0,0,1-3.837-.86" transform="translate(0 21.133)" fill="#c2a4ff"/>
        </g>
      </g>
      <path id="Path_912695" data-name="Path 912695" d="M80.227,0h4.687l-.7,8,6.62-5.038L93.2,7.03l-7.53,3.692,7.53,3.895-2.375,4.1L84.21,13.5l.7,8.146H80.227l.878-8.29-6.649,5.156-2.342-4.1,7.324-3.692-7.5-3.485,2.375-4.072,6.764,4.92Z" transform="translate(499.491 926.919) rotate(180)" fill="#fff"/>
      <path id="Path_912696" data-name="Path 912696" d="M92.217,0H96.9l-.7,8,6.62-5.038,2.375,4.072-7.53,3.692,7.53,3.895-2.375,4.1L96.2,13.5l.7,8.146H92.217l.878-8.29-6.649,5.156-2.342-4.1,7.321-3.692-7.5-3.485L86.3,3.164l6.764,4.92Z" transform="translate(476.157 926.919) rotate(180)" fill="#fff"/>
      <path id="Path_912697" data-name="Path 912697" d="M104.206,0h4.687l-.7,8,6.62-5.038,2.375,4.072-7.53,3.692,7.53,3.895-2.375,4.1-6.62-5.218.7,8.146h-4.687l.878-8.29-6.649,5.156-2.342-4.1,7.321-3.692-7.5-3.485L98.29,3.164l6.764,4.92Z" transform="translate(452.824 926.919) rotate(180)" fill="#fff"/>
      <path id="Path_912698" data-name="Path 912698" d="M116.2,0h4.687l-.7,8,6.62-5.038,2.372,4.072-7.527,3.692,7.527,3.895-2.372,4.1-6.62-5.218.7,8.146H116.2l.878-8.29-6.649,5.156-2.342-4.1,7.321-3.692-7.5-3.485,2.372-4.072,6.767,4.92Z" transform="translate(429.49 926.919) rotate(180)" fill="#fff"/>
    </g>
  </g>
</svg>
