<svg xmlns="http://www.w3.org/2000/svg" xmlns:xlink="http://www.w3.org/1999/xlink" width="99.458" height="150" viewBox="0 0 99.458 150">
  <defs>
    <linearGradient id="linear-gradient" x1="0.5" x2="0.5" y2="1" gradientUnits="objectBoundingBox">
      <stop offset="0" stop-color="#ddf1ff"/>
      <stop offset="1" stop-color="#fff"/>
    </linearGradient>
  </defs>
  <g id="Group_1122320" data-name="Group 1122320" transform="translate(-180 -4819.328)">
    <rect id="Rectangle_410775" data-name="Rectangle 410775" width="85" height="150" transform="translate(180 4819.328)" fill="#daf5fe"/>
    <g id="Group_1122248" data-name="Group 1122248" transform="translate(-63.529 -1173.086)">
      <g id="Group_1099808" data-name="Group 1099808" transform="translate(269.987 6031.414)">
        <g id="Group_1099775" data-name="Group 1099775" transform="translate(0 0)">
          <g id="Group_1099770" data-name="Group 1099770">
            <g id="Rectangle_401345" data-name="Rectangle 401345" stroke="#8f006f" stroke-width="5" fill="url(#linear-gradient)">
              <rect width="73" height="73" rx="10" stroke="none"/>
              <rect x="2.5" y="2.5" width="68" height="68" rx="7.5" fill="none"/>
            </g>
          </g>
        </g>
        <g id="Group_1099776" data-name="Group 1099776" transform="translate(12.023 11.982)">
          <g id="Group_1099618" data-name="Group 1099618" transform="translate(0 0)">
            <rect id="Rectangle_401104" data-name="Rectangle 401104" width="48.305" height="48.887" transform="translate(0)" fill="none"/>
          </g>
          <path id="Path_913024" data-name="Path 913024" d="M33.9,24.574V12.364a2.3,2.3,0,0,1,2.3-2.294h4.4a2.446,2.446,0,0,1,2.168,1.244l0,0,1.349,2.338h8.261a2.3,2.3,0,0,1,2.3,2.3v8.62a2.3,2.3,0,0,1-2.3,2.294H51.54a.792.792,0,1,1,0-1.585h.845a.713.713,0,0,0,.714-.71v-8.62a.715.715,0,0,0-.714-.714h-16.9v9.334a.713.713,0,0,0,.714.71h.8a.792.792,0,0,1,0,1.585h-.8A2.3,2.3,0,0,1,33.9,24.574Zm8.39-10.919L41.4,12.109a.9.9,0,0,0-.8-.455H36.2a.713.713,0,0,0-.714.71v1.291ZM54.079,37.944H39.17a.789.789,0,0,1,0-1.578H55.742c.522-.572,1.047-1.228,1.712-2.105a1.5,1.5,0,0,1,.1-2l.993-1,0,0a1.5,1.5,0,0,1,2.109,0h0l4.816,4.823a1.5,1.5,0,0,1,0,2.109l-.993.993a1.5,1.5,0,0,1-2,.1c-.338.256-.642.491-.923.712L72.507,50.485l.012.012a1.724,1.724,0,0,1,0,2.437L71.3,54.153a1.724,1.724,0,0,1-2.437,0l-.013-.014L58.385,43.162c-.228.288-.47.6-.735.951a1.5,1.5,0,0,1-.1,2l-.993,1,0,0a1.507,1.507,0,0,1-2.116,0h0L49.627,42.29a1.489,1.489,0,0,1-.433-1.128H39.17a.789.789,0,1,1,0-1.578H50.224l.4-.4a1.509,1.509,0,0,1,2.006-.1C53.189,38.661,53.662,38.292,54.079,37.944Zm4.5-2.551a20.55,20.55,0,0,1-4.818,4.818l2.77,2.77c.45-.591.839-1.083,1.211-1.523v0a17.541,17.541,0,0,1,2.083-2.082h0c.439-.37.931-.759,1.522-1.209Zm1.766,5.628c-.329.3-.63.6-.931.929L69.984,53.042a.145.145,0,0,0,.2,0L71.4,51.818a.145.145,0,0,0,0-.2Zm-1.611-7.706,4.694,4.694.87-.87-4.694-4.7ZM50.8,41.235l4.7,4.7.874-.879-4.7-4.7ZM48.585,22.654a1.431,1.431,0,0,1,1.425,1.429V30.9a1.429,1.429,0,0,1-1.428,1.428H40.007a1.431,1.431,0,0,1-1.43-1.428V24.083A1.433,1.433,0,0,1,40,22.654v-.682a4.292,4.292,0,1,1,8.583,0Zm-7,0h5.426v-.682a2.713,2.713,0,1,0-5.426,0Zm-1.425,8.095h8.277V24.233H40.155Zm4.928-2.183v.992a.789.789,0,0,1-1.578,0v-.992a2.045,2.045,0,1,1,1.578,0Zm-.789-1.42a.466.466,0,1,0-.466-.466A.466.466,0,0,0,44.294,27.145ZM57.124,53.657H47.007a.789.789,0,0,1-.77-.964l.539-2.381a1.461,1.461,0,0,1,1.453-1.133H55.9a1.461,1.461,0,0,1,1.453,1.133l.54,2.381a.789.789,0,0,1-.77.964Zm-1.287-2.9H48.294l-.3,1.32h8.142ZM60.3,29.6a.789.789,0,0,1-1.578,0V6.995a.005.005,0,0,0-.005-.005H29.877s-.008,0-.008.005V44.839a.008.008,0,0,0,.008.008H51.139a.789.789,0,0,1,0,1.578H29.877a1.587,1.587,0,0,1-1.586-1.586V6.995a1.588,1.588,0,0,1,1.586-1.584H58.713A1.588,1.588,0,0,1,60.3,6.995ZM33.425,37.944a.789.789,0,0,1,0-1.578h2.729a.789.789,0,0,1,0,1.578Zm0,3.218a.789.789,0,0,1,0-1.578h2.729a.789.789,0,0,1,0,1.578Z" transform="translate(-26.504 -5.591)" fill="#182e68" fill-rule="evenodd"/>
        </g>
      </g>
    </g>
  </g>
</svg>
