<svg xmlns="http://www.w3.org/2000/svg" xmlns:xlink="http://www.w3.org/1999/xlink" width="109" height="109" viewBox="0 0 109 109">
  <defs>
    <linearGradient id="linear-gradient" x1="0.5" x2="0.5" y2="1" gradientUnits="objectBoundingBox">
      <stop offset="0" stop-color="#ddf1ff"/>
      <stop offset="1" stop-color="#fff"/>
    </linearGradient>
  </defs>
  <g id="Group_1122143" data-name="Group 1122143" transform="translate(-950.878 -9141.342)">
    <g id="Group_1099855" data-name="Group 1099855" transform="translate(955.878 9146.342)">
      <g id="Group_1099808" data-name="Group 1099808" transform="translate(0 0)">
        <g id="Group_1099775" data-name="Group 1099775" transform="translate(0 0)">
          <g id="Group_1099770" data-name="Group 1099770">
            <g id="Rectangle_401345" data-name="Rectangle 401345" stroke="#614c8d" stroke-width="5" fill="url(#linear-gradient)">
              <rect width="99" height="99" rx="10" stroke="none"/>
              <rect x="-2.5" y="-2.5" width="104" height="104" rx="12.5" fill="none"/>
            </g>
          </g>
        </g>
        <g id="Group_1099776" data-name="Group 1099776" transform="translate(11.22 11.103)">
          <g id="Group_1099618" data-name="Group 1099618" transform="translate(0 0)">
            <rect id="Rectangle_401104" data-name="Rectangle 401104" width="75.681" height="76.593" transform="translate(0)" fill="none"/>
          </g>
          <path id="Path_912840" data-name="Path 912840" d="M72.053,90.961a3.6,3.6,0,0,0-3.442,2.56H63.948l-2.162-5.8a1.035,1.035,0,0,0-.97-.674h-6.3a40.007,40.007,0,0,0,1.6-4.463H66.184a3.6,3.6,0,1,0,0-2.069H56.672q.525-2.137.89-4.462h3.255a1.035,1.035,0,0,0,.97-.674l2.162-5.8h4.663a3.6,3.6,0,1,0,0-2.069H63.229a1.035,1.035,0,0,0-.97.674l-2.162,5.8H57.851c.276-2.237.453-4.6.53-7.1a1.035,1.035,0,0,0-.761-1.03,54.656,54.656,0,0,1-19.174-9.569,1.035,1.035,0,0,0-1.26,0,54.635,54.635,0,0,1-19.179,9.568,1.035,1.035,0,0,0-.761,1.03c.077,2.5.254,4.862.53,7.1H15.532l-2.166-5.8A1.035,1.035,0,0,0,12.4,67.5H7.019a3.6,3.6,0,1,0,0,2.069h4.658l2.166,5.8a1.035,1.035,0,0,0,.97.673h3.251q.366,2.326.89,4.462H9.445a3.6,3.6,0,1,0,0,2.069H19.514a39.989,39.989,0,0,0,1.6,4.462h-6.3a1.035,1.035,0,0,0-.97.673l-2.166,5.8H7.019a3.6,3.6,0,1,0,0,2.069H12.4a1.035,1.035,0,0,0,.969-.673l2.166-5.8h6.554a32.427,32.427,0,0,0,2.936,4.735l-8.34,2.621a1.035,1.035,0,0,0-.677.677l-1.864,5.921a3.593,3.593,0,1,0,3.428,2.665,3.558,3.558,0,0,0-1.454-2.041l1.7-5.41,8.6-2.7q.664.768,1.378,1.494l-6,10.394a5.132,5.132,0,0,0,4.444,7.7h23.16a5.132,5.132,0,0,0,4.445-7.7l-6-10.4q.713-.726,1.377-1.493l8.6,2.7,1.7,5.409a3.58,3.58,0,1,0,1.974-.622l-1.864-5.923a1.035,1.035,0,0,0-.677-.677l-8.341-2.618a32.421,32.421,0,0,0,2.936-4.736H60.1l2.162,5.8a1.035,1.035,0,0,0,.97.674H68.61a3.6,3.6,0,1,0,3.443-4.63ZM69.627,80.017A1.527,1.527,0,1,1,68.1,81.547,1.527,1.527,0,0,1,69.627,80.017Zm2.426-13.009a1.527,1.527,0,1,1-1.525,1.529,1.527,1.527,0,0,1,1.525-1.529ZM3.573,70.063A1.527,1.527,0,1,1,5.1,68.538,1.527,1.527,0,0,1,3.573,70.063ZM6,83.072a1.527,1.527,0,1,1,1.525-1.525A1.527,1.527,0,0,1,6,83.072ZM3.573,96.085A1.527,1.527,0,1,1,5.1,94.556a1.527,1.527,0,0,1-1.529,1.529Zm10.919,12.051h0a1.527,1.527,0,0,1-.792-2.949,1.547,1.547,0,0,1,.4-.053,1.526,1.526,0,0,1,.763.206,1.508,1.508,0,0,1,.709.923,1.529,1.529,0,0,1-1.076,1.873Zm45.568-1.871a1.527,1.527,0,1,1,1.08,1.872h0a1.522,1.522,0,0,1-1.077-1.871Zm-17.8-18.855a5.133,5.133,0,0,0-8.889,0l-2.429,4.208c-4.377-5.077-6.775-11.862-7.492-21.166a61.147,61.147,0,0,0,14.366-7.216,61.148,61.148,0,0,0,14.366,7.215c-.722,9.3-3.119,16.089-7.492,21.165Zm9.789,24.158A2.96,2.96,0,0,1,49.4,113.1H26.235a3.063,3.063,0,0,1-2.653-4.594L35.163,88.444a3.063,3.063,0,0,1,5.3,0l11.582,20.062a2.948,2.948,0,0,1,0,3.061ZM48.09,93.706l-.024.028q-.627.76-1.3,1.474l-.981-1.7C50.891,87.879,53.6,80.317,54.3,69.8a1.035,1.035,0,0,0-.708-1.051,59.064,59.064,0,0,1-15.189-7.614,1.035,1.035,0,0,0-1.182,0,59.067,59.067,0,0,1-15.19,7.614,1.035,1.035,0,0,0-.708,1.051c.694,10.52,3.408,18.082,8.523,23.712l-.981,1.7c-5.984-6.331-9.029-15.153-9.527-27.583A56.522,56.522,0,0,0,37.815,58.4a56.513,56.513,0,0,0,18.469,9.223C55.824,79.1,53.2,87.5,48.09,93.706Zm23.963,2.38a1.529,1.529,0,1,1,1.082-.448,1.527,1.527,0,0,1-1.082.448ZM37.815,106.04a2.709,2.709,0,1,0,2.707,2.71A2.709,2.709,0,0,0,37.815,106.04Zm0,3.348a.639.639,0,1,1,.637-.637A.639.639,0,0,1,37.815,109.387ZM39.126,91.4H36.5a1.809,1.809,0,0,0-1.309.56,1.655,1.655,0,0,0-.461,1.235l.548,10.9a1.77,1.77,0,0,0,1.771,1.7h1.525a1.779,1.779,0,0,0,1.771-1.691L40.9,93.184a1.668,1.668,0,0,0-.472-1.234,1.808,1.808,0,0,0-1.3-.553Zm-.831,12.327h-.961l-.516-10.256H38.81Z" transform="translate(0.026 -47.323)" fill="#182e68"/>
        </g>
      </g>
    </g>
  </g>
</svg>
