<svg xmlns="http://www.w3.org/2000/svg" xmlns:xlink="http://www.w3.org/1999/xlink" width="99.458" height="150" viewBox="0 0 99.458 150">
  <defs>
    <linearGradient id="linear-gradient" x1="0.5" x2="0.5" y2="1" gradientUnits="objectBoundingBox">
      <stop offset="0" stop-color="#ddf1ff"/>
      <stop offset="1" stop-color="#fff"/>
    </linearGradient>
  </defs>
  <g id="Group_1122713" data-name="Group 1122713" transform="translate(-809.917 -5183.328)">
    <rect id="Rectangle_410769" data-name="Rectangle 410769" width="85" height="150" transform="translate(809.917 5183.328)" fill="#daf5fe"/>
    <g id="Group_1122245" data-name="Group 1122245" transform="translate(566.388 -809.086)">
      <g id="Group_1099808" data-name="Group 1099808" transform="translate(269.987 6031.414)">
        <g id="Group_1099775" data-name="Group 1099775" transform="translate(0 0)">
          <g id="Group_1099770" data-name="Group 1099770">
            <g id="Rectangle_401345" data-name="Rectangle 401345" stroke="#8f006f" stroke-width="5" fill="url(#linear-gradient)">
              <rect width="73" height="73" rx="10" stroke="none"/>
              <rect x="2.5" y="2.5" width="68" height="68" rx="7.5" fill="none"/>
            </g>
          </g>
        </g>
        <g id="Group_1099776" data-name="Group 1099776" transform="translate(12.023 11.982)">
          <g id="Group_1099618" data-name="Group 1099618" transform="translate(0 0)">
            <rect id="Rectangle_401104" data-name="Rectangle 401104" width="48.305" height="48.887" transform="translate(0)" fill="none"/>
          </g>
          <g id="Group_1122317" data-name="Group 1122317" transform="translate(-304.164 -249.954)">
            <path id="Path_913052" data-name="Path 913052" d="M1601.061,1754.137a.762.762,0,0,0-1.078,0l-6.322,6.322-2.51-2.51a.762.762,0,0,0-1.078,1.078l3.049,3.049a.762.762,0,0,0,1.078,0l6.861-6.861A.762.762,0,0,0,1601.061,1754.137Z" transform="translate(-1267.25 -1482.947)" fill="#182e68"/>
            <path id="Path_913053" data-name="Path 913053" d="M1109.095,1205.227a.762.762,0,0,0,.371-.1l5.919-3.291a10.321,10.321,0,0,0,5.146-8.913V1187.5a3.056,3.056,0,0,0-1.537-2.648l-8.386-4.792a3.3,3.3,0,0,0-3.026,0l-8.386,4.792a3.056,3.056,0,0,0-1.537,2.648v5.432a10.326,10.326,0,0,0,5.157,8.919l5.908,3.285A.761.761,0,0,0,1109.095,1205.227Zm-9.911-12.3V1187.5a1.528,1.528,0,0,1,.769-1.324l8.386-4.792a1.8,1.8,0,0,1,1.513,0l8.386,4.792a1.528,1.528,0,0,1,.768,1.324v5.432a8.788,8.788,0,0,1-4.373,7.587l-5.538,3.079-5.527-3.073A8.792,8.792,0,0,1,1099.184,1192.927Z" transform="translate(-781.922 -916.726)" fill="#182e68"/>
            <path id="Path_913054" data-name="Path 913054" d="M1647.974,256.87a.759.759,0,0,1-.539-.223l-2.668-2.668a.762.762,0,0,1,0-1.078l2.668-2.668a.762.762,0,1,1,1.078,1.078l-2.129,2.129,2.129,2.129a.762.762,0,0,1-.539,1.3Z" transform="translate(-1321.182 -0.007)" fill="#182e68"/>
            <path id="Path_913055" data-name="Path 913055" d="M1838.3,3261.253l-2.129-2.129a.762.762,0,0,1,1.078-1.078l2.668,2.668a.762.762,0,0,1,0,1.078l-2.668,2.668a.762.762,0,0,1-1.078-1.078Z" transform="translate(-1509.919 -2965.89)" fill="#182e68"/>
            <path id="Path_913056" data-name="Path 913056" d="M450.559,266.012a2.289,2.289,0,0,0,2.287-2.287V252.289A2.289,2.289,0,0,0,450.559,250H443.7a2.289,2.289,0,0,0-2.287,2.287v11.436a2.289,2.289,0,0,0,2.287,2.287h6.861Zm0-1.525H443.7a.763.763,0,0,1-.762-.762V252.289a.763.763,0,0,1,.762-.762h6.861a.763.763,0,0,1,.762.762v11.436A.763.763,0,0,1,450.559,264.487Z" transform="translate(-134.822)" fill="#182e68"/>
            <path id="Path_913057" data-name="Path 913057" d="M667.388,1044.489h-3.736a.762.762,0,1,1,0-1.525h3.736a.762.762,0,1,1,0,1.525Z" transform="translate(-353.213 -781.908)" fill="#182e68"/>
            <path id="Path_913058" data-name="Path 913058" d="M667.388,497.618h-3.736a.762.762,0,0,1,0-1.525h3.736a.762.762,0,0,1,0,1.525Z" transform="translate(-353.213 -242.661)" fill="#182e68"/>
            <path id="Path_913059" data-name="Path 913059" d="M2601.56,2767.915v6.1a2.289,2.289,0,0,0,2.287,2.287h2.668v1.525h-1.144a.762.762,0,1,0,0,1.525H2613a.762.762,0,1,0,0-1.525h-1.144V2776.3h2.668a2.289,2.289,0,0,0,2.287-2.287v-6.1a2.29,2.29,0,0,0-2.287-2.287h-10.673A2.29,2.29,0,0,0,2601.56,2767.915Zm6.48,8.386h2.287v1.525h-2.287Zm-4.955-8.386a.763.763,0,0,1,.762-.763h10.673a.763.763,0,0,1,.763.763v6.1a.764.764,0,0,1-.763.762h-10.673a.763.763,0,0,1-.762-.762Z" transform="translate(-2264.858 -2480.557)" fill="#182e68"/>
            <path id="Path_913060" data-name="Path 913060" d="M305.445,2000a.763.763,0,0,1,.762.762,19.462,19.462,0,0,0,19.44,19.44.762.762,0,0,1,0,1.525,20.989,20.989,0,0,1-20.965-20.965.763.763,0,0,1,.762-.762Z" transform="translate(0 -1725.598)" fill="#182e68"/>
            <path id="Path_913061" data-name="Path 913061" d="M1918.738,441.406a20.989,20.989,0,0,1,20.965,20.965.762.762,0,1,1-1.525,0,19.462,19.462,0,0,0-19.44-19.44.762.762,0,1,1,0-1.525Z" transform="translate(-1590.803 -188.736)" fill="#182e68"/>
          </g>
        </g>
      </g>
    </g>
  </g>
</svg>
